<?xml version="1.0" standalone="no"?>
<!DOCTYPE svg PUBLIC "-//W3C//DTD SVG 1.1//EN" "http://www.w3.org/Graphics/SVG/1.1/DTD/svg11.dtd" >
<svg>
<metadata>
Created by FontForge 20090914 at Tue May 15 23:27:12 2012
 By www-data
Copyright &#194;&#169; Christian POISSON 1996
</metadata>
<defs>
<font id="1Echecs" horiz-adv-x="0" >
  <font-face 
    font-family="1Echecs"
    font-weight="400"
    font-stretch="normal"
    units-per-em="1000"
    panose-1="0 11 5 0 0 0 0 0 0 0"
    ascent="1000"
    descent="0"
    x-height="830"
    cap-height="889.997"
    bbox="-42 -0.000976562 1042 1000"
    underline-thickness="60"
    underline-position="560"
    unicode-range="U+001F-U+FB02"
  />
<missing-glyph horiz-adv-x="502" 
d="M-1 0h500v500h-500v-500zM9 10v480h480v-480h-480z" />
    <glyph glyph-name=".notdef" horiz-adv-x="502" 
d="M-1 0h500v500h-500v-500zM9 10v480h480v-480h-480z" />
    <glyph glyph-name="caseblanche" horiz-adv-x="1000" 
 />
    <glyph glyph-name="caseblanche" unicode=" " horiz-adv-x="1000" 
 />
    <glyph glyph-name="coinsimplehaut" unicode="!" horiz-adv-x="60" 
d="M0 60v-60h60v60h-60z" />
    <glyph glyph-name="cngN" unicode="&#x22;" 
d="M20 895l85 85h-5l-80 -80v-5zM443 118l-98 -98h5l96 96zM379 164l-144 -144h5l143 143zM395 945h5l35 35h-5zM285 945h5l35 35h-5zM175 945h5l35 35h-5zM73 838v5l-53 -53v-5zM83 738v5l-63 -63v-5zM93 638v5l-73 -73v-5zM111 546v5l-91 -91v-5zM135 460l-2 3l-113 -113
v-5zM164 379l-2 3l-142 -142v-5zM205 310l-2 3l-183 -183v-5zM252 250l-2 3l-230 -230v-3h2zM313 203l-3 2l-185 -185h5zM494 59l-39 -39h5l36 36z" />
    <glyph glyph-name="cadre" unicode="#" 
d="M30 970v-940h940v940h-940zM60 940h880v-880h-880v880z" />
    <glyph glyph-name="coinsimplebas" unicode="$" horiz-adv-x="60" 
d="M0 1000v-60h60v60h-60z" />
    <glyph glyph-name="cndVizir" unicode="%" 
d="M500 825l155 155h-5l-150 -150v-5zM500 935l45 45h-5l-40 -40v-5zM500 60l160 160l-2 3l-158 -158v-5zM500 170l75 75h-5l-70 -70v-5zM538 758h5l222 222h-5zM648 758h5l8 8l1 6zM735 845h5l135 135h-5zM843 845h5l132 132v3h-2zM936 831v-5l44 44v5zM936 721v-5l44 44v5
zM936 611v-5l44 44v5zM936 501v-5l44 44v5zM936 391v-5l44 44v5zM936 281v-5l44 44v5zM936 171v-5l44 44v5zM925 155h-5l-135 -135h5zM815 155h-5l-135 -135h5zM705 155h-5l-135 -135h5zM980 105l-85 -85h5l80 80v5z" />
    <glyph glyph-name="cngS" unicode="&#x26;" 
d="M20 895l85 85h-5l-80 -80v-5zM20 785l195 195h-5l-190 -190v-5zM391 941l6 1l38 38h-5zM265 925l7 2l53 53h-5zM162 817l-1 4l-141 -141v-5zM192 737l-1 4l-171 -171v-5zM148 583l4 9l-132 -132v-5zM113 438l2 7l-95 -95v-5zM31 246v5l-11 -11v-5zM297 82l-62 -62h5
l62 62h-5zM172 174l-152 -152v-2h3l155 155zM66 176l-46 -46v-5l49 49zM206 316l2 -3l47 47v5zM382 277l-2 -7l46 46l-2 3zM220 115l-95 -95h5l92 92zM416 91l-71 -71h5l69 69zM483 48l-28 -28h5l28 28h-5z" />
    <glyph glyph-name="cndN" unicode="'" 
d="M841 406l-5 -10l144 144v5zM579 144l-8 -8l-5 -10l14 14zM505 945h5l35 35h-5zM615 945h5l35 35h-5zM725 945h5l35 35h-5zM720 830l-2 -7l157 157h-5zM740 743h5l235 235v2h-3zM821 716l3 -2l156 156v5zM891 676l2 -3l87 87v5zM920 595l-2 -7l62 62v5zM739 194v-5
l241 241v5zM636 86l-3 2l-68 -68h5zM895 20h5l80 80v5zM785 20h5l190 190v5zM675 20h5l300 300v5z" />
    <glyph glyph-name="cngP" unicode="(" 
d="M156 158l-136 -136v-2h3l131 131zM170 65l-45 -45h5l45 45h-5zM280 65l-45 -45h5l45 45h-5zM390 65l-45 -45h5l45 45h-5zM500 65l-45 -45h5l40 40v5zM185 290l5 10l-170 -170v-5zM288 503l-2 3l-266 -266v-5zM288 613l4 9l-272 -272v-5zM344 779v5l-324 -324v-5zM105 980
h-5l-80 -80v-5zM215 980h-5l-190 -190v-5zM325 980h-5l-300 -300v-5zM435 980h-5l-410 -410v-5z" />
    <glyph glyph-name="cndP" unicode=")" 
d="M980 105l-85 -85h5l80 80v5zM500 935l45 45h-5l-40 -40v-5zM582 907l73 73h-5l-70 -70zM638 853l127 127h-5l-123 -123zM645 750l230 230h-5l-223 -223zM686 683l294 294v3h-2l-294 -294zM719 609l261 261v5l-261 -261v-5zM704 484l276 276v5l-278 -278zM749 419l231 231
v5l-233 -233zM788 348l192 192v5l-193 -193zM820 270l160 160v5l-160 -160v-5zM838 178l142 142v5l-142 -142v-5zM844 74l136 136v5l-135 -135zM830 65l-45 -45h5l45 45h-5zM720 65l-45 -45h5l45 45h-5zM610 65l-45 -45h5l45 45h-5z" />
    <glyph glyph-name="cndPao" unicode="*" 
d="M500 940v-5l45 45h-5zM500 830v-5l155 155h-5zM500 175v-5l72 72h-5zM500 65v-5l155 155l-2 3zM935 610v-5l45 45v5zM935 500v-5l45 45v5zM935 390v-5l45 45v5zM935 280v-5l45 45v5zM935 170v-5l45 45v5zM894 124h-5l-104 -104h5zM784 124h-5l-104 -104h5zM735 185h-5
l-165 -165h5zM535 755h5l225 225h-5zM645 755h5l225 225h-5zM873 876h5l102 102v2h-3zM935 830v-5l45 45v5zM935 720v-5l45 45v5zM895 20h5l80 80v5z" />
    <glyph glyph-name="cndRose" unicode="+" 
d="M500 940v-5l45 45h-5zM500 65v-5l75 75l-10 -5zM945 730v-5l35 35v5zM906 581l3 -2l71 71v5zM867 432l-4 -9l117 117v5zM542 872l3 -2l110 110h-5zM618 838l3 -2l144 144h-5zM691 801l4 -1l180 180h-5zM767 770l2 -3l211 211v2h-3zM846 741h5l129 129v5zM895 20h5l80 80
v5zM785 20h5l190 190v5zM675 20h5l300 300v5zM565 20h5l410 410v5z" />
    <glyph glyph-name="cngToursaut" unicode="," 
d="M20 895l85 85h-5l-80 -80v-5zM500 65v-5l-40 -40h-5zM390 65l-45 -45h5l45 45h-5zM280 65l-45 -45h5l45 45h-5zM170 65l-45 -45h5l45 45h-5zM155 158l-135 -135v-3h2l133 133v5zM155 265l-135 -135v-5l135 135v5zM245 355v-5l-26 -26l-7 -2zM245 465l-225 -225v-5
l225 225v5zM245 575l-225 -225v-5l225 225v5zM218 658l-198 -198v-5l200 200zM185 735l-165 -165v-5l165 165v5zM124 784l-104 -104v-5l104 104v5zM124 894l-104 -104v-5l104 104v5zM170 935l45 45h-5l-45 -45h5zM280 935l45 45h-5l-45 -45h5zM390 935l45 45h-5l-45 -45h5z
" />
    <glyph glyph-name="haut" unicode="-" horiz-adv-x="1000" 
d="M0 60v-60h1000v60h-1000z" />
    <glyph glyph-name="cngRose" unicode="." 
d="M500 940l-23 -23l3 -2l20 20v5zM500 65v-5l-40 -40h-5zM430 100l-6 -1l-79 -79h5zM305 85h-5l-65 -65h5zM181 71l-6 -1l-50 -50h5zM69 67h-5l-44 -44v-3h2zM55 165l-35 -35v-5l35 35v5zM55 275l-35 -35v-5l35 35v5zM55 385l-35 -35v-5l35 35v5zM55 495l-35 -35v-5l35 35
v5zM55 605l-35 -35v-5l35 35v5zM171 721h5l108 108l2 7zM250 690l3 -2l12 12l-1 4zM370 920l6 1l59 59h-5zM20 675l305 305h-5l-300 -300v-5zM20 785l195 195h-5l-190 -190v-5zM20 895l85 85h-5l-80 -80v-5z" />
    <glyph glyph-name="côtésimple" unicode="/" horiz-adv-x="60" 
d="M0 1000v-1000h60v1000h-60z" />
    <glyph glyph-name="cngR" unicode="0" 
d="M66 501v5l-46 -46v-5zM191 296v5l-171 -171v-5zM144 359l-2 3l-122 -122v-5zM97 422l-2 3l-75 -75v-5zM400 835v5l-111 -111l4 -1zM71 616l5 10l-56 -56v-5zM155 705l11 6l269 269h-5zM486 46h-5l-26 -26h5zM385 55l-4 1l-36 -36h5zM292 72l-4 1l-53 -53h5zM214 104l-2 3
l-87 -87h5zM191 188v5l-171 -171v-2h3zM105 980h-5l-80 -80v-5zM215 980h-5l-190 -190v-5zM325 980h-5l-300 -300v-5z" />
    <glyph glyph-name="cndR" unicode="1" 
d="M980 105v-5l-80 -80h-5zM980 215v-5l-190 -190h-5zM598 48h-5l-28 -28h5zM741 81l-9 -4l-57 -57h5zM811 156v-5l169 169v5zM811 266v-5l169 169v5zM928 488l52 52v5l-48 -48zM937 607l43 43v5l-43 -43v-5zM901 681l79 79v5l-82 -82zM832 722l148 148v5l-152 -152z
M740 737l240 240v3h-2l-243 -243h5zM631 736l244 244h-5l-241 -241zM520 955l25 25h-5l-25 -25h5zM574 904l3 -2l78 78h-5zM584 804l3 -2l178 178h-5z" />
    <glyph glyph-name="cngD" unicode="2" 
d="M434 759l-2 3l-47 -47l2 -3zM360 905l75 75h-5l-73 -73zM494 54h-5l-34 -34h5zM387 57l-4 1l-38 -38h5zM291 71l-4 1l-52 -52h5zM202 92l-4 1l-73 -73h5zM156 153l3 8l-139 -139v-2h3zM202 307l-2 3l-180 -180v-5zM163 378l-1 4l-142 -142v-5zM137 462l-1 4l-116 -116v-5
zM114 549l-1 4l-93 -93v-5zM94 639l-2 3l-72 -72v-5zM39 694l-1 4l-18 -18v-5zM226 661l30 30v5l-32 -32zM175 830l36 36l55 55l59 59h-5l-59 -59l-47 -47l-42 -42zM105 980h-5l-80 -80v-5zM215 980h-5l-190 -190v-5z" />
    <glyph glyph-name="cndD" unicode="3" 
d="M980 105v-5l-80 -80h-5zM980 215v-5l-190 -190h-5zM609 59l-6 -1l-38 -38h5zM735 75l-7 -2l-53 -53h5zM838 183l1 -4l141 141v5zM808 263l1 -4l171 171v5zM852 417l128 128v-5l-132 -132zM887 562l93 93v-5l-95 -95zM969 754v-5l11 11v5zM703 918l62 62h-5l-62 -62h5z
M828 825l152 152v3h-2l-155 -155h5zM934 824l46 46v5l-49 -49zM794 684l-2 3l-47 -47v-5zM618 723l2 7l-46 -46l2 -3zM780 885l95 95h-5l-92 -92zM584 909l71 71h-5l-69 -69zM517 952l28 28h-5l-28 -28h5z" />
    <glyph glyph-name="cngT" unicode="4" 
d="M125 127l-105 -105v-2h3l102 102v5zM170 65l-45 -45h5l45 45h-5zM280 65l-45 -45h5l45 45h-5zM390 65l-45 -45h5l45 45h-5zM500 65v-5l-40 -40h-5zM245 350v5l-225 -225v-5zM245 460v5l-225 -225v-5zM245 570v5l-225 -225v-5zM223 658l-2 3l-201 -201v-5zM167 712l-1 4
l-146 -146v-5zM155 810v5l-135 -135v-5zM380 930v-5l55 55h-5zM280 935l45 45h-5l-45 -45h5zM105 980h-5l-80 -80v-5zM215 980h-5l-190 -190v-5z" />
    <glyph glyph-name="cndT" unicode="5" 
d="M980 105v-5l-80 -80h-5zM500 935l45 45h-5l-40 -40v-5zM610 935l45 45h-5l-45 -45h5zM720 935l45 45h-5l-45 -45h5zM830 935l45 45h-5l-45 -45h5zM845 842l135 135v3h-2l-133 -133v-5zM845 735l135 135v5l-135 -135v-5zM755 645l33 33l-7 -2l-26 -26v-5zM755 535l225 225
v5l-225 -225v-5zM755 425l225 225v5l-225 -225v-5zM782 342l198 198v5l-200 -200zM815 265l165 165v5l-165 -165v-5zM876 216l104 104v5l-104 -104v-5zM876 106l104 104v5l-104 -104v-5zM830 65l-45 -45h5l45 45h-5zM720 65l-45 -45h5l45 45h-5zM610 65l-45 -45h5l45 45h-5z
" />
    <glyph glyph-name="cngF" unicode="6" 
d="M500 60v5l-45 -45h5zM304 409l-2 3l-154 -154l8 3zM266 481l-1 4l-245 -245v-5zM245 570v5l-225 -225v-5zM396 831v5l-376 -376v-5zM416 86l-7 -2l-64 -64h5zM311 91l-4 1l-72 -72h5zM184 74l-12 -7l-47 -47h5zM101 98l-1 4l-80 -80v-2h3zM75 180v5l-55 -55v-5zM268 265
l12 12l-2 3l-13 -13zM105 980h-5l-80 -80v-5zM215 980h-5l-190 -190v-5zM325 980h-5l-300 -300v-5zM435 980h-5l-410 -410v-5z" />
    <glyph glyph-name="cndF" unicode="7" 
d="M980 105v-5l-80 -80h-5zM500 60l32 32l-4 1l-28 -28v-5zM634 84l-6 -1l-63 -63h5zM752 92l-4 1l-73 -73h5zM824 54l-4 1l-35 -35h5zM928 163l52 52v-5l-55 -55zM894 239l3 -2l83 83v5zM813 268l167 167v-5l-161 -161zM707 272l273 273v-5l-267 -267zM700 375l1 -4
l279 279v5zM746 531l234 234v-5l-235 -234zM751 646l1 -4l228 228v5zM719 721l2 -3l259 259v3h-2zM664 774l3 -2l208 208h-5zM599 819l3 -2l163 163h-5zM585 915l2 -3l68 68h-5zM515 955h5l25 25h-5z" />
    <glyph glyph-name="cngC" unicode="8" 
d="M159 594l5 10l-144 -144v-5zM421 856l8 8l5 10l-14 -14zM495 55h-5l-35 -35h5zM385 55h-5l-35 -35h5zM275 55h-5l-35 -35h5zM280 170l2 7l-157 -157h5zM260 257h-5l-235 -235v-2h3zM179 284l-3 2l-156 -156v-5zM109 324l-2 3l-87 -87v-5zM80 405l2 7l-62 -62v-5zM261 806
v5l-241 -241v-5zM364 914l3 -2l68 68h-5zM105 980h-5l-80 -80v-5zM215 980h-5l-190 -190v-5zM325 980h-5l-300 -300v-5z" />
    <glyph glyph-name="cndC" unicode="9" 
d="M980 105v-5l-80 -80h-5zM557 882l98 98h-5l-96 -96zM621 836l144 144h-5l-143 -143zM605 55h-5l-35 -35h5zM715 55h-5l-35 -35h5zM825 55h-5l-35 -35h5zM927 162v-5l53 53v5zM917 262v-5l63 63v5zM907 362v-5l73 73v5zM889 454v-5l91 91v5zM865 540l2 -3l113 113v5z
M836 621l2 -3l142 142v5zM795 690l2 -3l183 183v5zM748 750l2 -3l230 230v3h-2zM687 797l3 -2l185 185h-5zM506 941l39 39h-5l-36 -36z" />
    <glyph glyph-name="casenoire" unicode=":" horiz-adv-x="1000" 
d="M980 105l-85 -85h5l80 80v5zM980 215l-195 -195h5l190 190v5zM980 325l-305 -305h5l300 300v5zM980 435l-415 -415h5l410 410v5zM980 545l-525 -525h5l520 520v5zM980 655l-635 -635h5l630 630v5zM980 765l-745 -745h5l740 740v5zM980 875l-855 -855h5l850 850v5z
M980 980h-2l-958 -958v-2h3l957 957v3zM875 980h-5l-850 -850v-5zM765 980h-5l-740 -740v-5zM655 980h-5l-630 -630v-5zM545 980h-5l-520 -520v-5zM435 980h-5l-410 -410v-5zM325 980h-5l-300 -300v-5zM215 980h-5l-190 -190v-5zM105 980h-5l-80 -80v-5z" />
    <glyph glyph-name="cndToursaut" unicode=";" 
d="M875 873l105 105v2h-3l-102 -102v-5zM830 935l45 45h-5l-45 -45h5zM720 935l45 45h-5l-45 -45h5zM610 935l45 45h-5l-45 -45h5zM500 935l45 45h-5l-40 -40v-5zM755 650v-5l225 225v5zM755 540v-5l225 225v5zM755 430v-5l225 225v5zM777 342l2 -3l201 201v5zM833 288l1 -4
l146 146v5zM845 190v-5l135 135v5zM620 70v5l-55 -55h5zM720 65l-45 -45h5l45 45h-5zM895 20h5l80 80v5zM785 20h5l190 190v5z" />
    <glyph glyph-name="royale2" unicode="&#x3c;" 
d="M525 630v113h55v50h-55v50h-50v-50h-55v-50h55v-113h50z" />
    <glyph glyph-name="cngZèbre" unicode="=" 
d="M500 60v5l-45 -45h5zM500 935v5l-75 -75l10 5zM55 270v5l-35 -35v-5zM94 419l-3 2l-71 -71v-5zM133 568l4 9l-117 -117v-5zM458 128l-3 2l-110 -110h5zM382 162l-3 2l-144 -144h5zM309 199l-4 1l-180 -180h5zM233 230l-2 3l-211 -211v-2h3zM154 259h-5l-129 -129v-5z
M105 980h-5l-80 -80v-5zM215 980h-5l-190 -190v-5zM325 980h-5l-300 -300v-5zM435 980h-5l-410 -410v-5z" />
    <glyph glyph-name="royale" unicode="&#x3e;" 
d="M525 787v133h50v40h-50v40h-50v-40h-50v-40h50v-133h50z" />
    <glyph glyph-name="cndZèbre" unicode="?" 
d="M500 60l23 23l-3 2l-20 -20v-5zM500 935l45 45h-5l-40 -40v-5zM570 900l6 1l79 79h-5zM695 915h5l65 65h-5zM819 929l6 1l50 50h-5zM931 933h5l44 44v3h-2zM945 835l35 35v5l-35 -35v-5zM945 725l35 35v5l-35 -35v-5zM945 615l35 35v5l-35 -35v-5zM945 505l35 35v5
l-35 -35v-5zM945 395l35 35v5l-35 -35v-5zM829 279h-5l-108 -108l-2 -7zM750 310l-3 2l-12 -12l1 -4zM630 80l-6 -1l-59 -59h5zM980 325l-305 -305h5l300 300v5zM980 215l-195 -195h5l190 190v5zM980 105l-85 -85h5l80 80v5z" />
    <glyph glyph-name="trou" unicode="@" 
d="M0 1000v-1000h1000v1000h-1000zM60 940h880v-880h-880v880z" />
    <glyph glyph-name="EquisauteurN" unicode="A" horiz-adv-x="1000" 
d="M820 292v420l30 24v-472zM180 292l-30 -28v472l30 -24v-420zM470 528l-350 272v-600l350 272v-122h60v123l350 -273v600l-350 -272v122h-60v-122z" />
    <glyph glyph-name="FouSautN" unicode="B" horiz-adv-x="1000" 
d="M520 320h-40v60h-60v40h60v60h40v-60h60v-40h-60v-60zM289 407c0 -41.333 15.001 -79.667 45.001 -115s73.333 -67 130 -95c-16.667 -12 -25 -27.667 -25 -47c0 -16.667 6 -30.834 18 -42.501s26.333 -17.5 43 -17.5c17.333 0 31.833 5.83301 43.5 17.5
s17.5 25.834 17.5 42.501c0 9.33301 -2.33301 18.333 -7 27s-10.667 15.334 -18 20.001c56.667 28 100 59.667 130 95s45 73.666 45 114.999c0 21.333 -3 43 -9 65c-10 36.667 -28 76 -54 118l34 109c0 12 -13.667 21.667 -41 29s-63.666 13 -108.999 17
c14.667 12.667 30.167 21.5 46.5 26.5s34.166 7.5 53.499 7.5c13.333 0 33.666 -1.33301 60.999 -4c28.667 -3.33301 50.667 -5 66 -5c22.667 0 44.334 2.83301 65.001 8.5s40.667 15.834 60 30.501l-32 101c-24 -16.667 -45 -28.334 -63 -35.001s-36 -10 -54 -10
c-12 0 -30.667 2 -56 6c-21.333 2.66699 -39.666 4.83398 -54.999 6.50098s-33.666 2.5 -54.999 2.5c-22 -2.66699 -45 -14 -69 -34c-24 20 -47 31.333 -69 34c-21.333 0 -40.333 -0.833008 -57 -2.5s-34.334 -3.83398 -53.001 -6.50098c-25.333 -4 -44 -6 -56 -6
c-18 0 -36 3.33301 -54 10s-39 18.334 -63 35.001l-32 -101c20 -14.667 40.167 -24.834 60.5 -30.501s41.833 -8.5 64.5 -8.5c15.333 0 37.333 1.66699 66 5c27.333 2.66699 47.666 4 60.999 4c20 0 38.167 -2.5 54.5 -7.5s31.5 -13.833 45.5 -26.5
c-48.667 0 -85.834 -5.33301 -111.501 -16s-38.5 -20.667 -38.5 -30l34 -109c-26 -42 -44 -81.333 -54 -118c-6 -22 -9 -43.667 -9 -65zM500.001 666.999c25.333 0 51.502 1.66797 78.502 5.00098s49.5 8 67.5 14l-9 -40c-18.667 -4.66699 -40 -8.5 -64 -11.5
s-48.333 -4.5 -73 -4.5c-22 0 -45.667 1.5 -71 4.5s-47.333 6.83301 -66 11.5l-9 40c3.33301 -0.666992 5.33301 -1.33398 6 -2.00098c17.333 -4.66699 36.166 -8.66699 56.499 -12s48.166 -5 83.499 -5zM500.003 598c21.333 0 43 1.33301 65 4s43.333 6 64 10l-10 -40
c-15.333 -4 -33.5 -6.83301 -54.5 -8.5s-42.5 -2.5 -64.5 -2.5c-18 0 -38.333 0.833008 -61 2.5s-42 4.5 -58 8.5l-10 40c20.667 -4 41.167 -7.33301 61.5 -10s42.833 -4 67.5 -4z" />
    <glyph glyph-name="CN" unicode="C" horiz-adv-x="1000" 
d="M303 633c0 24 7.66699 40.667 23 50s37.333 14 66 14c0 -23.333 -8.83301 -39.833 -26.5 -49.5s-38.5 -14.5 -62.5 -14.5zM422 767c-1.33301 0 -4.66699 -0.666992 -10 -2c-11.333 -1.33301 -20.333 -3 -27 -5c-14.667 -4.66699 -30.667 -11.667 -48 -21
c14.667 13.333 29.667 25.333 45 36c10 6.66699 18.667 11 26 13s15.333 3.33301 24 4zM306.999 774c-3.33301 -4.66699 -7.66699 -10.002 -13 -16.002c-3.33301 -3.33301 -6 -6.33301 -8 -9c-8 -10 -14.333 -19 -19 -27c-0.666992 -2 -2 -5.66699 -4 -11
c-2 -7.33301 -4 -13.666 -6 -18.999c-0.666992 -4.66699 -2.66699 -10.667 -6 -18l-3 -6c-2 -4.66699 -5.33301 -10.334 -10 -17.001c-4 -6.66699 -6.66699 -11.667 -8 -15c-3.33301 -8.66699 -7.66602 -18.334 -12.999 -29.001s-9 -18.667 -11 -24
c-0.666992 -2 -2.66699 -6.33301 -6 -13c-4 -8 -7.33301 -15 -10 -21c-0.666992 -1.33301 -2.66699 -5 -6 -11c-5.33301 -12 -11.333 -22.333 -18 -31l-2 -2c-9.33301 -11.333 -17 -21.166 -23 -29.499s-10 -16.5 -12 -24.5c0 -2 -0.333008 -5 -1 -9
c-1.33301 -10.667 -2 -18.334 -2 -23.001c0 -14.667 2 -28.667 6 -42c6.66699 -15.333 15.667 -27.333 27 -36c6.66699 -4.66699 14.167 -8 22.5 -10s16.833 -3 25.5 -3c2.66699 0 5.33398 0.333008 8.00098 1h6l3 -3c4.66699 -7.33301 8 -12 10 -14c6 -6 14.333 -9 25 -9
c12 2 22.333 7.33301 31 16c4.66699 8 12.667 17.667 24 29c5.33301 6.66699 12.666 14.667 21.999 24l19 15l19 14l26 15c20 11.333 34 18.666 42 21.999c7.33301 3.33301 17 8 29 14c9.33301 3.33301 16.333 6.33301 21 9c0 -22 -4.5 -42 -13.5 -60s-22.5 -38 -40.5 -60
l-24 -30c-26.667 -32 -45.667 -58.333 -57 -79c-10 -19.333 -17.667 -39.833 -23 -61.5s-8 -45.167 -8 -70.5h555c0 52 -1 94 -3 126s-5.33301 65.333 -10 100c-0.666992 5.33301 -1 9.33301 -1 12c-2 26 -6 53.5 -12 82.5s-13.333 57.167 -22 84.5
c-4.66699 17.333 -10.667 35.5 -18 54.5s-15.333 36.167 -24 51.5c-14 30.667 -32.667 59.334 -56 86.001c-17.333 22 -35 40 -53 54c-13.333 10 -28.333 19.667 -45 29c-4.66699 2.66699 -8 4.33398 -10 5.00098c-14 7.33301 -25 12.333 -33 15
c-22 8.66699 -40.667 14 -56 16c-12.667 20.667 -22.834 36.334 -30.501 47.001s-18.5 23 -32.5 37l-5 -10l-18 -42.5c-6 -13.667 -9.66699 -23.5 -11 -29.5c-15.333 0 -27.333 -0.666992 -36 -2c-3.33301 4 -8.83301 9.66699 -16.5 17s-16.167 15 -25.5 23
s-19 15.833 -29 23.5s-19 13.834 -27 18.501v-124zM245.998 339.998l-26.001 14c8 14.667 14.333 24.667 19 30s8.66699 8 12 8c2 0 5 -1 9 -3l4 -2c0 -0.666992 0.333008 -1.66699 1 -3v-4c0 -6.66699 -4 -16 -12 -28c-3.33301 -5.33301 -5.66602 -9.33301 -6.99902 -12z
M500.997 481.998l0.000976562 7.99902v8c0 14.667 2.66699 25.834 8 33.501s15.666 12.167 30.999 13.5c0 -25.333 -2.33301 -42.5 -7 -51.5s-10.667 -13.5 -18 -13.5c-2 0 -4.66699 0.333008 -8 1c-2.66699 0.666992 -4.66699 1 -6 1zM850.998 125.997l-51.001 -0.00292969
c0 45.333 -1.66699 86.333 -5 123c-2.66699 61.333 -11 124 -25 188c-10 44 -22.333 84.833 -37 122.5s-31.667 69.834 -51 96.501c-16 20.667 -31.833 38.167 -47.5 52.5s-32.167 27.166 -49.5 38.499c-20.667 15.333 -36 23 -46 23v26c54 -12 102.667 -40.333 146 -85
c18 -17.333 34 -37.666 48 -60.999s28.667 -51.666 44 -84.999c14.667 -31.333 27.334 -69 38.001 -113c12 -50 21.333 -103.667 28 -161c2.66699 -32 4.66699 -62.667 6 -92s2 -53.666 2 -72.999zM181.997 415.994c0 21.333 3.16699 35.833 9.5 43.5
s17.166 11.5 32.499 11.5c0 -24 -3.16699 -39.167 -9.5 -45.5s-17.166 -9.5 -32.499 -9.5z" />
    <glyph glyph-name="DN" unicode="D" horiz-adv-x="1000" 
d="M500 376c30 0 52.3311 -0.336914 66.998 -1.00391c37.333 -2 72 -5 104 -9c32.667 -4.66699 57.334 -9 74.001 -13l-9 -37c-16.667 4.66699 -38 8.33398 -64 11.001c-21.333 2.66699 -56.333 5.33398 -105 8.00098c-14 0.666992 -36.333 1 -67 1
s-53.334 -0.333008 -68.001 -1c-26 -0.666992 -55.667 -3 -89 -7c-27.333 -2.66699 -53.666 -6.66699 -78.999 -12l-9 37c19.333 4.66699 48 9.33398 86 14.001c30.667 4.66699 61 7.33398 91 8.00098c14.667 0.666992 37.334 1 68.001 1zM499.998 255.996
c-30.667 0 -53.334 -0.333984 -68.001 -1.00098c-23.333 -0.666992 -52 -3 -86 -7c-41.333 -5.33301 -73.333 -11.666 -96 -18.999l16 45c23.333 6.66699 49.666 11.334 78.999 14.001c35.333 4 64.333 6.33301 87 7c14.667 0.666992 37.334 1 68.001 1
c30 0 52.333 -0.333008 67 -1c40 -2 75.333 -5 106 -9c22.667 -2.66699 43 -6.66699 61 -12l16 -45c-25.333 7.33301 -51 12.666 -77 15.999c-37.333 6 -72.666 9.33301 -105.999 10c-14.667 0.666992 -37 1 -67 1zM802.998 152.995
c0 7.33301 -1.66504 16.1641 -4.99805 26.4971s-8 22.833 -14 37.5l-1 1c-7.33301 18.667 -13.166 34 -17.499 46s-6.5 22.333 -6.5 31c0 12 1.33301 21.667 4 29s7.66699 16.666 15 27.999v0c8.66699 13.333 16.5 27.333 23.5 42s14.5 34.667 22.5 60l51 228
c16.667 0 31 6 43 18s18 26.333 18 43c0 17.333 -6 31.833 -18 43.5s-26.333 17.5 -43 17.5s-31 -6 -43 -18s-18 -26.333 -18 -43c0 -9.33301 2.16699 -18.666 6.5 -27.999s10.166 -16.333 17.499 -21l-128 -212l-2 284c15.333 2.66699 28 9.66699 38 21s15 24.333 15 39
c0 17.333 -5.66699 31.833 -17 43.5s-26 17.5 -44 17.5c-17.333 0 -31.833 -6 -43.5 -18s-17.5 -26.333 -17.5 -43c0 -12 3.33301 -23.167 10 -33.5s15 -17.5 25 -21.5l-94 -274l-65 290c14 4 25.667 11.667 35 23s14 24.333 14 39c0 18 -6.16699 33.167 -18.5 45.5
s-27.5 18.5 -45.5 18.5c-17.333 0 -32.333 -6.16699 -45 -18.5s-19 -27.5 -19 -45.5c0 -15.333 4.5 -28.666 13.5 -39.999s20.833 -18.666 35.5 -21.999l-65 -290l-94 274c10 4 18.333 11.167 25 21.5s10 21.5 10 33.5c0 17.333 -5.83301 31.833 -17.5 43.5
s-26.167 17.5 -43.5 17.5c-16.667 0 -31 -6 -43 -18s-18 -26.333 -18 -43c0 -15.333 5.16699 -28.5 15.5 -39.5s22.833 -17.833 37.5 -20.5l-2 -284l-128 212c16 12 24 28.333 24 49c0 17.333 -5.83301 31.833 -17.5 43.5s-26.167 17.5 -43.5 17.5c-16.667 0 -31 -6 -43 -18
s-18 -26.333 -18 -43s6.16699 -31 18.5 -43s26.5 -18 42.5 -18l51 -228c10.667 -33.333 22 -60.666 34 -81.999c3.33301 -6 7.66602 -13 12.999 -21c6.66699 -10.667 11.334 -19.667 14.001 -27s4 -17 4 -29c0 -8.66699 -2 -19.167 -6 -31.5s-10 -27.5 -18 -45.5
c-6.66699 -16 -11.667 -28.833 -15 -38.5s-5 -18.5 -5 -26.5c0 -8.66699 9.16699 -17.167 27.5 -25.5s43.166 -15.5 74.499 -21.5c40 -7.33301 84.667 -12 134 -14c29.333 -1.33301 51.666 -2 66.999 -2c18.667 0 44 0.666992 76 2c29.333 2 62.333 5.33301 99 10
c40 6 71.333 13.5 94 22.5s34 18.5 34 28.5z" />
    <glyph glyph-name="murhorizontalhaut" unicode="E" 
d="M0 30v-30h1000v30h-1000z" />
    <glyph glyph-name="FN" unicode="F" horiz-adv-x="1000" 
d="M520 520h-40v60h-60v40h60v60h40v-60h60v-40h-60v-60zM711 593c0 41.333 -15.0039 79.667 -45.0039 115s-73.333 67 -130 95c16.667 12 25 27.667 25 47c0 16.667 -6 30.834 -18 42.501s-26.333 17.5 -43 17.5c-17.333 0 -31.833 -5.83301 -43.5 -17.5
s-17.5 -25.834 -17.5 -42.501c0 -8.66699 2.33301 -17.334 7 -26.001s10.667 -15.667 18 -21c-56.667 -28 -100 -59.667 -130 -95s-45 -73.666 -45 -114.999c0 -21.333 3 -43 9 -65c10 -36.667 28 -76 54 -118l-34 -109c0 -12 13.667 -21.667 41 -29s63.666 -13 108.999 -17
c-14.667 -12.667 -30.167 -21.5 -46.5 -26.5s-34.166 -7.5 -53.499 -7.5c-13.333 0 -33.666 1.66699 -60.999 5c-28.667 2.66699 -50.667 4 -66 4c-22.667 0 -44.167 -2.83301 -64.5 -8.5s-40.5 -15.834 -60.5 -30.501l32 -101c24 16.667 45 28.334 63 35.001s36 10 54 10
c12 0 30.667 -2 56 -6c22 -2.66699 40.5 -4.83398 55.5 -6.50098s33.167 -2.5 54.5 -2.5c22 2.66699 45 14 69 34c24 -20 47 -31.333 69 -34c21.333 0 40.333 0.833008 57 2.5s34.334 3.83398 53.001 6.50098c25.333 4 44 6 56 6c18 0 36 -3.33301 54 -10
s39 -18.334 63 -35.001l32 101c-19.333 14.667 -39.333 24.834 -60 30.501s-42.334 8.5 -65.001 8.5c-15.333 0 -37.333 -1.33301 -66 -4c-27.333 -3.33301 -47.666 -5 -60.999 -5c-19.333 0 -37.166 2.5 -53.499 7.5s-31.833 13.833 -46.5 26.5
c48.667 0 85.834 5.33301 111.501 16s38.5 20.667 38.5 30l-34 109c26 42 44 81.333 54 118c6 22 9 43.667 9 65zM499.996 333.001c-25.333 0 -51.334 -1.66699 -78.001 -5s-49.334 -8 -68.001 -14l9 40c18.667 4.66699 40 8.5 64 11.5s48.333 4.5 73 4.5
c22 0 45.667 -1.5 71 -4.5s47.333 -6.83301 66 -11.5l9 -40c-3.33301 1.33301 -5.33301 2 -6 2c-17.333 4.66699 -36.166 8.66699 -56.499 12s-48.166 5 -83.499 5zM499.995 402.001c-21.333 0 -42.999 -1.33301 -64.999 -4s-43.333 -6 -64 -10l10 40
c15.333 4 33.5 6.83301 54.5 8.5s42.5 2.5 64.5 2.5c18 0 38.333 -0.833008 61 -2.5s42 -4.5 58 -8.5l10 -40c-20 4.66699 -40.333 8.16699 -61 10.5s-43.334 3.5 -68.001 3.5z" />
    <glyph glyph-name="ZebreN" unicode="G" horiz-adv-x="1000" 
d="M366 300c-24 0 -40.501 7.66699 -49.501 23s-13.5 37.333 -13.5 66c22.667 0 38.834 -8.5 48.501 -25.5s14.5 -38.167 14.5 -63.5zM232.999 419c0.666992 -1.33301 1.33301 -4.66699 2 -10c1.33301 -11.333 3 -20.333 5 -27c4.66699 -14.667 11.667 -30.667 21 -48
c-13.333 14.667 -25.333 29.667 -36 45c-6 10 -10.167 18.667 -12.5 26s-3.83301 15.333 -4.5 24zM224.998 303.999c4.66699 -3.33301 9.99902 -7.66895 15.999 -13.002c3.33301 -3.33301 6.33301 -6 9 -8c10 -8 19 -14.333 27 -19c2 -0.666992 5.66699 -2 11 -4
c7.33301 -2 13.666 -4 18.999 -6c4.66699 -0.666992 10.667 -2.66699 18 -6l6 -3c4.66699 -2 10.334 -5.33301 17.001 -10c6.66699 -4 11.667 -6.66699 15 -8c8.66699 -3.33301 18.667 -7.66602 30 -12.999c10 -5.33301 17.667 -9 23 -11
c2 -0.666992 6.33301 -2.66699 13 -6c8 -4 15 -7.33301 21 -10c1.33301 -0.666992 5 -2.66699 11 -6c12 -5.33301 22.333 -11.333 31 -18l2 -2c11.333 -9.33301 21.166 -17 29.499 -23s16.5 -10 24.5 -12c2 0 5 -0.333008 9 -1c10.667 -1.33301 18.334 -2 23.001 -2
c14.667 0 28.667 2 42 6c15.333 6.66699 27.333 15.667 36 27c4.66699 6.66699 8 14.167 10 22.5s3 16.833 3 25.5v8c-0.666992 3.33301 -1 5.33301 -1 6l4 3c6.66699 4.66699 11 8 13 10c6 5.33301 9 13.333 9 24c-2 12.667 -7.33301 23.334 -16 32.001
c-9.33301 5.33301 -18.666 13.333 -27.999 24c-6.66699 5.33301 -14.667 12.666 -24 21.999l-14 19l-15 19l-15 26c-11.333 20 -18.666 34 -21.999 42c-3.33301 7.33301 -8 17 -14 29c-3.33301 9.33301 -6.33301 16.333 -9 21c22 0 42 -4.5 60 -13.5s38 -22.5 60 -40.5
l32 -25c32 -27.333 57.667 -46.333 77 -57c19.333 -10 39.833 -17.667 61.5 -23s45.167 -8 70.5 -8v555c-48.667 0 -88.5 -1 -119.5 -3s-63.167 -4.66699 -96.5 -8c-4.66699 0 -12 -0.666992 -22 -2c-25.333 -2 -52.666 -6 -81.999 -12s-57.666 -13.333 -84.999 -22
c-17.333 -4.66699 -35.5 -10.667 -54.5 -18s-36.167 -15.333 -51.5 -24c-30.667 -14 -59.334 -32.667 -86.001 -56c-22 -17.333 -40 -35 -54 -53c-10 -13.333 -19.667 -28.333 -29 -45c-2.66699 -4.66699 -4.33398 -8 -5.00098 -10c-7.33301 -14 -12.333 -25 -15 -33
c-8.66699 -22 -14 -40.667 -16 -56c-20.667 -12.667 -36.334 -22.834 -47.001 -30.501s-23 -18.5 -37 -32.5l11 -5l41.5 -18c13.667 -6 23.5 -9.66699 29.5 -11c0 -15.333 0.666992 -27.333 2 -36c-4.66699 -3.33301 -10.5 -8.66602 -17.5 -15.999
s-14.833 -16.166 -23.5 -26.499l-24 -29.5c-7.33301 -9.33301 -13.333 -18 -18 -26h124zM658.997 242.996l-14 -26.001c-14.667 8 -24.667 14.333 -30 19s-8 8.66699 -8 12c0 2 1 5 3 9l2 4c0.666992 0 1.66699 0.333008 3 1h4c6.66699 0 16 -4 28 -12
c5.33301 -3.33301 9.33301 -5.66602 12 -6.99902zM517.997 497.995l-7.99902 0.000976562h-8c-14.667 0 -25.834 2.66699 -33.501 8s-12.167 15.666 -13.5 30.999c25.333 0 42.5 -2.33301 51.5 -7s13.5 -10.667 13.5 -18c0 -2 -0.333008 -4.66699 -1 -8
c-0.666992 -2.66699 -1 -4.66699 -1 -6zM873.998 846.996l0.000976562 -51.001c-45.333 0 -86.333 -1.66699 -123 -5c-29.333 -0.666992 -60.166 -3.16699 -92.499 -7.5s-64.166 -9.83301 -95.499 -16.5c-44 -10 -84.833 -22.333 -122.5 -37s-69.834 -31.667 -96.501 -51
c-20.667 -16 -38.167 -31.833 -52.5 -47.5s-27.166 -32.167 -38.499 -49.5c-15.333 -20.667 -23 -36 -23 -46h-26c12 54 40.333 102.667 85 146c17.333 18 37.666 34 60.999 48s51.666 28.667 84.999 44c31.333 14.667 69 27.334 113 38.001
c53.333 12.667 107 21.667 161 27c32 2.66699 62.667 4.66699 92 6s53.666 2 72.999 2zM582.999 178.995c-21.333 0 -35.833 3.16699 -43.5 9.5s-11.5 17.166 -11.5 32.499c24.667 0 40 -3.16699 46 -9.5s9 -17.166 9 -32.499z" />
    <glyph glyph-name="RoseN" unicode="H" horiz-adv-x="1000" 
d="M634 700c24 0 40.501 -7.66699 49.501 -23s13.5 -37.333 13.5 -66c-22.667 0 -38.834 8.5 -48.501 25.5s-14.5 38.167 -14.5 63.5zM767.001 581c0 1.33301 -0.666992 4.66699 -2 10c-1.33301 11.333 -3 20.333 -5 27c-4.66699 14.667 -11.667 30.667 -21 48
c13.333 -14.667 25.333 -29.667 36 -45c6.66699 -10 11 -18.667 13 -26s3.33301 -15.333 4 -24zM775.001 696.001c-4.66699 3.33301 -9.99902 7.66797 -15.999 13.001c-3.33301 3.33301 -6.33301 6 -9 8c-10 8.66699 -19 15 -27 19c-2 1.33301 -5.66699 2.66602 -11 3.99902
c-7.33301 2 -13.666 4 -18.999 6c-4.66699 0.666992 -10.667 2.66699 -18 6l-6 3c-4.66699 2 -10.334 5.33301 -17.001 10c-6.66699 4 -11.667 6.66699 -15 8c-8.66699 3.33301 -18.334 7.66602 -29.001 12.999s-18.667 9 -24 11c-2 0.666992 -6.33301 2.66699 -13 6
c-8 4.66699 -15 8 -21 10c-1.33301 0.666992 -5 2.66699 -11 6c-12 5.33301 -22.333 11.333 -31 18l-2 2c-11.333 9.33301 -21.166 17 -29.499 23s-16.5 10 -24.5 12c-2 0 -5 0.333008 -9 1c-10.667 1.33301 -18.334 2 -23.001 2c-14.667 0 -28.667 -2 -42 -6
c-15.333 -6.66699 -27.333 -15.667 -36 -27c-4.66699 -6.66699 -8 -14.167 -10 -22.5s-3 -16.833 -3 -25.5c0 -2.66699 0.333008 -5.33398 1 -8.00098v-6l-3 -2c-7.33301 -5.33301 -12 -9 -14 -11c-6 -5.33301 -9 -13.333 -9 -24c2 -12.667 7.33301 -23.334 16 -32.001
c9.33301 -5.33301 18.666 -13.333 27.999 -24c6.66699 -5.33301 14.667 -12.666 24 -21.999l15 -19l14 -19l15 -26c11.333 -20 18.666 -34 21.999 -42c3.33301 -7.33301 8 -17 14 -29c3.33301 -9.33301 6.33301 -16.333 9 -21c-22 0 -42 4.5 -60 13.5s-38 22.5 -60 40.5
c-8.66699 6.66699 -19.334 15.334 -32.001 26.001c-32 26.667 -57.667 45.334 -77 56.001c-19.333 10 -39.833 17.667 -61.5 23s-45.167 8 -70.5 8v-555c48.667 0 88.5 1 119.5 3s63.167 4.66699 96.5 8c4.66699 0.666992 12 1.33398 22 2.00098c26 2 53.5 6 82.5 12
s57.167 13.333 84.5 22c17.333 4.66699 35.5 10.667 54.5 18s36.167 15.333 51.5 24c30.667 14 59.334 32.667 86.001 56c22 17.333 40 35 54 53c10 13.333 19.667 28.333 29 45c2.66699 4.66699 4.33398 8 5.00098 10c7.33301 14 12.333 25 15 33
c8.66699 22 14 40.667 16 56c20.667 12.667 36.334 22.834 47.001 30.501s23 18.5 37 32.5l-10 5l-42.5 18c-13.667 6 -23.5 9.66699 -29.5 11c0 15.333 -0.666992 27.333 -2 36c4.66699 3.33301 10.5 8.66602 17.5 15.999s14.833 16.166 23.5 26.499l24 29.5
c7.33301 9.33301 13.333 18 18 26h-124zM341.002 757.003l14 26.001c14.667 -8 24.667 -14.167 30 -18.5s8 -8.5 8 -12.5c0 -2 -1 -5 -3 -9l-2 -4c-0.666992 0 -1.66699 -0.333008 -3 -1h-4c-6.66699 0 -16 4 -28 12c-5.33301 3.33301 -9.33301 5.66602 -12 6.99902z
M482.002 502.004h7.99902c3.33301 0.666992 6 1 8 1c14.667 0 25.834 -2.83301 33.501 -8.5s12.167 -16.167 13.5 -31.5c-25.333 0 -42.5 2.33301 -51.5 7s-13.5 10.667 -13.5 18c0 2 0.333008 4.66699 1 8c0.666992 2.66699 1 4.66699 1 6zM126.001 153.004
l-0.000976562 51c45.333 0 86.333 1.66699 123 5c29.333 0.666992 60.166 3.16699 92.499 7.5s64.166 9.83301 95.499 16.5c44 10 84.833 22.333 122.5 37s69.834 31.667 96.501 51c20.667 16 38.167 31.833 52.5 47.5s27.166 32.167 38.499 49.5c15.333 20.667 23 36 23 46
h26c-12 -54 -40.333 -102.667 -85 -146c-17.333 -18 -37.666 -34 -60.999 -48s-51.666 -28.667 -84.999 -44c-31.333 -14 -69 -26.667 -113 -38c-53.333 -12.667 -107 -21.667 -161 -27c-32 -2.66699 -62.667 -4.66699 -92 -6s-53.666 -2 -72.999 -2zM417 821.004
c21.333 0 35.833 -3.16699 43.5 -9.5s11.5 -17.166 11.5 -32.499c-24 0 -39.167 3.16699 -45.5 9.5s-9.5 17.166 -9.5 32.499z" />
    <glyph glyph-name="ImiN" unicode="I" horiz-adv-x="1000" 
d="M500 110c11.333 0 25.001 0.662109 41.001 1.99512c22.667 2 42.334 5.33301 59.001 10c24.667 6.66699 47 14.667 67 24c15.333 7.33301 29.666 15 42.999 23c18 12 35 25 51 39c16 14.667 29 28.334 39 41.001c16 20.667 29.667 40.667 41 60
c9.33301 17.333 17 34 23 50c9.33301 24 15.666 46.333 18.999 67c4.66699 22.667 7 47.334 7 74.001c0 51.333 -8.33301 98.666 -25 141.999c-7.33301 20.667 -17.666 42 -30.999 64c-10 16 -21 31 -33 45c-20 24.667 -41.333 45.334 -64 62.001c-18 14 -40 27 -66 39
c-31.333 14.667 -61.666 24.667 -90.999 30c-28 5.33301 -54.667 8 -80 8c-46 0 -89 -7.33301 -129 -22c-21.333 -7.33301 -42.666 -17.333 -63.999 -30c-14.667 -8 -31.334 -19.667 -50.001 -35c-21.333 -16.667 -40 -34.667 -56 -54
c-10.667 -12.667 -20.334 -25.334 -29.001 -38.001c-10.667 -15.333 -21.334 -35.666 -32.001 -60.999c-8.66699 -21.333 -15.334 -42.666 -20.001 -63.999c-6.66699 -31.333 -10 -60 -10 -86c0 -24.667 2.66699 -51 8 -79c0.666992 -1.33301 1.66699 -5 3 -11
c2 -6.66699 3 -10.667 3 -12c5.33301 -18 11.333 -34.667 18 -50c0.666992 -1.33301 2 -3.66602 4 -6.99902c1.33301 -3.33301 2.33301 -5.66602 3 -6.99902c15.333 -32 34 -60.333 56 -85c34.667 -38.667 72.334 -69 113.001 -91c28 -14.667 55 -25.667 81 -33
c25.333 -7.33301 50 -12 74 -14c7.33301 -0.666992 16.333 -1 27 -1z" />
    <glyph glyph-name="BerolinaN" unicode="J" horiz-adv-x="1000" 
d="M200 890c0.666992 -44.667 5.5 -87.167 14.5 -127.5s21.5 -75.5 37.5 -105.5c15.333 -30 33.5 -53.833 54.5 -71.5s43.5 -27.834 67.5 -30.501c-14 -4.66699 -26.333 -17.334 -37 -38.001c-5.33301 -10 -9.83301 -21 -13.5 -33s-5.5 -22.667 -5.5 -32
c0 -26.667 5 -51.667 15 -75c7.33301 -16 18 -31.667 32 -47c16 -17.333 33 -30.666 51 -39.999c-5.33301 -5.33301 -11 -14 -17 -26c-6.66699 -17.333 -10 -32 -10 -44c0 -17.333 4.33301 -33.666 13 -48.999c7.33301 -16 20 -30.333 38 -43c20 -12 40 -18 60 -18
c20.667 0 40.667 6 60 18c18 12.667 30.667 27 38 43c8.66699 15.333 13 31.666 13 48.999c0 12 -3.33301 26.667 -10 44c-6 12 -11.667 20.667 -17 26c18 9.33301 35 22.666 51 39.999c14 15.333 24.667 31 32 47c10 23.333 15 48.333 15 75c0 9.33301 -1.83301 20 -5.5 32
s-8.16699 23 -13.5 33c-10.667 20.667 -23 33.334 -37 38.001c24 2.66699 46.5 12.834 67.5 30.501s39.167 41.5 54.5 71.5c16 30 28.5 65.167 37.5 105.5s13.833 82.833 14.5 127.5h-600z" />
    <glyph glyph-name="RoiImmobileN" unicode="K" horiz-adv-x="1000" 
d="M480 213v-53.001h-40v-40h40v-40h40v40h40v40h-40v53c21.333 5.33301 40 21.333 56 48s24 59 24 97c44 -32.667 91.667 -49 143 -49c44.667 0 82 12.333 112 37s45 57.334 45 98.001c0 32.667 -10.833 68.167 -32.5 106.5s-55.5 78.5 -101.5 120.5l1 167
c0 10 -7 19.333 -21 28s-33.333 16.334 -58 23.001s-53.167 11.834 -85.5 15.501s-66.166 5.5 -101.499 5.5c-36 0 -70.167 -1.83301 -102.5 -5.5s-60.833 -8.83398 -85.5 -15.501s-43.834 -14.334 -57.501 -23.001s-20.5 -18 -20.5 -28l-1 -167
c-46 -42 -79.833 -82 -101.5 -120s-32.5 -73 -32.5 -105c0 -40.667 15 -73.5 45 -98.5s67.333 -37.833 112 -38.5c24 0 48.333 4 73 12s48 20.333 70 37c0 -38 8 -70.333 24 -97s34.667 -42.667 56 -48zM500 449.999c-2 -13.333 -5.5 -24.667 -10.5 -34
s-11.833 -19.333 -20.5 -30c-10.667 -13.333 -16 -23.666 -16 -30.999c0 -24.667 5.16699 -46.167 15.5 -64.5s20.833 -27.5 31.5 -27.5s21.167 9.16699 31.5 27.5s15.5 39.833 15.5 64.5c0 7.33301 -5.33301 17.666 -16 30.999c-8.66699 11.333 -15.5 21.5 -20.5 30.5
s-8.5 20.167 -10.5 33.5zM484 604.998c0 -45.333 -6.49805 -85.3311 -19.498 -119.998s-30.333 -63.167 -52 -85.5s-45.5 -39 -71.5 -50s-52.333 -16.5 -79 -16.5c-38 0 -70 10.5 -96 31.5s-39 48.833 -39 83.5c0 28 9.83301 59.167 29.5 93.5s50.5 70.5 92.5 108.5
c5.33301 4.66699 8.66602 9 9.99902 13s2 8.66699 2 14c14 -13.333 43.167 -24.5 87.5 -33.5s94.833 -13.5 151.5 -13.5s107.167 4.5 151.5 13.5s73.5 20.167 87.5 33.5c0 -6 0.666992 -10.833 2 -14.5s4.66602 -7.83398 9.99902 -12.501
c42 -38.667 72.833 -75.167 92.5 -109.5s29.5 -65.5 29.5 -93.5c0 -34.667 -13 -62.334 -39 -83.001s-58 -31 -96 -31c-26 0 -52.167 5.5 -78.5 16.5s-50.333 27.667 -72 50s-39 50.833 -52 85.5s-19.5 74.667 -19.5 120h-32zM461.002 605
c-41.333 1.33301 -77.499 4.99805 -108.499 10.998s-56.833 13 -77.5 21c-40 -37.333 -69.333 -71.666 -88 -102.999s-28 -59.333 -28 -84c0 -27.333 9.66699 -48.666 29 -63.999s43.666 -23 72.999 -23c22.667 0 45.667 5 69 15s44.833 25 64.5 45s35.5 45.333 47.5 76
s18.333 66 19 106zM539.003 604.998c0.666992 -40 7.00098 -75.334 19.001 -106.001s27.833 -56 47.5 -76s41.167 -35 64.5 -45s46.333 -15 69 -15c29.333 0 53.666 7.66699 72.999 23s29 36.333 29 63c0 24.667 -9.33301 52.834 -28 84.501s-48 66.167 -88 103.5
c-20.667 -8 -46.5 -15 -77.5 -21s-67.167 -9.66699 -108.5 -11zM261.004 772.997c14 -13.333 43.167 -24.5 87.5 -33.5s94.833 -13.5 151.5 -13.5s107.167 4.5 151.5 13.5s73.5 20.167 87.5 33.5v-35c-14 -13.333 -43.167 -24.5 -87.5 -33.5s-94.833 -13.5 -151.5 -13.5
s-107.167 4.5 -151.5 13.5s-73.5 20.167 -87.5 33.5v35zM261.004 837.997c14 -13.333 43.167 -24.5 87.5 -33.5s94.833 -13.5 151.5 -13.5s107.167 4.5 151.5 13.5s73.5 20.167 87.5 33.5v-35c-14 -13.333 -43.167 -24.5 -87.5 -33.5s-94.833 -13.5 -151.5 -13.5
s-107.167 4.5 -151.5 13.5s-73.5 20.167 -87.5 33.5v35zM425.004 375.997c16.667 15.333 31.168 34.333 43.501 57s22.833 50 31.5 82c8 -32 18.5 -59.5 31.5 -82.5s27.5 -41.833 43.5 -56.5c0 -43.333 -7.5 -77.166 -22.5 -101.499s-32.5 -36.5 -52.5 -36.5
c-20.667 0 -38.334 12.167 -53.001 36.5s-22 58.166 -22 101.499z" />
    <glyph glyph-name="VaoN" unicode="L" horiz-adv-x="1000" 
d="M420 420h-40v60h-60v40h60v60h40v-60h60v-40h-60v-60zM407 711c-41.333 0 -79.667 -15.0029 -115 -45.0029s-67 -73.333 -95 -130c-12 16.667 -27.667 25 -47 25c-16.667 0 -30.834 -6 -42.501 -18s-17.5 -26.333 -17.5 -43c0 -17.333 5.83301 -31.833 17.5 -43.5
s25.834 -17.5 42.501 -17.5c9.33301 0 18.333 2.33301 27 7s15.334 10.667 20.001 18c28 -56.667 59.667 -100 95 -130s73.666 -45 114.999 -45c21.333 0 43 3 65 9c36.667 10 76 28 118 54l109 -34c12 0 21.667 13.667 29 41s13 63.666 17 108.999
c12.667 -14.667 21.5 -30 26.5 -46s7.5 -34 7.5 -54c0 -13.333 -1.33301 -33.666 -4 -60.999c-3.33301 -28.667 -5 -50.667 -5 -66c0 -22.667 2.83301 -44.167 8.5 -64.5s15.834 -40.5 30.501 -60.5l101 32c-16.667 24 -28.334 45 -35.001 63s-10 36 -10 54
c0 12 2 30.667 6 56c2.66699 22 4.83398 40.5 6.50098 55.5s2.5 33.167 2.5 54.5c-2.66699 22 -14 45 -34 69c20 24 31.333 47 34 69c0 21.333 -0.833008 40.333 -2.5 57s-3.83398 34.334 -6.50098 53.001c-4 25.333 -6 44 -6 56c0 18 3.33301 36 10 54s18.334 39 35.001 63
l-101 32c-14.667 -19.333 -24.834 -39.333 -30.501 -60s-8.5 -42.334 -8.5 -65.001c0 -15.333 1.66699 -37.333 5 -66c2.66699 -27.333 4 -47.666 4 -60.999c0 -19.333 -2.5 -37.166 -7.5 -53.499s-13.833 -31.833 -26.5 -46.5c0 48.667 -5.33301 85.834 -16 111.501
s-20.667 38.5 -30 38.5l-109 -34c-42 26 -81.333 44 -118 54c-22 6 -43.667 9 -65 9zM666.999 499.997c0 -25.333 1.66797 -51.334 5.00098 -78.001s8 -49.334 14 -68.001l-40 9c-4.66699 18.667 -8.5 40 -11.5 64s-4.5 48.333 -4.5 73c0 22 1.5 45.667 4.5 71
s6.83301 47.333 11.5 66l40 9c-0.666992 -3.33301 -1.33398 -5.33301 -2.00098 -6c-4.66699 -17.333 -8.66699 -36.166 -12 -56.499s-5 -48.166 -5 -83.499zM598 499.996c0 -21.333 1.33301 -42.999 4 -64.999s6 -43.333 10 -64l-40 10c-4 15.333 -6.83301 33.5 -8.5 54.5
s-2.5 42.5 -2.5 64.5c0 18 0.833008 38.333 2.5 61s4.5 42 8.5 58l40 10c-4 -20 -7.33301 -40.333 -10 -61s-4 -43.334 -4 -68.001z" />
    <glyph glyph-name="FersN" unicode="M" horiz-adv-x="1000" 
d="M620 420h-40v60h-60v40h60v60h40v-60h60v-40h-60v-60zM402 500c0 24.667 -1.16699 47.333 -3.5 68s-5.83301 41 -10.5 61l40 -10c4 -16 6.83301 -35.333 8.5 -58s2.5 -43 2.5 -61c0 -22 -0.833008 -43.5 -2.5 -64.5s-4.5 -39.167 -8.5 -54.5l-40 -10
c4 20.667 7.33301 42 10 64s4 43.667 4 65zM333 499.999c0 35.333 -1.66699 63.499 -5 84.499s-7.33301 39.5 -12 55.5c0 0.666992 -0.666992 2.66699 -2 6l40 -9c4.66699 -18.667 8.5 -40.667 11.5 -66s4.5 -49 4.5 -71c0 -24.667 -1.5 -49 -4.5 -73
s-6.83301 -45.333 -11.5 -64l-40 -9c6 18.667 10.667 41.334 14 68.001s5 52.667 5 78zM593 710.998c-21.333 0 -43.001 -2.99805 -65.001 -8.99805c-36.667 -10 -76 -28 -118 -54l-109 34c-9.33301 0 -19.333 -12.833 -30 -38.5s-16 -62.834 -16 -111.501
c-12.667 14.667 -21.5 30.167 -26.5 46.5s-7.5 34.166 -7.5 53.499c0 13.333 1.66699 33.666 5 60.999c2.66699 28.667 4 50.667 4 66c0 22.667 -2.83301 44.334 -8.5 65.001s-15.834 40.667 -30.501 60l-101 -32c16.667 -24 28.334 -45 35.001 -63s10 -36 10 -54
c0 -12 -2 -30.667 -6 -56c-2.66699 -21.333 -4.83398 -39.666 -6.50098 -54.999s-2.5 -33.666 -2.5 -54.999c2.66699 -22 14 -45 34 -69c-20 -24 -31.333 -47 -34 -69c0 -21.333 0.833008 -40.333 2.5 -57s3.83398 -34.334 6.50098 -53.001c4 -25.333 6 -44 6 -56
c0 -18 -3.33301 -36 -10 -54s-18.334 -39 -35.001 -63l101 -32c14.667 20 24.834 40.167 30.501 60.5s8.5 41.833 8.5 64.5c0 15.333 -1.33301 37.333 -4 66c-3.33301 27.333 -5 47.666 -5 60.999c0 19.333 2.5 37.166 7.5 53.499s13.833 31.833 26.5 46.5
c4 -45.333 9.66699 -81.666 17 -108.999s17 -41 29 -41l109 34c42 -26 81.333 -44 118 -54c22 -6 43.667 -9 65 -9c41.333 0 79.666 15 114.999 45s67 73.333 95 130c5.33301 -7.33301 12.333 -13.333 21 -18s17.334 -7 26.001 -7c16.667 0 30.834 5.83301 42.501 17.5
s17.5 26.167 17.5 43.5c0 16.667 -5.83301 31 -17.5 43s-25.834 18 -42.501 18c-19.333 0 -35 -8.33301 -47 -25c-28 56.667 -59.667 100 -95 130s-73.666 45 -114.999 45z" />
    <glyph glyph-name="NN" unicode="N" horiz-adv-x="1000" 
d="M697 367c0 -24 -7.66699 -40.667 -23 -50s-37.333 -14 -66 -14c0 23.333 8.83301 39.833 26.5 49.5s38.5 14.5 62.5 14.5zM578 233c1.33301 0.666992 4.66699 1.33301 10 2c11.333 1.33301 20.333 3 27 5c14.667 4.66699 30.667 11.667 48 21
c-14.667 -13.333 -29.667 -25.333 -45 -36c-10 -6 -18.667 -10.167 -26 -12.5s-15.333 -3.83301 -24 -4.5zM693.001 225.999c3.33301 4.66699 7.66699 10.001 13 16.001c3.33301 3.33301 6 6.33301 8 9c8.66699 10 15 19 19 27c1.33301 2 2.66602 5.66699 3.99902 11
c2 7.33301 4 13.666 6 18.999c0.666992 4.66699 2.66699 10.667 6 18l3 6c2 4.66699 5.33301 10.334 10 17.001c4 6.66699 6.66699 11.667 8 15c3.33301 8.66699 7.66602 18.667 12.999 30c5.33301 10 9 17.667 11 23c0.666992 2 2.66699 6.33301 6 13c4.66699 8 8 15 10 21
c0.666992 1.33301 2.66699 5 6 11c5.33301 12 11.333 22.333 18 31l2 2c9.33301 11.333 17 21.166 23 29.499s10 16.5 12 24.5c0 2 0.333008 5 1 9c1.33301 10.667 2 18.334 2 23.001c0 14.667 -2 28.667 -6 42c-6.66699 15.333 -15.667 27.333 -27 36
c-6.66699 4.66699 -14.167 8 -22.5 10s-16.833 3 -25.5 3h-8c-3.33301 -0.666992 -5.33301 -1 -6 -1l-2 4c-5.33301 6.66699 -9 11 -11 13c-6 6 -14.333 9 -25 9c-12 -2 -22.333 -7.33301 -31 -16c-4.66699 -8 -12.667 -17.667 -24 -29
c-5.33301 -6.66699 -12.666 -14.667 -21.999 -24l-19 -14l-19 -15l-26 -15c-20 -11.333 -34 -18.666 -42 -21.999c-7.33301 -3.33301 -17 -8 -29 -14c-9.33301 -3.33301 -16.333 -6.33301 -21 -9c0 22 4.5 42 13.5 60s22.5 38 40.5 60l24 30c26.667 32.667 45.667 59 57 79
c10 19.333 17.667 39.833 23 61.5s8 45.167 8 70.5h-555c0 -52 1 -94 3 -126s5.33301 -65.333 10 -100c0.666992 -5.33301 1 -9.33301 1 -12c2 -25.333 6 -52.666 12 -81.999s13.333 -57.666 22 -84.999c4.66699 -17.333 10.667 -35.5 18 -54.5s15.333 -36.167 24 -51.5
c14 -30.667 32.667 -59.334 56 -86.001c17.333 -22 35 -40 53 -54c13.333 -10 28.333 -19.667 45 -29c4.66699 -2.66699 8 -4.33398 10 -5.00098c14 -7.33301 25 -12.333 33 -15c22 -8.66699 40.667 -14 56 -16c12.667 -20.667 22.834 -36.334 30.501 -47.001
s18.5 -23 32.5 -37l5 11l18 41.5c6 13.667 9.66699 23.5 11 29.5c15.333 0 27.333 0.666992 36 2c3.33301 -4 8.83301 -9.66699 16.5 -17s16.167 -15 25.5 -23s19 -15.833 29 -23.5s19 -13.834 27 -18.501v124zM754.002 660l26.001 -14
c-8 -14.667 -14.167 -24.667 -18.5 -30s-8.5 -8 -12.5 -8c-2 0 -5 1 -9 3l-4 2c0 0.666992 -0.333008 1.66699 -1 3v4c0 6.66699 4 16 12 28c3.33301 5.33301 5.66602 9.33301 6.99902 12zM499.003 518v-7.99902c0.666992 -3.33301 1 -6 1 -8
c0 -14.667 -2.83301 -25.834 -8.5 -33.501s-16.167 -12.167 -31.5 -13.5c0 25.333 2.33301 42.5 7 51.5s10.667 13.5 18 13.5c2 0 4.66699 -0.333008 8 -1c2.66699 -0.666992 4.66699 -1 6 -1zM149.003 874.001l51.001 0.00292969c0 -45.333 1.66699 -86.333 5 -123
c3.33301 -61.333 11.666 -124 24.999 -188c10 -44 22.333 -84.833 37 -122.5s31.667 -69.834 51 -96.501c16 -20.667 31.833 -38.167 47.5 -52.5s32.167 -27.166 49.5 -38.499c20.667 -15.333 36 -23 46 -23v-26c-54 12 -102.667 40.333 -146 85
c-18 17.333 -34 37.666 -48 60.999s-28.667 51.666 -44 84.999c-14 31.333 -26.667 69 -38 113c-12 50 -21.333 103.667 -28 161c-2.66699 32 -4.66699 62.667 -6 92s-2 53.666 -2 72.999zM818.004 584.004c0 -21.333 -3.16699 -35.833 -9.5 -43.5
s-17.166 -11.5 -32.499 -11.5c0 24.667 3.16699 40 9.5 46s17.166 9 32.499 9z" />
    <glyph glyph-name="TourSautN" unicode="O" horiz-adv-x="1000" 
d="M260 830h259h221v-30h-221h-259v30zM270 740h249h211v-30h-211h-249v30zM320 680h199h161v-30h-161h-199v30zM320 345h200h160v-30h-160h-200v30zM245 265h275h235v-30h-235h-275v30zM200 110h135v80h90v-80h95h55v80h90v-80h135v150l-90 70v229v111l60 40v25v65h60v25
v65h-311h-349v-65v-25h60v-65v-25l60 -40v-111v-229l-90 -70v-150z" />
    <glyph glyph-name="PN" unicode="P" horiz-adv-x="1000" 
d="M800 110c-0.666992 44.667 -5.5 87.167 -14.5 127.5s-21.5 75.5 -37.5 105.5c-15.333 30 -33.5 53.833 -54.5 71.5s-43.5 27.834 -67.5 30.501c14 5.33301 26.333 18 37 38c5.33301 10 9.83301 21 13.5 33s5.5 22.667 5.5 32c0 27.333 -5 52.333 -15 75
c-7.33301 16 -18 31.667 -32 47c-16 17.333 -33 30.666 -51 39.999c5.33301 5.33301 11 14 17 26c6.66699 17.333 10 32 10 44c0 17.333 -4.33301 33.666 -13 48.999c-7.33301 16 -20 30.333 -38 43c-19.333 12 -39.333 18 -60 18c-20 0 -40 -6 -60 -18
c-18 -12.667 -30.667 -27 -38 -43c-8.66699 -15.333 -13 -31.666 -13 -48.999c0 -12 3.33301 -26.667 10 -44c6 -12 11.667 -20.667 17 -26c-18 -9.33301 -35 -22.666 -51 -39.999c-14 -15.333 -24.667 -31 -32 -47c-10 -22.667 -15 -47.667 -15 -75
c0 -9.33301 1.83301 -20 5.5 -32s8.16699 -23 13.5 -33c10.667 -20 23 -32.667 37 -38c-24 -2.66699 -46.5 -12.834 -67.5 -30.501s-39.167 -41.5 -54.5 -71.5c-16 -30 -28.5 -65.167 -37.5 -105.5s-13.833 -82.833 -14.5 -127.5h600z" />
    <glyph glyph-name="Zèbren" unicode="Q" horiz-adv-x="1000" 
d="M366 300c-24 0 -40.501 7.66699 -49.501 23s-13.5 37.333 -13.5 66c22.667 0 38.834 -8.5 48.501 -25.5s14.5 -38.167 14.5 -63.5zM583.999 182c-20 0 -32.5 2.83301 -37.5 8.5s-7.5 15.167 -7.5 28.5c20 0 32.5 -2.5 37.5 -7.5s7.5 -14.833 7.5 -29.5zM657.999 242
l-12 -22.002c-9.33301 7.33301 -16.833 14.333 -22.5 21s-9.16699 14.334 -10.5 23.001c8.66699 -1.33301 15.5 -3.16602 20.5 -5.49902s10.833 -5.83301 17.5 -10.5c2.66699 -2.66699 5 -4.66699 7 -6zM869.999 499.998l-252.999 -0.000976562
c-30 16.667 -60.667 25 -92 25c-16 2 -27.333 4 -34 6s-16 6.33301 -28 13l-13 -26c10 -6.66699 18.667 -11 26 -13s16.666 -3.66699 27.999 -5h-337c14.667 6.66699 26.167 11.667 34.5 15s18.5 6 30.5 8v22h-18c8 36 22.333 68.667 43 98c17.333 24.667 39 47 65 67
c22.667 16.667 41.667 28.667 57 36c30.667 16.667 66 31 106 43c46.667 14 94 24 142 30c36 4.66699 78.333 8.33398 127 11.001c40 0.666992 78.667 1 116 1v-331zM233 421.997c0.666992 -1.33301 1.33203 -4.66699 1.99902 -10c1.33301 -11.333 3 -20.333 5 -27
c4.66699 -14.667 11.667 -30.667 21 -48c-13.333 14.667 -25.333 29.667 -36 45c-6 10 -10.167 18.5 -12.5 25.5s-4.16602 15.167 -5.49902 24.5zM224.998 306.996c4.66699 -3.33301 9.99707 -7.66602 15.9971 -12.999c3.33301 -3.33301 6.33301 -6 9 -8
c10 -8 19.333 -14 28 -18c2.66699 -1.33301 7.66699 -3.66602 15 -6.99902l21 -9.5l25.5 -11l24.5 -10.5c6 -2 13 -5.33301 21 -10l5 -2c6 -2 13.333 -5.33301 22 -10l22 -10c3.33301 -1.33301 8.33301 -4 15 -8c7.33301 -4 13 -7 17 -9c8 -3.33301 16.667 -8.33301 26 -15
c2 -2 4.33301 -4 7 -6s5 -4 7 -6c6.66699 -6.66699 16 -13.334 28 -20.001c6 -2.66699 16.333 -5.33398 31 -8.00098h7c3.33301 -0.666992 5.66602 -1 6.99902 -1c6.66699 0 14.334 0.666992 23.001 2c16 2 28.667 6.66699 38 14c7.33301 5.33301 13.333 11.333 18 18
c6.66699 10 11.334 23.333 14.001 40c0 5.33301 -0.333008 11 -1 17v5c8 4.66699 13.667 8.66699 17 12c6 6 9 14.333 9 25c-1.33301 7.33301 -3 12.666 -5 15.999c-2.66699 5.33301 -6.66699 10.333 -12 15c-2.66699 2 -5.66699 4.66699 -9 8
c-3.33301 2.66699 -5.33301 4.33398 -6 5.00098l-27 24c-5.33301 5.33301 -12 12.666 -20 21.999l-2 2c-0.666992 1.33301 -3.33398 5.33301 -8.00098 12s-7.66699 10.667 -9 12c-2 4 -5 9.66699 -9 17c-4.66699 6.66699 -8 12 -10 16l-10 18c-4 6.66699 -6.66699 12 -8 16
c-1.33301 4.66699 -4 10.667 -8 18c-1.33301 2.66699 -2.33301 4.33398 -3 5.00098c-2 6.66699 -6 16 -12 28c18 0 35.167 -3.33301 51.5 -10s32.833 -16.334 49.5 -29.001c8.66699 -6 21.667 -16.333 39 -31c30 -25.333 53.667 -43.333 71 -54
c22 -13.333 45.167 -23.833 69.5 -31.5s51.166 -11.5 80.499 -11.5v556c-38.667 0 -66.667 -0.666992 -84 -2c-32 -1.33301 -56 -2.66602 -72 -3.99902c-14.667 -0.666992 -32.667 -2.33398 -54 -5.00098l-27 -3c-20.667 -1.33301 -46.334 -5.66602 -77.001 -12.999
c-34 -6 -64 -13 -90 -21c-21.333 -5.33301 -41.666 -12.333 -60.999 -21c-15.333 -6 -30.666 -13 -45.999 -21c-11.333 -5.33301 -23.333 -12 -36 -20c-26 -14.667 -51.333 -34.334 -76 -59.001c-20 -20 -32.667 -35 -38 -45c-8.66699 -11.333 -18 -27.333 -28 -48
c-6 -11.333 -11.167 -23.666 -15.5 -36.999s-8.16602 -27.666 -11.499 -42.999c-6.66699 -3.33301 -14 -7.33301 -22 -12c-0.666992 -0.666992 -2 -1.33398 -4 -2.00098c-3.33301 -2 -7.66602 -5 -12.999 -9c-10 -6.66699 -18.667 -13.667 -26 -21
c-2.66699 -2 -6.66699 -6 -12 -12c-2.66699 -3.33301 -5 -6 -7 -8c7.33301 -4 17.333 -8.33301 30 -13c2.66699 -1.33301 6.66699 -3 12 -5c2.66699 -0.666992 8 -2.66699 16 -6c7.33301 -3.33301 15.333 -6.33301 24 -9c0 -15.333 0.666992 -27.333 2 -36
c-2.66699 -2 -6 -5 -10 -9l-10 -10c-3.33301 -4 -6.66602 -7.66699 -9.99902 -11c-10 -10 -19 -21 -27 -33c-5.33301 -6.66699 -9.33301 -12 -12 -16l-2 -3c-6.66699 -10 -11 -17.333 -13 -22l30 1l22 1l30 1l18 1z" />
    <glyph glyph-name="RN" unicode="R" horiz-adv-x="1000" 
d="M480 787c-21.333 -5.33301 -40 -21.333 -56 -48s-24 -59 -24 -97c-44 32.667 -91.667 49 -143 49c-44 0 -81.167 -12.5 -111.5 -37.5s-45.5 -57.833 -45.5 -98.5c0 -32 10.833 -67.167 32.5 -105.5s55.5 -78.5 101.5 -120.5v-167c0 -10 7 -19.333 21 -28
s33.333 -16.334 58 -23.001s53.167 -11.834 85.5 -15.501s66.166 -5.5 101.499 -5.5c36 0 70.167 1.83301 102.5 5.5s60.833 8.83398 85.5 15.501s43.834 14.334 57.501 23.001s20.5 18 20.5 28v167c46 42 79.833 82.167 101.5 120.5s32.5 73.5 32.5 105.5
c0 40.667 -15 73.5 -45 98.5s-67.333 37.5 -112 37.5c-24 0 -48.333 -4 -73 -12s-48 -20.333 -70 -37c0 38 -8 70.333 -24 97s-34.667 42.667 -56 48v53h40v40h-40v40h-40v-40h-40v-40h40v-53zM500 550c2 13.333 5.5 24.666 10.5 33.999s11.833 19.333 20.5 30
c10.667 13.333 16 23.666 16 30.999c0 24.667 -5.16699 46.167 -15.5 64.5s-20.833 27.5 -31.5 27.5s-21.167 -9.16699 -31.5 -27.5s-15.5 -39.833 -15.5 -64.5c0 -7.33301 5.33301 -17.666 16 -30.999c8.66699 -10.667 15.5 -20.667 20.5 -30s8.5 -20.666 10.5 -33.999z
M516 395c0 45.333 6.49805 85.499 19.498 120.499s30.333 63.5 52 85.5s45.667 38.5 72 49.5s52.5 16.5 78.5 16.5c38 0 70 -10.333 96 -31s39 -48.334 39 -83.001c0 -28 -9.83301 -59.167 -29.5 -93.5s-50.5 -70.833 -92.5 -109.5
c-5.33301 -4.66699 -8.66602 -9 -9.99902 -13s-2 -8.66699 -2 -14c-14 13.333 -43.167 24.5 -87.5 33.5s-94.833 13.5 -151.5 13.5s-107.167 -4.5 -151.5 -13.5s-73.5 -20.167 -87.5 -33.5c0 6 -0.666992 10.833 -2 14.5s-4.66602 7.83398 -9.99902 12.501
c-42 38.667 -72.833 75.167 -92.5 109.5s-29.5 65.5 -29.5 93.5c0 34.667 13 62.334 39 83.001s58 31 96 31c26.667 0 53 -5.5 79 -16.5s49.833 -27.5 71.5 -49.5s39 -50.5 52 -85.5s19.5 -75.167 19.5 -120.5h32zM538.998 394.999
c41.333 -1.33301 77.499 -5.00098 108.499 -11.001s56.833 -13 77.5 -21c40 37.333 69.333 71.833 88 103.5s28 59.834 28 84.501c0 27.333 -9.66699 48.5 -29 63.5s-43.666 22.5 -72.999 22.5c-22.667 0 -45.667 -4.83301 -69 -14.5s-44.833 -24.667 -64.5 -45
s-35.5 -45.833 -47.5 -76.5s-18.333 -66 -19 -106zM460.997 394.998c-0.666992 40 -7.00098 75.334 -19.001 106.001s-27.833 56.167 -47.5 76.5s-41.167 35.333 -64.5 45s-46.333 14.5 -69 14.5c-29.333 0 -53.666 -7.5 -72.999 -22.5s-29 -36.167 -29 -63.5
c0 -24.667 9.33301 -52.834 28 -84.501s48 -66.167 88 -103.5c20.667 8 46.5 15 77.5 21s67.167 9.66699 108.5 11zM738.996 226.999c-14 13.333 -43.167 24.5 -87.5 33.5s-94.833 13.5 -151.5 13.5s-107.167 -4.5 -151.5 -13.5s-73.5 -20.167 -87.5 -33.5v35
c14 13.333 43.167 24.5 87.5 33.5s94.833 13.5 151.5 13.5s107.167 -4.5 151.5 -13.5s73.5 -20.167 87.5 -33.5v-35zM738.996 161.999c-14 13.333 -43.167 24.5 -87.5 33.5s-94.833 13.5 -151.5 13.5s-107.167 -4.5 -151.5 -13.5s-73.5 -20.167 -87.5 -33.5v35
c14 13.333 43.167 24.5 87.5 33.5s94.833 13.5 151.5 13.5s107.167 -4.5 151.5 -13.5s73.5 -20.167 87.5 -33.5v-35zM574.996 623.999c-16.667 -15.333 -31.167 -34.335 -43.5 -57.002s-22.833 -50 -31.5 -82c-8 32.667 -18.333 60.334 -31 83.001
s-27.334 41.334 -44.001 56.001c0 43.333 7.5 77.166 22.5 101.499s32.5 36.5 52.5 36.5c20.667 0 38.334 -12.167 53.001 -36.5s22 -58.166 22 -101.499z" />
    <glyph glyph-name="SN" unicode="S" horiz-adv-x="1000" 
d="M500 627c-30 0 -52.3311 0.337891 -66.998 1.00488c-37.333 2 -72 5 -104 9c-32.667 5.33301 -57.334 9.66602 -74.001 12.999l9 37c16.667 -4.66699 38 -8.33398 64 -11.001c21.333 -2.66699 56.333 -5.33398 105 -8.00098c14 -0.666992 36.333 -1 67 -1
s53.334 0.333008 68.001 1c26 0.666992 55.667 3 89 7c28 2.66699 54.333 6.66699 79 12l9 -37c-18.667 -4.66699 -47.334 -9.33398 -86.001 -14.001c-30.667 -4.66699 -61 -7.33398 -91 -8.00098c-14.667 -0.666992 -37.334 -1 -68.001 -1zM500.002 747.005
c30.667 0 53.334 0.333984 68.001 1.00098c23.333 0.666992 52 3 86 7c41.333 5.33301 73.333 11.666 96 18.999l-16 -45c-23.333 -6.66699 -49.666 -11.334 -78.999 -14.001c-35.333 -4 -64.333 -6.33301 -87 -7c-14.667 -0.666992 -37.334 -1 -68.001 -1
c-30 0 -52.333 0.333008 -67 1c-40 2 -75.333 5 -106 9c-22.667 2.66699 -43 6.66699 -61 12l-16 45c25.333 -7.33301 51 -12.666 77 -15.999c37.333 -6 72.666 -9.33301 105.999 -10c14.667 -0.666992 37 -1 67 -1zM197.002 850.006
c0 -7.33301 1.66504 -16.1689 4.99805 -26.502s8 -22.833 14 -37.5l1 -1c8 -18.667 14 -34 18 -46s6 -22.333 6 -31c0 -12 -1.33301 -21.667 -4 -29s-7.66699 -16.666 -15 -27.999v0c-8 -13.333 -15.667 -27.333 -23 -42s-15 -34.667 -23 -60l-51 -228
c-16.667 0 -31 -6 -43 -18s-18 -26.333 -18 -43c0 -17.333 6 -31.833 18 -43.5s26.333 -17.5 43 -17.5s31 6 43 18s18 26.333 18 43c0 10 -2.16699 19.5 -6.5 28.5s-10.166 15.833 -17.499 20.5l128 212l2 -284c-15.333 -2.66699 -28 -9.66699 -38 -21s-15 -24.333 -15 -39
c0 -17.333 5.83301 -31.833 17.5 -43.5s26.167 -17.5 43.5 -17.5s31.833 6 43.5 18s17.5 26.333 17.5 43c0 12 -3.33301 23.167 -10 33.5s-15 17.5 -25 21.5l94 274l65 -290c-14 -4 -25.667 -11.667 -35 -23s-14 -24.333 -14 -39c0 -18 6.16699 -33.167 18.5 -45.5
s27.5 -18.5 45.5 -18.5c17.333 0 32.333 6.16699 45 18.5s19 27.5 19 45.5c0 15.333 -4.5 28.833 -13.5 40.5s-20.833 18.834 -35.5 21.501l65 290l94 -274c-10 -4 -18.333 -11.167 -25 -21.5s-10 -21.5 -10 -33.5c0 -17.333 5.83301 -31.833 17.5 -43.5
s26.167 -17.5 43.5 -17.5c16.667 0 31 6 43 18s18 26.333 18 43c0 15.333 -5.16699 28.5 -15.5 39.5s-22.833 17.833 -37.5 20.5l2 284l128 -212c-16 -12 -24 -28.333 -24 -49c0 -17.333 5.83301 -31.833 17.5 -43.5s26.167 -17.5 43.5 -17.5c16.667 0 31 6 43 18
s18 26.333 18 43s-6.16699 31 -18.5 43s-26.5 18 -42.5 18l-51 228c-10.667 33.333 -22 60.666 -34 81.999l-12 21c-7.33301 11.333 -12.333 20.5 -15 27.5s-4 16.5 -4 28.5c0 8.66699 2 19.167 6 31.5s10 27.5 18 45.5c6.66699 16 11.667 28.833 15 38.5s5 18.5 5 26.5
c0 8.66699 -9 17.167 -27 25.5s-43 15.5 -75 21.5c-40 7.33301 -84.667 12 -134 14c-29.333 1.33301 -51.666 2 -66.999 2c-18.667 0 -44 -0.666992 -76 -2c-29.333 -1.33301 -62.333 -4.66602 -99 -9.99902c-39.333 -6 -70.5 -13.5 -93.5 -22.5s-34.5 -18.5 -34.5 -28.5z
" />
    <glyph glyph-name="TN" unicode="T" horiz-adv-x="1000" 
d="M740 170h-259h-221v30h221h259v-30zM730 260h-249h-211v30h211h249v-30zM680 320h-199h-161v30h161h199v-30zM680 655h-200h-160v30h160h200v-30zM755 735h-275h-235v30h235h275v-30zM800 890h-135v-80h-90v80h-95h-55v-80h-90v80h-135v-150l90 -70v-229v-111l-60 -40
v-25v-65h-60v-25v-65h311h349v65v25h-60v65v25l-60 40v111v229l90 70v150z" />
    <glyph glyph-name="LeoN" unicode="U" horiz-adv-x="1000" 
d="M626 501c0 30 0.334961 52.3311 1.00195 66.998c0.666992 34 3.33398 68.667 8.00098 104c5.33301 32.667 9.66602 57.334 12.999 74.001l37 -9c-4.66699 -16.667 -8.33398 -38 -11.001 -64c-3.33301 -26.667 -5.66602 -61.667 -6.99902 -105
c-0.666992 -14 -1 -36.333 -1 -67s0.333008 -53.334 1 -68.001c0.666992 -26 3 -55.667 7 -89c2.66699 -27.333 6.66699 -53.666 12 -78.999l-37 -9c-4.66699 19.333 -9.33398 48 -14.001 86c-4.66699 30.667 -7.33398 61 -8.00098 91c-0.666992 14.667 -1 37.334 -1 68.001
zM746.002 500.998c0 -30.667 0.333008 -53.333 1 -68c0.666992 -23.333 3 -52 7 -86c5.33301 -41.333 11.666 -73.333 18.999 -96l-45 16c-6.66699 23.333 -11.334 49.666 -14.001 78.999c-4 35.333 -6.33301 64.333 -7 87c-0.666992 14.667 -1 37.334 -1 68.001
c0 30 0.333008 52.333 1 67c0.666992 36.667 3.33398 72 8.00098 106c2.66699 22.667 6.66699 43 12 61l45 16c-7.33301 -25.333 -12.666 -51 -15.999 -77c-6 -38.667 -9 -74 -9 -106c-0.666992 -14.667 -1 -37 -1 -67zM848.002 803.999
c-7.33301 0 -16.167 -1.66504 -26.5 -4.99805s-22.833 -8 -37.5 -14l-1 -1c-18.667 -7.33301 -34 -13.166 -46 -17.499s-22.333 -6.5 -31 -6.5c-12 0 -21.667 1.33301 -29 4s-16.666 7.66699 -27.999 15v0c-13.333 8.66699 -27.333 16.5 -42 23.5s-34.667 14.5 -60 22.5
l-228 50c0 16.667 -6 31 -18 43s-26.333 18 -43 18c-17.333 0 -31.833 -6 -43.5 -18s-17.5 -26.333 -17.5 -43s6 -31 18 -43s26.333 -18 43 -18c10 0 19.5 2.16699 28.5 6.5s15.833 10.166 20.5 17.499l212 -127l-284 -3c-2.66699 15.333 -9.66699 28 -21 38
s-24.333 15 -39 15c-17.333 0 -31.833 -5.66699 -43.5 -17s-17.5 -26 -17.5 -44c0 -17.333 6 -31.833 18 -43.5s26.333 -17.5 43 -17.5c12 0 23.167 3.33301 33.5 10s17.5 15 21.5 25l274 -93l-289 -66c-4 14 -11.667 25.667 -23 35s-24.333 14 -39 14
c-18 0 -33.167 -6.16699 -45.5 -18.5s-18.5 -27.5 -18.5 -45.5c0 -17.333 6.16699 -32.333 18.5 -45s27.5 -19 45.5 -19c15.333 0 28.833 4.5 40.5 13.5s18.834 20.833 21.501 35.5l290 -64l-274 -95c-4 10 -11.167 18.333 -21.5 25s-21.5 10 -33.5 10
c-17.333 0 -31.833 -5.83301 -43.5 -17.5s-17.5 -26.167 -17.5 -43.5c0 -16.667 6 -31 18 -43s26.333 -18 43 -18c15.333 0 28.5 5.16699 39.5 15.5s17.833 22.833 20.5 37.5l284 -1l-212 -129c-12 16 -28.333 24 -49 24c-17.333 0 -31.833 -5.83301 -43.5 -17.5
s-17.5 -26.167 -17.5 -43.5c0 -16.667 6 -31 18 -43s26.333 -18 43 -18s31 6.16699 43 18.5s18 26.5 18 42.5l228 52c33.333 10.667 60.666 22 81.999 34c6 3.33301 13 7.66602 21 12.999c11.333 6.66699 20.5 11.334 27.5 14.001s16.5 4 28.5 4
c8.66699 0 19.167 -2 31.5 -6s27.5 -10 45.5 -18c16 -6.66699 28.833 -11.667 38.5 -15s18.5 -5 26.5 -5c8.66699 0 17.167 9.16699 25.5 27.5s15.5 43.166 21.5 74.499c7.33301 40 12 84.667 14 134c1.33301 29.333 2 51.666 2 66.999c0 18.667 -0.666992 44 -2 76
c-2.66699 32.667 -6.33398 65.667 -11.001 99c-6 40 -13.5 71.333 -22.5 94s-18.5 34 -28.5 34z" />
    <glyph glyph-name="murvertical" unicode="V" 
d="M-30 1000v-1000h60v1000h-60z" />
    <glyph glyph-name="LocusteN" unicode="W" horiz-adv-x="1000" 
d="M375 500c0 -30 -0.336914 -52.3311 -1.00391 -66.998c-2 -37.333 -5 -72 -9 -104c-4.66699 -32.667 -9 -57.334 -13 -74.001l-37 9c4.66699 16.667 8.33398 38 11.001 64c2.66699 21.333 5.33398 56.333 8.00098 105c0.666992 14 1 36.333 1 67
s-0.333008 53.334 -1 68.001c-0.666992 26 -3 55.667 -7 89c-2.66699 28 -6.66699 54.333 -12 79l37 9c4.66699 -18.667 9.33398 -47.334 14.001 -86.001c4.66699 -30.667 7.33398 -61 8.00098 -91c0.666992 -14.667 1 -37.334 1 -68.001zM254.996 500.002
c0 30.667 -0.333984 53.334 -1.00098 68.001c-0.666992 23.333 -3 52 -7 86c-5.33301 41.333 -11.666 73.333 -18.999 96l45 -16c6.66699 -23.333 11.334 -49.666 14.001 -78.999c4 -35.333 6.33301 -64.333 7 -87c0.666992 -14.667 1 -37.334 1 -68.001
c0 -30 -0.333008 -52.333 -1 -67c-2 -40 -5 -75.333 -9 -106c-2.66699 -22.667 -6.66699 -43 -12 -61l-45 -16c7.33301 25.333 12.666 51 15.999 77c6 37.333 9.33301 72.666 10 105.999c0.666992 14.667 1 37 1 67zM151.995 197.002
c7.33301 0 16.1641 1.66504 26.4971 4.99805s22.833 8 37.5 14l1 1c18.667 8 34 14 46 18s22.333 6 31 6c12 0 21.667 -1.33301 29 -4s16.666 -7.66699 27.999 -15v0c13.333 -8 27.333 -15.667 42 -23s34.667 -15 60 -23l228 -51c0 -16.667 6 -31 18 -43s26.333 -18 43 -18
c17.333 0 31.833 6 43.5 18s17.5 26.333 17.5 43s-6 31 -18 43s-26.333 18 -43 18c-9.33301 0 -18.666 -2.16699 -27.999 -6.5s-16.333 -10.166 -21 -17.499l-212 128l284 2c2.66699 -15.333 9.66699 -28 21 -38s24.333 -15 39 -15c17.333 0 31.833 5.83301 43.5 17.5
s17.5 26.167 17.5 43.5s-6 31.833 -18 43.5s-26.333 17.5 -43 17.5c-12 0 -23.167 -3.33301 -33.5 -10s-17.5 -15 -21.5 -25l-274 94l290 65c4 -14 11.667 -25.667 23 -35s24.333 -14 39 -14c18 0 33.167 6.16699 45.5 18.5s18.5 27.5 18.5 45.5
c0 17.333 -6.16699 32.333 -18.5 45s-27.5 19 -45.5 19c-15.333 0 -28.666 -4.5 -39.999 -13.5s-18.666 -20.833 -21.999 -35.5l-290 65l274 94c4 -10 11.167 -18.333 21.5 -25s21.5 -10 33.5 -10c17.333 0 31.833 5.83301 43.5 17.5s17.5 26.167 17.5 43.5
c0 16.667 -6 31 -18 43s-26.333 18 -43 18c-15.333 0 -28.5 -5.16699 -39.5 -15.5s-17.833 -22.833 -20.5 -37.5l-284 2l212 128c12 -16 28.333 -24 49 -24c17.333 0 31.833 5.83301 43.5 17.5s17.5 26.167 17.5 43.5c0 16.667 -6 31 -18 43s-26.333 18 -43 18
s-31 -6.16699 -43 -18.5s-18 -26.5 -18 -42.5l-228 -51c-33.333 -10.667 -60.666 -22 -81.999 -34l-21 -12c-10.667 -7.33301 -19.667 -12.333 -27 -15s-17 -4 -29 -4c-8.66699 0 -19.167 2 -31.5 6s-27.5 10 -45.5 18c-16 6.66699 -28.833 11.667 -38.5 15s-18.5 5 -26.5 5
c-8.66699 0 -17.167 -9 -25.5 -27s-15.5 -43 -21.5 -75c-7.33301 -40 -12 -84.667 -14 -134c-1.33301 -29.333 -2 -51.666 -2 -66.999c0 -18.667 0.666992 -44 2 -76c2 -29.333 5.33301 -62.333 10 -99c6 -39.333 13.5 -70.5 22.5 -93.5s18.5 -34.5 28.5 -34.5z" />
    <glyph glyph-name="PoseidonN" unicode="X" horiz-adv-x="1000" 
d="M787 520c-5.33301 21.333 -21.333 40 -48 56s-59 24 -97 24c32.667 44 49 91.667 49 143c0 44.667 -12.5 82 -37.5 112s-57.833 45 -98.5 45c-32 0 -67.167 -10.833 -105.5 -32.5s-78.5 -55.5 -120.5 -101.5h-167c-10 0 -19.333 -7 -28 -21s-16.334 -33.333 -23.001 -58
s-11.834 -53.167 -15.501 -85.5s-5.5 -66.166 -5.5 -101.499c0 -36 1.83301 -70.167 5.5 -102.5s8.83398 -60.833 15.501 -85.5s14.334 -43.834 23.001 -57.501s18 -20.5 28 -20.5h167c42 -46 82.167 -79.833 120.5 -101.5s73.5 -32.5 105.5 -32.5
c40.667 0 73.5 15.167 98.5 45.5s37.5 67.5 37.5 111.5c0 24 -4 48.333 -12 73s-20.333 48 -37 70c38 0 70.333 8 97 24s42.667 34.667 48 56h53v-40h40v40h40v40h-40v40h-40v-40h-53zM550 500c13.333 -2 24.666 -5.5 33.999 -10.5s19.333 -11.833 30 -20.5
c13.333 -10.667 23.666 -16 30.999 -16c24.667 0 46.167 5.16699 64.5 15.5s27.5 20.833 27.5 31.5s-9.16699 21.167 -27.5 31.5s-39.833 15.5 -64.5 15.5c-7.33301 0 -17.666 -5.33301 -30.999 -16c-10.667 -8.66699 -20.667 -15.5 -30 -20.5s-20.666 -8.5 -33.999 -10.5z
M395 484c45.333 0 85.499 -6.49805 120.499 -19.498s63.5 -30.333 85.5 -52s38.5 -45.5 49.5 -71.5s16.5 -52.333 16.5 -79c0 -38 -10.333 -70 -31 -96s-48.334 -39 -83.001 -39c-28 0 -59.167 9.83301 -93.5 29.5s-70.833 50.5 -109.5 92.5
c-4.66699 5.33301 -9 8.66602 -13 9.99902s-8.66699 2 -14 2c13.333 14 24.5 43.167 33.5 87.5s13.5 94.833 13.5 151.5s-4.5 107.167 -13.5 151.5s-20.167 73.5 -33.5 87.5c6 0 10.833 0.666992 14.5 2s7.83398 4.66602 12.501 9.99902c38.667 42 75.167 72.833 109.5 92.5
s65.5 29.5 93.5 29.5c34.667 0 62.334 -13 83.001 -39s31 -58 31 -96c0 -26 -5.5 -52.167 -16.5 -78.5s-27.5 -50.333 -49.5 -72s-50.5 -39 -85.5 -52s-75.167 -19.5 -120.5 -19.5v-32zM394.999 461.002c-1.33301 -41.333 -5.00098 -77.499 -11.001 -108.499
s-13 -56.833 -21 -77.5c37.333 -40 71.833 -69.333 103.5 -88s59.834 -28 84.501 -28c27.333 0 48.5 9.66699 63.5 29s22.5 43.666 22.5 72.999c0 22.667 -4.83301 45.667 -14.5 69s-24.667 44.833 -45 64.5s-45.833 35.5 -76.5 47.5s-66 18.333 -106 19zM394.998 539.003
c40 0.666992 75.334 7.00098 106.001 19.001s56.167 27.833 76.5 47.5s35.333 41.167 45 64.5s14.5 46.333 14.5 69c0 29.333 -7.5 53.666 -22.5 72.999s-36.167 29 -63.5 29c-24.667 0 -52.834 -9.33301 -84.501 -28s-66.167 -48 -103.5 -88c8 -20.667 15 -46.5 21 -77.5
s9.66699 -67.167 11 -108.5zM226.999 261.004c13.333 14 24.5 43.167 33.5 87.5s13.5 94.833 13.5 151.5s-4.5 107.167 -13.5 151.5s-20.167 73.5 -33.5 87.5h35c13.333 -14 24.5 -43.167 33.5 -87.5s13.5 -94.833 13.5 -151.5s-4.5 -107.167 -13.5 -151.5
s-20.167 -73.5 -33.5 -87.5h-35zM161.999 261.004c13.333 14 24.5 43.167 33.5 87.5s13.5 94.833 13.5 151.5s-4.5 107.167 -13.5 151.5s-20.167 73.5 -33.5 87.5h35c13.333 -14 24.5 -43.167 33.5 -87.5s13.5 -94.833 13.5 -151.5s-4.5 -107.167 -13.5 -151.5
s-20.167 -73.5 -33.5 -87.5h-35zM623.999 425.004c-15.333 16.667 -34.335 31.168 -57.002 43.501s-50 22.833 -82 31.5c32.667 8 60.334 18.5 83.001 31.5s41.334 27.5 56.001 43.5c43.333 0 77.166 -7.5 101.499 -22.5s36.5 -32.5 36.5 -52.5
c0 -20.667 -12.167 -38.334 -36.5 -53.001s-58.166 -22 -101.499 -22z" />
    <glyph glyph-name="PaoN" unicode="Y" horiz-adv-x="1000" 
d="M830 740v-259v-221h-30v221v259h30zM740 730v-249v-211h-30v211v249h30zM680 680v-199v-161h-30v161v199h30zM345 680v-200v-160h-30v160v200h30zM265 755v-275v-235h-30v235v275h30zM110 800v-135h80v-90h-80v-95v-55h80v-90h-80v-135h150l70 90h229h111l40 -60h25h65
v-60h25h65v311v349h-65h-25v-60h-65h-25l-40 -60h-111h-229l-70 90h-150z" />
    <glyph glyph-name="VizirN" unicode="Z" horiz-adv-x="1000" 
d="M170 260v259v221h30v-221v-259h-30zM260 270v249v211h30v-211v-249h-30zM320 320v199v161h30v-161v-199h-30zM655 320v200v160h30v-160v-200h-30zM735 245v275v235h30v-235v-275h-30zM890 200v135h-80v90h80v95v55h-80v90h80v135h-150l-70 -90h-229h-111l-40 60h-25h-65
v60h-25h-65v-311v-349h65h25v60h65h25l40 60h111h229l70 -90h150z" />
    <glyph glyph-name="SuperPB" unicode="[" horiz-adv-x="1000" 
d="M890 800c-44.667 -0.666992 -87.167 -5.5 -127.5 -14.5s-75.5 -21.5 -105.5 -37.5c-30 -15.333 -53.833 -33.5 -71.5 -54.5s-27.834 -43.5 -30.501 -67.5c-4.66699 14 -17.334 26.333 -38.001 37c-10 5.33301 -21 9.83301 -33 13.5s-22.667 5.5 -32 5.5
c-26.667 0 -51.667 -5 -75 -15c-16 -7.33301 -31.667 -18 -47 -32c-17.333 -16 -30.666 -33 -39.999 -51c-5.33301 5.33301 -14 11 -26 17c-17.333 6.66699 -32 10 -44 10c-17.333 0 -33.666 -4.33301 -48.999 -13c-16 -7.33301 -30.333 -20 -43 -38
c-12 -19.333 -18 -39.333 -18 -60c0 -20 6 -40 18 -60c12.667 -18 27 -30.667 43 -38c15.333 -8.66699 31.666 -13 48.999 -13c12 0 26.667 3.33301 44 10c12 6 20.667 11.667 26 17c9.33301 -18 22.666 -35 39.999 -51c15.333 -14 31 -24.667 47 -32
c23.333 -10 48.333 -15 75 -15c9.33301 0 20 1.83301 32 5.5s23 8.16699 33 13.5c20.667 10.667 33.334 23 38.001 37c2.66699 -24 12.834 -46.5 30.501 -67.5s41.5 -39.167 71.5 -54.5c30 -16 65.167 -28.5 105.5 -37.5s82.833 -13.833 127.5 -14.5v600zM143 500
c1.33301 10.667 2.16504 17.168 2.49805 19.501s1.5 6.83301 3.5 13.5l4 6c4 6.66699 6.66699 10.834 8 12.501s5.33301 5.5 12 11.5c7.33301 4.66699 14 8 20 10s15 3.66699 27 5c10 0 22 -2.33301 36 -7c2.66699 -1.33301 5.33398 -2.33301 8.00098 -3l6 -6
c0.666992 -0.666992 1.5 -1.33398 2.5 -2.00098s3.5 -2.66699 7.5 -6l2 -3c5.33301 -7.33301 9 -11 11 -11c2.66699 0 5.66699 4.33301 9 13c4.66699 12.667 13.667 26.667 27 42c1.33301 2 3.33301 4.66699 6 8c6.66699 6.66699 13 12.334 19 17.001
s13.667 9.33398 23 14.001c20 10 45 15 75 15c10.667 -2 19.334 -4 26.001 -6s15 -5 25 -9l3 -1l8 -6c4.66699 -3.33301 7.83398 -5.83301 9.50098 -7.5s5.16699 -5.83398 10.5 -12.501c10 -17.333 17.667 -26 23 -26s10 4.66699 14 14
c2.66699 24.667 12.5 47.834 29.5 69.501s39.833 40.5 68.5 56.5c26 14.667 55.167 26 87.5 34s66.833 12.333 103.5 13v-536c-36.667 0.666992 -71.167 5 -103.5 13s-61.5 19.333 -87.5 34c-28.667 16.667 -51.5 35.667 -68.5 57s-26.833 44.333 -29.5 69
c-4 9.33301 -8.66699 14 -14 14s-13 -8.66699 -23 -26c-5.33301 -6.66699 -8.83301 -10.834 -10.5 -12.501s-4.83398 -4.16699 -9.50098 -7.5l-8 -6l-3 -1c-10.667 -4.66699 -19.167 -7.83398 -25.5 -9.50098s-14.833 -3.5 -25.5 -5.5c-30 0 -55 5 -75 15
c-9.33301 4.66699 -17 9.33398 -23 14.001s-12.333 10.334 -19 17.001c-2.66699 3.33301 -4.66699 6 -6 8c-13.333 15.333 -22.333 29.333 -27 42c-3.33301 8.66699 -6.33301 13 -9 13c-2 0 -5.66699 -3.66699 -11 -11l-2 -3c-4 -3.33301 -6.5 -5.33301 -7.5 -6
s-1.83301 -1.33398 -2.5 -2.00098l-6 -6c-2.66699 -0.666992 -5.33398 -1.66699 -8.00098 -3c-14 -4.66699 -26 -7 -36 -7c-12 1.33301 -21 3 -27 5s-12.667 5.33301 -20 10l-1 1c-6 5.33301 -9.83301 9.16602 -11.5 11.499s-5.5 8.16602 -11.5 17.499
c-2 6.66699 -3.16699 11.167 -3.5 13.5s-1.16602 8.83301 -2.49902 19.5z" />
    <glyph glyph-name="cndFousaut" unicode="\" 
d="M500 940v-5l45 45h-5zM696 591l2 -3l154 154l-8 -3zM734 519l1 -4l245 245v5zM755 430v-5l225 225v5zM604 169v-5l376 376v5zM584 914l7 2l64 64h-5zM689 909l4 -1l72 72h-5zM816 926l12 7l47 47h-5zM899 902l1 -4l80 80v2h-3zM925 820v-5l55 55v5zM732 735l-12 -12l2 -3
l13 13zM895 20h5l80 80v5zM785 20h5l190 190v5zM675 20h5l300 300v5zM565 20h5l410 410v5z" />
    <glyph glyph-name="SuperPN" unicode="]" horiz-adv-x="1000" 
d="M890 800c-44.667 -0.666992 -87.167 -5.5 -127.5 -14.5s-75.5 -21.5 -105.5 -37.5c-30 -15.333 -53.833 -33.5 -71.5 -54.5s-27.834 -43.5 -30.501 -67.5c-4.66699 14 -17.334 26.333 -38.001 37c-10 5.33301 -21 9.83301 -33 13.5s-22.667 5.5 -32 5.5
c-26.667 0 -51.667 -5 -75 -15c-16 -7.33301 -31.667 -18 -47 -32c-17.333 -16 -30.666 -33 -39.999 -51c-5.33301 5.33301 -14 11 -26 17c-17.333 6.66699 -32 10 -44 10c-17.333 0 -33.666 -4.33301 -48.999 -13c-16 -7.33301 -30.333 -20 -43 -38
c-12 -19.333 -18 -39.333 -18 -60c0 -20 6 -40 18 -60c12.667 -18 27 -30.667 43 -38c15.333 -8.66699 31.666 -13 48.999 -13c12 0 26.667 3.33301 44 10c12 6 20.667 11.667 26 17c9.33301 -18 22.666 -35 39.999 -51c15.333 -14 31 -24.667 47 -32
c23.333 -10 48.333 -15 75 -15c9.33301 0 20 1.83301 32 5.5s23 8.16699 33 13.5c20.667 10.667 33.334 23 38.001 37c2.66699 -24 12.834 -46.5 30.501 -67.5s41.5 -39.167 71.5 -54.5c30 -16 65.167 -28.5 105.5 -37.5s82.833 -13.833 127.5 -14.5v600z" />
    <glyph glyph-name="PoséidonB" unicode="^" horiz-adv-x="1000" 
d="M787 480h53v-40h40v40h40v40h-40v40h-40v-40h-53c-5.33301 21.333 -21.333 40 -48 56s-59 24 -97 24c32.667 44 49 91.667 49 143c0 44.667 -12.5 82 -37.5 112s-57.833 45 -98.5 45c-32 0 -67.167 -10.833 -105.5 -32.5s-78.5 -55.5 -120.5 -101.5h-167
c-10 0 -19.333 -7 -28 -21s-16.334 -33.333 -23.001 -58s-11.834 -53.167 -15.501 -85.5s-5.5 -66.166 -5.5 -101.499c0 -36 1.83301 -70.167 5.5 -102.5s8.83398 -60.833 15.501 -85.5s14.334 -43.834 23.001 -57.501s18 -20.5 28 -20.5h167
c42 -46 82.167 -79.833 120.5 -101.5s73.5 -32.5 105.5 -32.5c40.667 0 73.5 15.167 98.5 45.5s37.5 67.5 37.5 111.5c0 24 -4 48.333 -12 73s-20.333 48 -37 70c38 0 70.333 8 97 24s42.667 34.667 48 56zM395 484c45.333 0 85.5 -6.5 120.5 -19.5s63.5 -30.333 85.5 -52
s38.5 -45.5 49.5 -71.5s16.5 -52.333 16.5 -79c0 -38 -10.333 -70 -31 -96s-48.334 -39 -83.001 -39c-28 0 -59.167 9.83301 -93.5 29.5s-70.833 50.5 -109.5 92.5c10 14.667 19.833 42.5 29.5 83.5s14.834 91.5 15.501 151.5zM624 425
c-15.333 16.667 -34.335 31.168 -57.002 43.501s-50 22.833 -82 31.5c32.667 8 60.334 18.5 83.001 31.5s41.334 27.5 56.001 43.5c43.333 0 77.166 -7.5 101.499 -22.5s36.5 -32.5 36.5 -52.5c0 -20.667 -12.167 -38.334 -36.5 -53.001s-58.166 -22 -101.499 -22z
M394.998 516.001c-0.666992 60.667 -5.83398 111.332 -15.501 151.999s-19.5 68.334 -29.5 83.001c38.667 42 75.167 72.833 109.5 92.5s65.5 29.5 93.5 29.5c34.667 0 62.334 -13 83.001 -39s31 -58 31 -96c0 -26 -5.5 -52.167 -16.5 -78.5s-27.5 -50.333 -49.5 -72
s-50.5 -39 -85.5 -52s-75.167 -19.5 -120.5 -19.5zM251.998 260.999c13.333 14 24.5 43.167 33.5 87.5s13.5 94.833 13.5 151.5s-4.5 107.167 -13.5 151.5s-20.167 73.5 -33.5 87.5h71c13.333 -14 24.5 -43.167 33.5 -87.5s13.5 -94.833 13.5 -151.5
s-4.5 -107.167 -13.5 -151.5s-20.167 -73.5 -33.5 -87.5h-71zM186.998 260.999c13.333 14 24.5 43.167 33.5 87.5s13.5 94.833 13.5 151.5s-4.5 107.167 -13.5 151.5s-20.167 73.5 -33.5 87.5h40c13.333 -14 24.5 -43.167 33.5 -87.5s13.5 -94.833 13.5 -151.5
s-4.5 -107.167 -13.5 -151.5s-20.167 -73.5 -33.5 -87.5h-40zM161.998 738.999c13.333 -14 24.5 -43.167 33.5 -87.5s13.5 -94.833 13.5 -151.5s-4.5 -107.167 -13.5 -151.5s-20.167 -73.5 -33.5 -87.5c-13.333 14 -24.5 43.167 -33.5 87.5s-13.5 94.833 -13.5 151.5
s4.5 107.167 13.5 151.5s20.167 73.5 33.5 87.5z" />
    <glyph glyph-name="bas" unicode="_" horiz-adv-x="1000" 
d="M0 940h1000v60h-1000v-60z" />
    <glyph glyph-name="RoiTransmuteN" unicode="`" horiz-adv-x="1000" 
d="M450 500c-13.333 2 -24.667 5.5 -34 10.5s-19.333 11.833 -30 20.5c-13.333 10.667 -23.666 16 -30.999 16c-24.667 0 -46.167 -5.16699 -64.5 -15.5s-27.5 -20.833 -27.5 -31.5s9.16699 -21.167 27.5 -31.5s39.833 -15.5 64.5 -15.5c7.33301 0 17.666 5.33301 30.999 16
c11.333 8.66699 21.5 15.5 30.5 20.5s20.167 8.5 33.5 10.5zM604.999 516c-45.333 0 -85.332 6.49805 -119.999 19.498s-63.167 30.333 -85.5 52s-39 45.667 -50 72s-16.5 52.5 -16.5 78.5c0 38 10.333 70 31 96s48.334 39 83.001 39c28 0 59.167 -9.83301 93.5 -29.5
s70.833 -50.5 109.5 -92.5c4.66699 -5.33301 9 -8.66602 13 -9.99902s8.66699 -2 14 -2c-13.333 -14 -24.5 -43.167 -33.5 -87.5s-13.5 -94.833 -13.5 -151.5s4.5 -107.167 13.5 -151.5s20.167 -73.5 33.5 -87.5c-6 0 -10.833 -0.666992 -14.5 -2
s-7.83398 -4.66602 -12.501 -9.99902c-38.667 -42 -75.167 -72.833 -109.5 -92.5s-65.5 -29.5 -93.5 -29.5c-34.667 0 -62.334 13 -83.001 39s-31 58 -31 96c0 26.667 5.5 53 16.5 79s27.667 49.833 50 71.5s50.833 39 85.5 52s74.667 19.5 120 19.5v32zM605 538.998
c1.33301 41.333 5.00098 77.499 11.001 108.499s13 56.833 21 77.5c-37.333 40 -71.833 69.333 -103.5 88s-59.834 28 -84.501 28c-26.667 0 -47.667 -9.66699 -63 -29s-23 -43.666 -23 -72.999c0 -22.667 5 -45.667 15 -69s25 -44.833 45 -64.5s45.333 -35.5 76 -47.5
s66 -18.333 106 -19zM605.001 460.997c-40 -0.666992 -75.334 -7.00098 -106.001 -19.001s-56 -27.833 -76 -47.5s-35 -41.167 -45 -64.5s-15 -46.333 -15 -69c0 -29.333 7.66699 -53.666 23 -72.999s36.333 -29 63 -29c24.667 0 52.834 9.33301 84.501 28
s66.167 48 103.5 88c-8 20.667 -15 46.5 -21 77.5s-9.66699 67.167 -11 108.5zM773 738.996c-13.333 -14 -24.5 -43.167 -33.5 -87.5s-13.5 -94.833 -13.5 -151.5s4.5 -107.167 13.5 -151.5s20.167 -73.5 33.5 -87.5h-35c-13.333 14 -24.5 43.167 -33.5 87.5
s-13.5 94.833 -13.5 151.5s4.5 107.167 13.5 151.5s20.167 73.5 33.5 87.5h35zM838 738.996c-13.333 -14 -24.5 -43.167 -33.5 -87.5s-13.5 -94.833 -13.5 -151.5s4.5 -107.167 13.5 -151.5s20.167 -73.5 33.5 -87.5h-35c-13.333 14 -24.5 43.167 -33.5 87.5
s-13.5 94.833 -13.5 151.5s4.5 107.167 13.5 151.5s20.167 73.5 33.5 87.5h35zM671 765.996c-42 46 -82.167 79.833 -120.5 101.5s-73.5 32.5 -105.5 32.5c-40.667 0 -73.5 -15 -98.5 -45s-37.5 -67.333 -37.5 -112c0 -24 4 -48.333 12 -73s20.333 -48 37 -70
c-38 0 -70.333 -8 -97 -24s-42.667 -34.667 -48 -56h-53v40h-40v-40h-40v-40h40v-40h40v40h53c5.33301 -21.333 21.333 -40 48 -56s59 -24 97 -24c-32.667 -44 -49 -91.667 -49 -143c0 -44 12.5 -81.167 37.5 -111.5s57.833 -45.5 98.5 -45.5c32 0 67.167 10.833 105.5 32.5
s78.5 55.5 120.5 101.5h167c10 0 19.333 7 28 21s16.334 33.333 23.001 58s11.834 53.167 15.501 85.5s5.5 66.166 5.5 101.499c0 36 -1.83301 70.167 -5.5 102.5s-8.83398 60.833 -15.501 85.5s-14.334 43.834 -23.001 57.501s-18 20.5 -28 20.5h-167zM376 574.996
c15.333 -16.667 34.333 -31.167 57 -43.5s50 -22.833 82 -31.5c-32 -8 -59.5 -18.333 -82.5 -31s-41.833 -27.334 -56.5 -44.001c-43.333 0 -77.166 7.5 -101.499 22.5s-36.5 32.5 -36.5 52.5c0 20.667 12.167 38.334 36.5 53.001s58.166 22 101.499 22z" />
    <glyph glyph-name="EquisauteurB" unicode="a" horiz-adv-x="1000" 
d="M820 292v420l30 24v-472zM790 311l-244 189l244 189v-378zM210 311v378l244 -189zM180 292l-30 -28v472l30 -24v-420zM490 620h20v-240h-20v240zM470 528l-350 272v-600l350 272v-122h60v123l350 -273v600l-350 -272v122h-60v-122z" />
    <glyph glyph-name="FousautB" unicode="b" horiz-adv-x="1000" 
d="M520 320v60h60v40h-60v60h-40v-60h-60v-40h60v-60h40zM464 197c-16.667 -12 -25.001 -27.668 -25.001 -47.001c0 -16.667 6 -30.834 18 -42.501s26.333 -17.5 43 -17.5c17.333 0 31.833 5.83301 43.5 17.5s17.5 25.834 17.5 42.501c0 9.33301 -2.33301 18.333 -7 27
s-10.667 15.334 -18 20.001c56.667 28 100 59.667 130 95s45 73 45 113c0 27.333 -5.66699 58 -17 92c-12.667 32.667 -28 63.667 -46 93l34 109c0 10 -14.667 20.167 -44 30.5s-64.666 15.5 -105.999 15.5c14.667 12.667 30.167 21.5 46.5 26.5s34.166 7.5 53.499 7.5
c13.333 0 33.666 -1.33301 60.999 -4c28.667 -3.33301 50.667 -5 66 -5c22.667 0 44.334 2.83301 65.001 8.5s40.667 15.834 60 30.501l-32 101c-24 -16.667 -45 -28.334 -63 -35.001s-36 -10 -54 -10c-12 0 -30.667 2 -56 6
c-21.333 2.66699 -39.666 4.83398 -54.999 6.50098s-33.666 2.5 -54.999 2.5c-22 -2.66699 -45 -14 -69 -34c-24 20 -47 31.333 -69 34c-21.333 0 -40.333 -0.833008 -57 -2.5s-34.334 -3.83398 -53.001 -6.50098c-25.333 -4 -44 -6 -56 -6c-18 0 -36 3.33301 -54 10
s-39 18.334 -63 35.001l-32 -101c20 -14.667 40.167 -24.834 60.5 -30.501s41.833 -8.5 64.5 -8.5c15.333 0 37.333 1.66699 66 5c27.333 2.66699 47.666 4 60.999 4c20 0 38.167 -2.5 54.5 -7.5s31.5 -13.833 45.5 -26.5c-41.333 0 -76.666 -5.16699 -105.999 -15.5
s-44 -20.5 -44 -30.5l34 -109c-18 -29.333 -33.333 -60.333 -46 -93c-11.333 -34 -17 -64.667 -17 -92c0 -40 15.167 -77.667 45.5 -113s73.5 -67 129.5 -95zM319.999 409.999c0 24.667 5 52 15 82c7.33301 20.667 15.833 39 25.5 55s16.167 25.667 19.5 29
c47.333 -8.66699 87.333 -13 120 -13c33.333 0 73.333 4.33301 120 13c3.33301 -3.33301 9.83301 -13 19.5 -29s18.167 -34.333 25.5 -55c10 -30 15 -57.333 15 -82c0 -18 -2.5 -34.833 -7.5 -50.5s-13.833 -31.667 -26.5 -48s-31 -32.833 -55 -49.5s-54.333 -34 -91 -52
c-36 17.333 -66.167 34.5 -90.5 51.5s-42.833 33.667 -55.5 50s-21.5 32.333 -26.5 48s-7.5 32.5 -7.5 50.5zM499.999 750.999c-18.667 22 -36.9971 37.167 -54.9971 45.5s-37 12.5 -57 12.5c-12 0 -30.333 -1.66699 -55 -5c-29.333 -4.66699 -52.333 -7 -69 -7
c-38 0 -75.333 8.33301 -112 25l13 48c33.333 -22.667 70.666 -34 111.999 -34c16 0 38.667 2 68 6c27.333 4 47.333 6 60 6c18.667 0 35.667 -3.16699 51 -9.5s30 -17.5 44 -33.5c14 16 28.667 27.167 44 33.5s32.666 9.5 51.999 9.5c12 0 31.333 -1.66699 58 -5
c29.333 -4.66699 51.666 -7 66.999 -7c42 0 80 12 114 36l13 -50c-36.667 -16.667 -74 -25 -112 -25c-16 0 -39 2.33301 -69 7c-24.667 3.33301 -42.667 5 -54 5c-20.667 0 -40 -4.16699 -58 -12.5s-36.333 -23.5 -55 -45.5zM500.002 629.999c31.333 0 58.5 1.33301 81.5 4
s44.167 8 63.5 16l-15 -44c-22.667 -7.33301 -43 -12.166 -61 -14.499s-41 -3.5 -69 -3.5s-51 1.16699 -69 3.5s-38.333 7.16602 -61 14.499l-15 44c19.333 -8 40.5 -13.333 63.5 -16s50.167 -4 81.5 -4zM502.002 660.999c-14 0 -30.1689 0.666992 -48.502 2
s-35.666 3 -51.999 5s-29.833 4.83301 -40.5 8.5s-16 7.5 -16 11.5c0 9.33301 13.5 16.333 40.5 21s65.833 7 116.5 7s89.5 -2.33301 116.5 -7s40.5 -11.667 40.5 -21c0 -4 -5.16699 -7.66699 -15.5 -11s-24.166 -6.33301 -41.499 -9s-34.833 -4.5 -52.5 -5.5
s-33.5 -1.5 -47.5 -1.5zM500 119.999c-7.33301 0 -14.167 2.66797 -20.5 8.00098s-9.83301 12.666 -10.5 21.999c0 8 2.66699 15 8 21s13 9 23 9c20.667 -1.33301 31 -11.333 31 -30c0 -8 -3.33301 -15 -10 -21s-13.667 -9 -21 -9z" />
    <glyph glyph-name="CB" unicode="c" horiz-adv-x="1000" 
d="M303 633c24 0 44.833 4.83301 62.5 14.5s26.5 26.167 26.5 49.5c-28.667 0 -50.667 -4.66699 -66 -14s-23 -26 -23 -50zM182 416c14.667 0 24.5 2.5 29.5 7.5s7.5 17.5 7.5 37.5c-13.333 0 -22.833 -2.5 -28.5 -7.5s-8.5 -17.5 -8.5 -37.5zM370 759
c8 8 17.3252 15 27.9922 21c6 3.33301 11.167 5.5 15.5 6.5s11.5 1.5 21.5 1.5l-4 -20h30c0.666992 14 2.33398 25.5 5.00098 34.5s8.33398 22.833 17.001 41.5l2 4c2 -2.66699 4.66699 -6.66699 8 -12c8.66699 -14 15.334 -25.833 20.001 -35.5s8 -20.5 10 -32.5h22v18
c36 -8 68.667 -22.333 98 -43c24.667 -17.333 47 -39 67 -65c16.667 -22.667 28.667 -41.667 36 -57c16.667 -30.667 31 -66 43 -106c14 -46.667 24 -94 30 -142c4.66699 -35.333 8.33398 -77.666 11.001 -126.999c0.666992 -40 1 -78.667 1 -116h-475
c0.666992 18.667 5.5 39.5 14.5 62.5s18.167 41.167 27.5 54.5c8 12 21.667 29.667 41 53c19.333 22.667 33 40 41 52c14 20 25 39.833 33 59.5s12 40.834 12 63.501c2 16 4 27.333 6 34s6.33301 16 13 28l-26 13c-6.66699 -10 -11 -18.667 -13 -26
s-3.33301 -16.666 -4 -27.999c-5.33301 -2.66699 -19.666 -9 -42.999 -19c-30.667 -14 -54 -25.333 -70 -34c-29.333 -15.333 -55.666 -33.666 -78.999 -54.999c-13.333 -12 -28.666 -29 -45.999 -51c-3.33301 -4.66699 -7 -7 -11 -7c-6 0 -9 4 -9 12v3
c0.666992 1.33301 1 2.66602 1 3.99902l6 7c6.66699 7.33301 12.334 14 17.001 20l-21 13c-3.33301 -5.33301 -6 -9.33301 -8 -12s-5.33301 -6 -10 -10l-2 -3c-5.33301 -3.33301 -11.333 -5 -18 -5c-3.33301 0 -8 0.666992 -14 2c-2 0.666992 -3.33301 1 -4 1
c-9.33301 1.33301 -17 6.66602 -23 15.999s-9.33301 21 -10 35c0 15.333 3.66699 32.666 11 51.999c16.667 20 29.334 37.333 38.001 52c7.33301 11.333 14.333 24 21 38l25 52l12 27c4 10.667 8.66699 22 14 34l16 35l8 18c8.66699 16 20.667 31.667 36 47
c3.33301 2.66699 5.33301 4.33398 6 5.00098l4 3l-5 19l-7 -4c0 14.667 -0.333008 30 -1 46l-1 8c11.333 -9.33301 19.5 -16.333 24.5 -21s9.5 -8.66699 13.5 -12c7.33301 -6.66699 11.666 -10.667 12.999 -12c0 -0.666992 -1 -2.33398 -3 -5.00098
c-3.33301 -4 -6 -7.66699 -8 -11c0 -0.666992 -0.333008 -2.33398 -1 -5.00098c-2 -8 -3 -14.667 -3 -20zM306.992 775c-3.33301 -4.66699 -7.66602 -9.99805 -12.999 -15.998c-3.33301 -3.33301 -6 -6.33301 -8 -9c-8 -10 -14 -19.333 -18 -28
c-1.33301 -2.66699 -3.66602 -7.66699 -6.99902 -15l-9.5 -21l-11 -25.5l-10.5 -24.5c-2 -6 -5.33301 -13 -10 -21l-2 -5c-2 -6 -5.33301 -13.333 -10 -22c-4 -8 -7.33301 -15.333 -10 -22c-1.33301 -3.33301 -4 -8.33301 -8 -15c-4 -7.33301 -7 -13 -9 -17
c-3.33301 -8 -8.33301 -16.667 -15 -26c-2 -2 -4 -4.33301 -6 -7s-4 -5 -6 -7c-6.66699 -6.66699 -13.334 -16 -20.001 -28c-2.66699 -5.33301 -5.33398 -15.666 -8.00098 -30.999v-7c-0.666992 -3.33301 -1 -5.66602 -1 -6.99902c0 -6.66699 0.666992 -14.334 2 -23.001
c2 -16 6.66699 -28.667 14 -38c5.33301 -6.66699 11.333 -12.667 18 -18c10 -6.66699 23.333 -11.334 40 -14.001c5.33301 0 11 0.333008 17 1h5c4.66699 -8 8.66699 -13.667 12 -17c6 -6 14.333 -9 25 -9c7.33301 1.33301 12.666 3 15.999 5
c5.33301 3.33301 10.333 7.33301 15 12c2 2.66699 4.66699 5.66699 8 9c2.66699 3.33301 4.33398 5.33301 5.00098 6c9.33301 11.333 17.333 20.333 24 27c5.33301 5.33301 12.666 12 21.999 20l2 2c1.33301 1.33301 5.33301 4.33301 12 9s10.667 7.33398 12 8.00098
c4 2 9.66699 5.33301 17 10c6.66699 4 12 7 16 9l18 10c6.66699 4 12 6.66699 16 8c4.66699 1.33301 10.667 4 18 8c2.66699 1.33301 4.33398 2.33301 5.00098 3c6.66699 2 16 6 28 12c0 -18 -3.33301 -35.167 -10 -51.5s-16.334 -32.833 -29.001 -49.5
c-6 -8.66699 -16.333 -21.667 -31 -39c-25.333 -30 -43.333 -53.667 -54 -71c-13.333 -22 -23.833 -45.167 -31.5 -69.5s-11.5 -51.166 -11.5 -80.499h556c0 38.667 -0.666992 66.667 -2 84c-1.33301 32 -2.66602 56 -3.99902 72
c-0.666992 14.667 -2.33398 32.667 -5.00098 54l-3 27c-1.33301 20.667 -5.66602 46.334 -12.999 77.001c-6 34 -13 64 -21 90c-5.33301 21.333 -12.333 41.666 -21 60.999c-6 15.333 -13 30.666 -21 45.999c-5.33301 11.333 -12 23.333 -20 36
c-14.667 26 -34.334 51.333 -59.001 76c-20 20 -35 32.667 -45 38c-11.333 8.66699 -27.333 18 -48 28c-11.333 6.66699 -23.666 12 -36.999 16s-27.666 7.66699 -42.999 11c-3.33301 6.66699 -7.33301 14 -12 22c-0.666992 0.666992 -1.33398 2 -2.00098 4
c-2 3.33301 -5 7.66602 -9 12.999c-6.66699 10 -13.667 18.667 -21 26c-2 3.33301 -6 7.33301 -12 12c-3.33301 2.66699 -6 5 -8 7c-4 -7.33301 -8.33301 -17.333 -13 -30c-1.33301 -2.66699 -3 -6.66699 -5 -12c-0.666992 -2.66699 -2.66699 -8 -6 -16
c-3.33301 -7.33301 -6.33301 -15.333 -9 -24c-15.333 0 -27.333 -0.666992 -36 -2c-2 2.66699 -5 6 -9 10l-10 10c-4 3.33301 -7.66699 6.66602 -11 9.99902c-10 10 -21 19 -33 27c-6.66699 5.33301 -12 9.33301 -16 12l-3 2c-10 7.33301 -17.333 11.666 -22 12.999l1 -30
l1 -22l1 -30l1 -18z" />
    <glyph glyph-name="DBg" unicode="d" horiz-adv-x="500" 
d="M441 466l58.999 287v57c-11.333 0 -21 4.66699 -29 14c-6.66699 8 -10 16.333 -10 25c0 10.667 3.66699 19.667 11 27c8 8 17.333 12 28 12v25c-18 0 -33.667 -6.66699 -47 -20c-11.333 -11.333 -17 -26 -17 -44c0 -16 5.66699 -30.333 17 -43
c10 -10 20.667 -16.333 32 -19l-65 -290l-94 274c9.33301 4 17.333 10.333 24 19c7.33301 10.667 11 22.667 11 36c0 17.333 -6 32 -18 44c-11.333 11.333 -25.666 17 -42.999 17c-18 0 -33 -6.66699 -45 -20c-10.667 -12 -16 -25.667 -16 -41c0 -14.667 5 -28 15 -40
c10 -11.333 22.667 -18 38 -20l-2 -284l-128 212c8.66699 6 15 14 19 24c3.33301 8.66699 5 17 5 25c0 18 -6.33301 32.667 -19 44c-11.333 11.333 -25.333 17 -42 17c-19.333 0 -35 -7 -47 -21c-9.33301 -11.333 -14 -24.666 -14 -39.999c0 -14.667 5 -28 15 -40
c12 -14 27.333 -21 46 -21l51 -228c6.66699 -22 13.167 -40 19.5 -54s12.833 -26.333 19.5 -37l7 -11c7.33301 -11.333 12.333 -20.5 15 -27.5s4 -16.833 4 -29.5c0 -13.333 -5.33301 -32.333 -16 -57l-5 -12c-8 -18.667 -13.833 -33.334 -17.5 -44.001
s-5.5 -20.334 -5.5 -29.001c0 -10 10.5 -19.333 31.5 -28s49.833 -16 86.5 -22c34 -4.66699 65 -8 93 -10c29.333 -2 60 -3 92 -3v30c-32.667 0 -63.667 1 -93 3c-27.333 1.33301 -58 4.66602 -92 9.99902c-26.667 4.66699 -48 9.83398 -64 15.501s-24 11.167 -24 16.5
c0 3.33301 8.16699 7.83301 24.5 13.5s37.166 10.5 62.499 14.5c32 4.66699 62.667 8 92 10s60.666 3 93.999 3v30c-32.667 0 -64 -1 -94 -3c-36 -2 -67 -5.33301 -93 -10c-25.333 -4.66699 -50.333 -10.667 -75 -18l12 34c21.333 6 42.333 10.667 63 14
c36 5.33301 66.667 8.66602 92 9.99902c30 2 61.667 3 95 3v30c-33.333 0 -65 -1 -95 -3c-27.333 -1.33301 -58 -4.66602 -92 -9.99902c-1.33301 0 -5.66602 -0.666992 -12.999 -2c-15.333 -2.66699 -26.666 -5 -33.999 -7c2.66699 9.33301 4 17.333 4 24
c0 7.33301 -2 16.666 -6 27.999c12 3.33301 28 6.33301 48 9c26 4 56.667 7 92 9c20 1.33301 52 2 96 2v30c-32.667 0 -64.667 -1 -96 -3c-34.667 -2 -65.334 -5 -92.001 -9c-15.333 -2 -34.333 -5.66699 -57 -11c-4.66699 10.667 -11 22.334 -19 35.001
c-6.66699 10.667 -12 20.167 -16 28.5s-8.33301 20.5 -13 36.5l-51 207l127 -213c2 0.666992 6.33301 1.33398 13 2.00098c6 1.33301 11 2.33301 15 3l2 1h2v278l87 -267h4c14.667 1.33301 26.334 2 35.001 2zM299.999 790c-11.333 0 -20.667 4.33203 -28 12.999
c-5.33301 6.66699 -8 14.334 -8 23.001c0 10 3.33301 18.333 10 25c7.33301 7.33301 16 11 26 11s18 -3 24 -9c8 -8 12 -17 12 -27c0 -8 -3 -15.667 -9 -23c-7.33301 -8.66699 -16.333 -13 -27 -13zM124.998 706.999c-11.333 0 -20.668 4.33301 -28.001 13
c-5.33301 6.66699 -8 14.334 -8 23.001c0 8 3 15.667 9 23c7.33301 8.66699 16.333 13 27 13c10 0 18 -3 24 -9c8 -8 12 -17 12 -27c0 -8.66699 -2.66699 -16.334 -8 -23.001c-7.33301 -8.66699 -16.666 -13 -27.999 -13z" />
    <glyph glyph-name="DBd" unicode="e" horiz-adv-x="500" 
d="M375 707c-11.333 0 -20.668 4.33301 -28.001 13c-5.33301 6.66699 -8 14.334 -8 23.001c0 10 4 19 12 27c6 6 14 9 24 9c10.667 0 19.667 -4.33301 27 -13c6 -7.33301 9 -15 9 -23c0 -8.66699 -2.66699 -16.334 -8 -23.001c-7.33301 -8.66699 -16.666 -13 -27.999 -13z
M199.998 790c-10.667 0 -19.668 4.33398 -27.001 13.001c-6 7.33301 -9 15 -9 23c0 10 4 19 12 27c6 6 14 9 24 9s18.667 -3.66699 26 -11c6.66699 -6.66699 10 -15 10 -25c0 -8.66699 -2.66699 -16.334 -8 -23.001c-7.33301 -8.66699 -16.666 -13 -27.999 -13z
M58.9971 466.001c8.66699 0 20.3311 -0.665039 34.998 -1.99805h4l87 267v-278h2l2 -1c4 -0.666992 9 -1.66699 15 -3c6.66699 -0.666992 11 -1.33398 13 -2.00098l127 213l-51 -207c-4.66699 -16 -9.16699 -28.5 -13.5 -37.5s-9.5 -18.167 -15.5 -27.5
c-8 -12.667 -14.333 -24.334 -19 -35.001c-22.667 5.33301 -41.667 9 -57 11c-26.667 4 -57.334 7 -92.001 9c-30.667 2 -62.667 3 -96 3v-30c44 0 76 -0.666992 96 -2c35.333 -2 66 -5 92 -9c20 -2.66699 36 -5.66699 48 -9c-4 -11.333 -6 -20.666 -6 -27.999
c0 -6.66699 1.33301 -14.667 4 -24c-7.33301 2 -18.666 4.33301 -33.999 7c-7.33301 1.33301 -11.666 2 -12.999 2c-33.333 5.33301 -64 8.66602 -92 9.99902c-30 2 -61.667 3 -95 3v-30c33.333 0 65 -1 95 -3c25.333 -1.33301 56 -4.66602 92 -9.99902
c21.333 -3.33301 42.333 -8 63 -14l12 -34c-24.667 7.33301 -49.667 13.333 -75 18c-26 4.66699 -57 8 -93 10c-30 2 -61.333 3 -94 3v-30c34 0 65.333 -1 94 -3c29.333 -2 60 -5.33301 92 -10c25.333 -4 46.166 -8.83301 62.499 -14.5s24.5 -10.167 24.5 -13.5
c0 -5.33301 -8 -10.833 -24 -16.5s-37.333 -10.834 -64 -15.501c-34 -5.33301 -64.667 -8.66602 -92 -9.99902c-28.667 -2 -59.667 -3 -93 -3v-30c32.667 0 63.334 1 92.001 3c28 2 59 5.33301 93 10c36.667 6 65.5 13.333 86.5 22s31.5 18 31.5 28
c0 8.66699 -2 18.5 -6 29.5s-9.66699 25.5 -17 43.5l-5 12c-10.667 24.667 -16 43.667 -16 57c0 12.667 1.33301 22.5 4 29.5s7.66699 16.167 15 27.5l7 11c6.66699 10.667 13.167 23 19.5 37s12.833 32 19.5 54l51 228c18.667 0 34 7 46 21c10 12 15 25.333 15 40
c0 15.333 -4.66699 28.666 -14 39.999c-12 14 -27.667 21 -47 21c-16.667 0 -30.667 -5.66699 -42 -17c-12.667 -11.333 -19 -26 -19 -44c0 -8 1.66699 -16.333 5 -25c4.66699 -10 11 -18 19 -24l-128 -212l-2 284c15.333 2 28 8.66699 38 20c10 12 15 25.333 15 40
c0 15.333 -5.33301 29 -16 41c-12 13.333 -27 20 -45 20c-17.333 0 -31.666 -5.66699 -42.999 -17c-12 -12 -18 -26.667 -18 -44c0 -13.333 3.66699 -25.333 11 -36c6.66699 -8.66699 14.667 -15 24 -19l-94 -274l-65 290c11.333 2.66699 22 9 32 19
c11.333 12.667 17 27 17 43c0 18 -5.66699 32.667 -17 44c-13.333 13.333 -29 20 -47 20v-25c10.667 0 20 -4 28 -12c7.33301 -7.33301 11 -16.333 11 -27c0 -8.66699 -3.33301 -17 -10 -25c-8 -9.33301 -17.667 -14 -29 -14v-57z" />
    <glyph glyph-name="FB" unicode="f" horiz-adv-x="1000" 
d="M536 803c16.667 12 24.998 27.668 24.998 47.001c0 16.667 -6 30.834 -18 42.501s-26.333 17.5 -43 17.5c-17.333 0 -31.833 -5.83301 -43.5 -17.5s-17.5 -25.834 -17.5 -42.501c0 -8.66699 2.33301 -17.334 7 -26.001s10.667 -15.667 18 -21
c-56 -28 -99.167 -59.5 -129.5 -94.5s-45.5 -72.833 -45.5 -113.5c0 -27.333 5.66699 -58 17 -92c12.667 -32.667 28 -63.667 46 -93l-34 -109c0 -10 14.667 -20.167 44 -30.5s64.666 -15.5 105.999 -15.5c-14.667 -12.667 -30.167 -21.5 -46.5 -26.5
s-34.166 -7.5 -53.499 -7.5c-13.333 0 -33.666 1.66699 -60.999 5c-28.667 2.66699 -50.667 4 -66 4c-22.667 0 -44.167 -2.83301 -64.5 -8.5s-40.5 -15.834 -60.5 -30.501l32 -101c24 16.667 45 28.334 63 35.001s36 10 54 10c12 0 30.667 -2 56 -6
c22 -2.66699 40.5 -4.83398 55.5 -6.50098s33.167 -2.5 54.5 -2.5c22 2.66699 45 14 69 34c24 -20 47 -31.333 69 -34c21.333 0 40.333 0.833008 57 2.5s34.334 3.83398 53.001 6.50098c25.333 4 44 6 56 6c18 0 36 -3.33301 54 -10s39 -18.334 63 -35.001l32 101
c-19.333 14.667 -39.333 24.834 -60 30.501s-42.334 8.5 -65.001 8.5c-15.333 0 -37.333 -1.33301 -66 -4c-27.333 -3.33301 -47.666 -5 -60.999 -5c-19.333 0 -37.166 2.5 -53.499 7.5s-31.833 13.833 -46.5 26.5c41.333 0 76.666 5.16699 105.999 15.5s44 20.5 44 30.5
l-34 109c18 29.333 33.333 60.333 46 93c11.333 34 17 64.667 17 92c0 40.667 -15 78.5 -45 113.5s-73.333 66.5 -130 94.5zM679.998 590.001c0 -24.667 -5 -52 -15 -82c-7.33301 -20.667 -15.833 -39 -25.5 -55s-16.167 -25.667 -19.5 -29
c-46.667 9.33301 -86.667 14 -120 14c-32.667 0 -72.667 -4.66699 -120 -14c-3.33301 3.33301 -9.83301 13 -19.5 29s-18.167 34.333 -25.5 55c-10 30 -15 57.333 -15 82c0 18 2.5 35 7.5 51s13.833 32 26.5 48s31 32.333 55 49s54.333 34 91 52
c36.667 -17.333 67 -34.5 91 -51.5s42.333 -33.5 55 -49.5s21.5 -32 26.5 -48s7.5 -33 7.5 -51zM499.998 249.001c18.667 -22 37.001 -37.168 55.001 -45.501s37.333 -12.5 58 -12.5c10.667 0 28.667 2 54 6c29.333 4 52.333 6 69 6c38 0 75.333 -8.33301 112 -25l-13 -48
c-33.333 22.667 -70.666 34 -111.999 34c-16 0 -38.667 -2 -68 -6c-27.333 -4 -47.333 -6 -60 -6c-18.667 0 -35.667 3.16699 -51 9.5s-30 17.5 -44 33.5c-14 -16 -28.667 -27.167 -44 -33.5s-32.333 -9.5 -51 -9.5c-12.667 0 -32.334 1.66699 -59.001 5
c-29.333 4.66699 -51.666 7 -66.999 7c-20 0 -39.333 -2.66699 -58 -8s-37.334 -14.666 -56.001 -27.999l-13 50c36.667 16.667 74 25 112 25c16.667 0 39.667 -2 69 -6c25.333 -4 43.666 -6 54.999 -6c20 0 39 4.33301 57 13s36.333 23.667 55 45zM499.999 370
c-31.333 0 -58.5 -1.16699 -81.5 -3.5s-44.167 -7.83301 -63.5 -16.5l15 44c22.667 7.33301 43 12.166 61 14.499s41 3.5 69 3.5s51 -1.16699 69 -3.5s38.333 -7.16602 61 -14.499l15 -44c-19.333 8.66699 -40.5 14.167 -63.5 16.5s-50.167 3.5 -81.5 3.5zM497.999 339
c14 0 30.168 -0.5 48.501 -1.5s35.833 -2.66699 52.5 -5s30.167 -5.33301 40.5 -9s15.5 -7.5 15.5 -11.5c0 -8.66699 -13.5 -15.5 -40.5 -20.5s-65.833 -7.5 -116.5 -7.5s-89.5 2.5 -116.5 7.5s-40.5 11.833 -40.5 20.5c0 4 5.16699 7.66699 15.5 11
s24.166 6.33301 41.499 9s34.833 4.5 52.5 5.5s33.5 1.5 47.5 1.5zM500 880c7.33301 0 14.167 -2.66797 20.5 -8.00098s9.83301 -12.666 10.5 -21.999c0 -8 -2.66699 -15 -8 -21s-13 -9 -23 -9c-20.667 1.33301 -31 11.333 -31 30c0 8 3.33301 15 10 21s13.667 9 21 9z
M520.001 519.999v60h60v40h-60v60h-40v-60h-60v-40h60v-60h40z" />
    <glyph glyph-name="ZèbreB" unicode="g" horiz-adv-x="1000" 
d="M366 300c0 25.333 -4.83203 46.5 -14.499 63.5s-25.834 25.5 -48.501 25.5c0 -28.667 4.5 -50.667 13.5 -66s25.5 -23 49.5 -23zM584.001 182c0 14.667 -2.5 24.5 -7.5 29.5s-17.5 7.5 -37.5 7.5c0 -13.333 2.5 -22.833 7.5 -28.5s17.5 -8.5 37.5 -8.5zM241.001 370
c-8 8 -15 17.3252 -21 27.9922c-3.33301 6 -5.5 11.167 -6.5 15.5s-1.5 11.5 -1.5 21.5l20 -4v30c-14 0.666992 -25.5 2.33398 -34.5 5.00098s-22.833 8.33398 -41.5 17.001l-4 2c2.66699 2 6.66699 4.66699 12 8c14 8.66699 25.833 15.334 35.5 20.001s20.5 8 32.5 10v22
h-18c8 36 22.333 68.667 43 98c17.333 24.667 39 47 65 67c22.667 16.667 41.667 28.667 57 36c30.667 16.667 66 31 106 43c46.667 14 94 24 142 30c36 4.66699 78.333 8.33398 127 11.001c40 0.666992 78.667 1 116 1v-475c-18.667 0.666992 -39.5 5.5 -62.5 14.5
s-41.167 18.167 -54.5 27.5c-12 8 -29.333 21.667 -52 41c-23.333 19.333 -41 33 -53 41c-19.333 14 -39 25 -59 33s-41.333 12 -64 12c-16 2 -27.333 4 -34 6s-16 6.33301 -28 13l-13 -26c10 -6.66699 18.667 -11 26 -13s16.666 -3.33301 27.999 -4
c2.66699 -5.33301 9 -19.666 19 -42.999c14 -30.667 25.333 -54 34 -70c15.333 -29.333 33.666 -55.666 54.999 -78.999c12 -13.333 29 -28.666 51 -45.999c4.66699 -3.33301 7 -7 7 -11c0 -6 -4 -9 -12 -9h-3c-1.33301 0.666992 -2.66602 1 -3.99902 1l-7 6
c-7.33301 6.66699 -14 12.334 -20 17.001l-13 -21c5.33301 -3.33301 9.33301 -6 12 -8s6 -5.33301 10 -10l3 -2c3.33301 -5.33301 5 -11.333 5 -18c0 -3.33301 -0.666992 -8 -2 -14c-0.666992 -2 -1 -3.33301 -1 -4c-1.33301 -9.33301 -6.66602 -17 -15.999 -23
s-21 -9.33301 -35 -10c-15.333 0 -32.666 3.66699 -51.999 11c-20 16.667 -37.333 29.334 -52 38.001c-11.333 7.33301 -24 14.333 -38 21l-52 25l-27 12l-33.5 14l-35.5 16l-18 8c-16 8.66699 -31.667 20.667 -47 36c-2.66699 3.33301 -4.33398 5.33301 -5.00098 6l-3 4
l-19 -5l4 -7c-14 0 -29.333 -0.333008 -46 -1l-8 -1l21.5 24.5l11.5 13.5c6.66699 7.33301 10.667 11.666 12 12.999c0.666992 0 2.33398 -1 5.00098 -3c4 -3.33301 7.66699 -6 11 -8c0.666992 0 2.66699 -0.333008 6 -1c7.33301 -2 13.666 -3 18.999 -3zM225.001 306.992
c4.66699 -3.33301 9.99707 -7.66602 15.9971 -12.999c3.33301 -3.33301 6.33301 -6 9 -8c10 -8 19.333 -14 28 -18c2.66699 -1.33301 7.66699 -3.66602 15 -6.99902l21 -9.5l25.5 -11l24.5 -10.5c6 -2 13 -5.33301 21 -10l5 -2c6 -2 13.333 -5.33301 22 -10l22 -10
c3.33301 -1.33301 8.33301 -4 15 -8c7.33301 -4 13 -7 17 -9c8 -3.33301 16.667 -8.33301 26 -15c2 -2 4.33301 -4 7 -6s5 -4 7 -6c6.66699 -6.66699 16 -13.334 28 -20.001c6 -2.66699 16.333 -5.33398 31 -8.00098h7c3.33301 -0.666992 5.66602 -1 6.99902 -1
c6.66699 0 14.334 0.666992 23.001 2c16 2 28.667 6.66699 38 14c7.33301 5.33301 13.333 11.333 18 18c6.66699 10 11.334 23.333 14.001 40c0 5.33301 -0.333008 11 -1 17v5c8 4.66699 13.667 8.66699 17 12c6 6 9 14.333 9 25c-1.33301 7.33301 -3 12.666 -5 15.999
c-2.66699 5.33301 -6.66699 10.333 -12 15c-2.66699 2 -5.66699 4.66699 -9 8c-3.33301 2.66699 -5.33301 4.33398 -6 5.00098l-27 24c-5.33301 5.33301 -12 12.666 -20 21.999l-2 2c-0.666992 1.33301 -3.33398 5.33301 -8.00098 12s-7.66699 10.667 -9 12
c-2 4 -5 9.66699 -9 17c-4.66699 6.66699 -8 12 -10 16l-10 18c-4 6.66699 -6.66699 12 -8 16c-1.33301 4.66699 -4 10.667 -8 18c-1.33301 2.66699 -2.33301 4.33398 -3 5.00098c-2 6.66699 -6 16 -12 28c18 0 35.167 -3.33301 51.5 -10s32.833 -16.334 49.5 -29.001
c8.66699 -6 21.667 -16.333 39 -31c30 -25.333 53.667 -43.333 71 -54c22 -13.333 45.167 -23.833 69.5 -31.5s51.166 -11.5 80.499 -11.5v556c-38.667 0 -66.667 -0.666992 -84 -2c-32 -1.33301 -56 -2.66602 -72 -3.99902
c-14.667 -0.666992 -32.667 -2.33398 -54 -5.00098l-27 -3c-20.667 -1.33301 -46.334 -5.66602 -77.001 -12.999c-34 -6 -64 -13 -90 -21c-21.333 -5.33301 -41.666 -12.333 -60.999 -21c-15.333 -6 -30.666 -13 -45.999 -21c-11.333 -5.33301 -23.333 -12 -36 -20
c-26 -14.667 -51.333 -34.334 -76 -59.001c-20 -20 -32.667 -35 -38 -45c-8.66699 -11.333 -18 -27.333 -28 -48c-6 -11.333 -11.167 -23.666 -15.5 -36.999s-8.16602 -27.666 -11.499 -42.999c-6.66699 -3.33301 -14 -7.33301 -22 -12
c-0.666992 -0.666992 -2 -1.33398 -4 -2.00098c-3.33301 -2 -7.66602 -5 -12.999 -9c-10 -6.66699 -18.667 -13.667 -26 -21c-2.66699 -2 -6.66699 -6 -12 -12c-2.66699 -3.33301 -5 -6 -7 -8c7.33301 -4 17.333 -8.33301 30 -13c2.66699 -1.33301 6.66699 -3 12 -5
c2.66699 -0.666992 8 -2.66699 16 -6c7.33301 -3.33301 15.333 -6.33301 24 -9c0 -15.333 0.666992 -27.333 2 -36c-2.66699 -2 -6 -5 -10 -9l-10 -10c-3.33301 -4 -6.66602 -7.66699 -9.99902 -11c-10 -10 -19 -21 -27 -33c-5.33301 -6.66699 -9.33301 -12 -12 -16l-2 -3
c-6.66699 -10 -11 -17.333 -13 -22l30 1l22 1l30 1l18 1z" />
    <glyph glyph-name="RoseB" unicode="h" horiz-adv-x="1000" 
d="M634 700c0 -25.333 4.83203 -46.5 14.499 -63.5s25.834 -25.5 48.501 -25.5c0 28.667 -4.5 50.667 -13.5 66s-25.5 23 -49.5 23zM415.999 818c0 -14.667 2.5 -24.5 7.5 -29.5s17.5 -7.5 37.5 -7.5c0 13.333 -2.5 22.833 -7.5 28.5s-17.5 8.5 -37.5 8.5zM758.999 630
c8 -8 15 -17.3242 21 -27.9912c3.33301 -6 5.5 -11.167 6.5 -15.5s1.5 -11.5 1.5 -21.5l-20 4v-30c14 -0.666992 25.5 -2.33398 34.5 -5.00098s22.833 -8.33398 41.5 -17.001l4 -2c-2.66699 -2 -6.66699 -4.66699 -12 -8c-14 -8.66699 -25.833 -15.334 -35.5 -20.001
s-20.5 -8 -32.5 -10v-22h18c-8 -36 -22.333 -68.667 -43 -98c-17.333 -24.667 -39 -47 -65 -67c-22.667 -16 -41.667 -28 -57 -36c-30.667 -16.667 -66 -31 -106 -43c-46.667 -14 -94 -24 -142 -30c-35.333 -4.66699 -77.666 -8.33398 -126.999 -11.001
c-40 -0.666992 -78.667 -1 -116 -1v475c18.667 -0.666992 39.5 -5.5 62.5 -14.5s41.167 -18.167 54.5 -27.5c12 -8 29.667 -21.667 53 -41c22.667 -19.333 40 -33 52 -41c20 -14 39.833 -25 59.5 -33s40.834 -12 63.501 -12c16 -2 27.333 -4 34 -6s16 -6.33301 28 -13l13 26
c-10 6.66699 -18.667 11 -26 13s-16.666 3.33301 -27.999 4c-2.66699 5.33301 -9 19.666 -19 42.999c-14 30.667 -25.333 54 -34 70c-15.333 29.333 -33.666 55.666 -54.999 78.999c-12 13.333 -29 28.666 -51 45.999c-4.66699 3.33301 -7 7 -7 11c0 6 4 9 12 9h3
c1.33301 -0.666992 2.66602 -1 3.99902 -1l7 -6c7.33301 -6.66699 14 -12.334 20 -17.001l13 21l-12 9c-2.66699 2 -6 5 -10 9l-3 2c-3.33301 5.33301 -5 11.333 -5 18c0 3.33301 0.666992 8 2 14c0.666992 2 1 3.33301 1 4c1.33301 9.33301 6.66602 17 15.999 23
s21 9.33301 35 10c15.333 0 32.666 -3.66699 51.999 -11c20 -16.667 37.333 -29.334 52 -38.001c11.333 -7.33301 24 -14.333 38 -21l52 -25l27 -12c10.667 -4 22 -8.66699 34 -14l35 -16l18 -8c16 -8.66699 31.667 -20.667 47 -36
c2.66699 -2.66699 4.33398 -4.66699 5.00098 -6l3 -4l19 5l-4 7c14.667 0 30 0.666992 46 2h8c-9.33301 -11.333 -16.333 -19.5 -21 -24.5l-12 -12.5c-6.66699 -8 -10.667 -12.667 -12 -14c-0.666992 0 -2.33398 1 -5.00098 3c-4 3.33301 -7.66699 6 -11 8
c-0.666992 0 -2.33398 0.333008 -5.00098 1c-8 2 -14.667 3 -20 3zM774.999 693.009c-4.66699 3.33301 -9.99707 7.66309 -15.9971 12.9961c-3.33301 3.33301 -6.33301 6 -9 8c-10 8 -19.333 14 -28 18c-2.66699 1.33301 -7.66699 3.66602 -15 6.99902l-21 9.5l-25.5 11
l-24.5 10.5c-6 2 -13 5.33301 -21 10l-5 2l-22 10c-8 4 -15.333 7.33301 -22 10c-3.33301 1.33301 -8.33301 4 -15 8c-7.33301 4 -13 7 -17 9c-8 3.33301 -16.667 8.33301 -26 15c-2 2 -4.33301 4 -7 6s-5 4 -7 6c-6.66699 6.66699 -16 13.334 -28 20.001
c-5.33301 2.66699 -15.666 5.33398 -30.999 8.00098c-2 0 -4.33301 0.333008 -7 1h-7c-6.66699 0 -14.334 -0.666992 -23.001 -2c-16 -2 -28.667 -6.66699 -38 -14c-6.66699 -4.66699 -12.667 -10.667 -18 -18c-6.66699 -10 -11.334 -23.333 -14.001 -40
c0 -5.33301 0.333008 -11 1 -17v-5c-8 -4.66699 -13.667 -8.66699 -17 -12c-6 -6 -9 -14.333 -9 -25c1.33301 -7.33301 3 -12.666 5 -15.999c3.33301 -4.66699 7.33301 -9.66699 12 -15c2.66699 -2 5.66699 -4.66699 9 -8c3.33301 -2.66699 5.33301 -4.33398 6 -5.00098
c11.333 -8.66699 20.333 -16.667 27 -24c5.33301 -5.33301 12 -12.666 20 -21.999l2 -2c1.33301 -1.33301 4.33301 -5.33301 9 -12s7.33398 -10.667 8.00098 -12c2 -4 5.33301 -9.33301 10 -16c4 -7.33301 7 -13 9 -17l10 -18c4 -6.66699 6.66699 -12 8 -16
c1.33301 -4.66699 4 -10.667 8 -18c1.33301 -2.66699 2.33301 -4.33398 3 -5.00098c2 -6.66699 6 -16 12 -28c-18 0 -35.167 3.33301 -51.5 10s-32.833 16.334 -49.5 29.001c-8.66699 6 -21.667 16.667 -39 32c-30 24.667 -53.667 42.334 -71 53.001
c-22 13.333 -45.167 23.833 -69.5 31.5s-51.166 11.5 -80.499 11.5v-556c38.667 0 66.667 0.666992 84 2c32 1.33301 56 2.66602 72 3.99902l54 5l27 3c20.667 1.33301 46.334 5.66602 77.001 12.999c34 6 64 13 90 21c21.333 5.33301 41.666 12.333 60.999 21
c15.333 6 30.666 13 45.999 21c11.333 5.33301 23.333 12 36 20c26 14.667 51.333 34.334 76 59.001c20 20 32.667 35 38 45c8.66699 11.333 18 27.333 28 48c6.66699 11.333 12 23.833 16 37.5s7.66699 27.834 11 42.501c6.66699 3.33301 14 7.33301 22 12
c0.666992 0.666992 2 1.33398 4 2.00098c3.33301 2 7.66602 5 12.999 9c10 6.66699 18.667 13.667 26 21c3.33301 2 7.33301 6 12 12c2.66699 3.33301 5 6 7 8c-7.33301 4 -17.333 8.33301 -30 13c-2.66699 1.33301 -6.66699 3 -12 5c-2.66699 0.666992 -8 2.66699 -16 6
c-7.33301 3.33301 -15.333 6.33301 -24 9c0 15.333 -0.666992 27.333 -2 36c2.66699 2 6 5 10 9c3.33301 3.33301 6.66602 7 9.99902 11l10 10c10 10 19 21 27 33c5.33301 6.66699 9.33301 12 12 16l2 3c7.33301 10 11.666 17.333 12.999 22l-30 -1l-22 -1l-30 -1l-18 -1z
" />
    <glyph glyph-name="ImiB" unicode="i" horiz-adv-x="1000" 
d="M500 140c-9.33301 0 -17.668 0.336914 -25.001 1.00391c-21.333 1.33301 -44 6 -68 14c-10.667 2.66699 -22 6.5 -34 11.5l-40 17.5c-39.333 22 -73.666 50.333 -102.999 85c-20.667 22.667 -37.667 48.667 -51 78c-0.666992 1.33301 -1.66699 3 -3 5
c-1.33301 3.33301 -2.33301 6 -3 8c-5.33301 10.667 -11.333 26 -18 46c-0.666992 2.66699 -1.66699 7.33398 -3 14.001c-0.666992 2.66699 -1.33398 5 -2.00098 7c-4.66699 29.333 -7 53.666 -7 72.999c0 20.667 3 47.334 9 80.001c4 20 10.333 39.667 19 59
c11.333 25.333 21 43.666 29 54.999c10.667 16 19.667 28 27 36c18 21.333 35 38 51 50c2 1.33301 6 4.33301 12 9c14 11.333 25.333 19 34 23c14.667 9.33301 34.334 18.666 59.001 27.999c36 14 75 21 117 21c16 0 28.667 -0.666992 38 -2s21 -3.33301 35 -6
c35.333 -8.66699 63 -18.334 83 -29.001c25.333 -10 45.666 -22 60.999 -36c18 -12.667 37.333 -31.667 58 -57c10.667 -10.667 21 -24.334 31 -41.001c13.333 -21.333 23 -41 29 -59c14.667 -40 22 -83.667 22 -131c0 -23.333 -2 -45.666 -6 -66.999
c-3.33301 -20 -9 -41 -17 -63c-2.66699 -9.33301 -9 -23 -19 -41c-2 -2.66699 -3 -4.33398 -3 -5.00098c-13.333 -22.667 -25.666 -41 -36.999 -55c-12 -14 -23.667 -26.667 -35 -38c-20 -16 -36 -28 -48 -36c-12.667 -9.33301 -25.667 -16.333 -39 -21
c-12.667 -6.66699 -33 -14 -61 -22c-14 -4.66699 -32 -8.33398 -54 -11.001h-15c-9.33301 -0.666992 -17 -1 -23 -1zM499.998 110.004c11.333 0 25.001 0.662109 41.001 1.99512c22.667 2 42.334 5.33301 59.001 10c24.667 6.66699 47 14.667 67 24
c15.333 7.33301 29.666 15 42.999 23c18 12 35 25 51 39c16 14.667 29 28.334 39 41.001c16 20.667 29.667 40.667 41 60c9.33301 17.333 17 34 23 50c9.33301 24 15.666 46.333 18.999 67c4.66699 22.667 7 47.334 7 74.001c0 51.333 -8.33301 98.666 -25 141.999
c-7.33301 20.667 -17.666 42 -30.999 64c-10 16 -21 31 -33 45c-20 24.667 -41.333 45.334 -64 62.001c-18 14 -40 27 -66 39c-31.333 14.667 -61.666 24.667 -90.999 30c-28 5.33301 -54.667 8 -80 8c-46 0 -89 -7.33301 -129 -22
c-21.333 -7.33301 -42.666 -17.333 -63.999 -30c-14.667 -8 -31.334 -19.667 -50.001 -35c-21.333 -16.667 -40 -34.667 -56 -54c-10.667 -12.667 -20.334 -25.334 -29.001 -38.001c-10.667 -15.333 -21.334 -35.666 -32.001 -60.999
c-8.66699 -21.333 -15.334 -42.666 -20.001 -63.999c-6.66699 -31.333 -10 -60 -10 -86c0 -24.667 2.66699 -51 8 -79c0.666992 -1.33301 1.66699 -5 3 -11c2 -6.66699 3 -10.667 3 -12c5.33301 -18 11.333 -34.667 18 -50c0.666992 -1.33301 2 -3.66602 4 -6.99902
c1.33301 -3.33301 2.33301 -5.66602 3 -6.99902c15.333 -32 34 -60.333 56 -85c34.667 -38.667 72.334 -69 113.001 -91c28 -14.667 55 -25.667 81 -33c25.333 -7.33301 50 -12 74 -14c7.33301 -0.666992 16.333 -1 27 -1z" />
    <glyph glyph-name="BérolinaB" unicode="j" horiz-adv-x="1000" 
d="M200 890c0.666992 -44.667 5.5 -87.167 14.5 -127.5s21.5 -75.5 37.5 -105.5c15.333 -30 33.5 -53.833 54.5 -71.5s43.5 -27.834 67.5 -30.501c-14 -4.66699 -26.333 -17.334 -37 -38.001c-5.33301 -10 -9.83301 -21 -13.5 -33s-5.5 -22.667 -5.5 -32
c0 -26.667 5 -51.667 15 -75c7.33301 -16 18 -31.667 32 -47c16 -17.333 33 -30.666 51 -39.999c-5.33301 -5.33301 -11 -14 -17 -26c-6.66699 -17.333 -10 -32 -10 -44c0 -17.333 4.33301 -33.666 13 -48.999c7.33301 -16 20 -30.333 38 -43c20 -12 40 -18 60 -18
c20.667 0 40.667 6 60 18c18 12.667 30.667 27 38 43c8.66699 15.333 13 31.666 13 48.999c0 12 -3.33301 26.667 -10 44c-6 12 -11.667 20.667 -17 26c18 9.33301 35 22.666 51 39.999c14 15.333 24.667 31 32 47c10 23.333 15 48.333 15 75c0 9.33301 -1.83301 20 -5.5 32
s-8.16699 23 -13.5 33c-10.667 20.667 -23 33.334 -37 38.001c24 2.66699 46.5 12.834 67.5 30.501s39.167 41.5 54.5 71.5c16 30 28.5 65.167 37.5 105.5s13.833 82.833 14.5 127.5h-600zM500 143c-10.667 1.33301 -17.1689 2.16504 -19.502 2.49805
s-6.83301 1.5 -13.5 3.5l-6 4l-12 8c-2 1.33301 -6 5.33301 -12 12c-4.66699 7.33301 -8 14 -10 20s-3.66699 15 -5 27c0 10 2.33301 22 7 36c1.33301 2.66699 2.33301 5.33398 3 8.00098l6 6c0.666992 0.666992 1.33398 1.5 2.00098 2.5s2.66699 3.5 6 7.5l3 2
c7.33301 5.33301 11 9 11 11c0 2.66699 -4.33301 5.66699 -13 9c-12.667 4.66699 -26.667 13.667 -42 27c-2 1.33301 -4.66699 3.33301 -8 6c-6.66699 6.66699 -12.334 13 -17.001 19s-9.33398 13.667 -14.001 23c-10 20 -15 45 -15 75c2 10.667 4 19.334 6 26.001
s5 15 9 25l1 3l6 8c3.33301 4.66699 5.83301 7.83398 7.5 9.50098s5.83398 5.16699 12.501 10.5c17.333 10 26 17.667 26 23s-4.66699 10 -14 14c-24.667 2.66699 -47.667 12.5 -69 29.5s-40.333 39.833 -57 68.5c-14.667 26 -26 55.167 -34 87.5s-12.333 66.833 -13 103.5
h536c-0.666992 -36.667 -5 -71.167 -13 -103.5s-19.333 -61.5 -34 -87.5c-16 -28.667 -34.833 -51.5 -56.5 -68.5s-44.834 -26.833 -69.501 -29.5c-9.33301 -4 -14 -8.66699 -14 -14s8.66699 -13 26 -23c6.66699 -5.33301 10.834 -8.83301 12.501 -10.5
s4.16699 -4.83398 7.5 -9.50098l6 -8l1 -3c4.66699 -10.667 7.83398 -19.167 9.50098 -25.5s3.5 -14.833 5.5 -25.5c0 -30 -5 -55 -15 -75c-4.66699 -9.33301 -9.33398 -17 -14.001 -23s-10.334 -12.333 -17.001 -19c-3.33301 -2.66699 -6 -4.66699 -8 -6
c-15.333 -13.333 -29.333 -22.333 -42 -27c-8.66699 -3.33301 -13 -6.33301 -13 -9c0 -2 3.66699 -5.66699 11 -11l3 -2c3.33301 -4 5.33301 -6.5 6 -7.5s1.33398 -1.83301 2.00098 -2.5l6 -6c0.666992 -2.66699 1.66699 -5.33398 3 -8.00098c4.66699 -14 7 -26 7 -36
c-1.33301 -12 -3 -21 -5 -27s-5.33301 -12.667 -10 -20l-1 -1c-5.33301 -6 -9.16602 -9.83301 -11.499 -11.5s-8.16602 -5.5 -17.499 -11.5c-6.66699 -2 -11.167 -3.16699 -13.5 -3.5s-8.83301 -1.16602 -19.5 -2.49902z" />
    <glyph glyph-name="RoiImmobileB" unicode="k" horiz-adv-x="1000" 
d="M520 213c21.333 5.33301 40 21.333 56 48s24 59 24 97c44 -32.667 91.667 -49 143 -49c44.667 0 82 12.5 112 37.5s45 57.833 45 98.5c0 32 -10.833 67.167 -32.5 105.5s-55.5 78.5 -101.5 120.5v167c0 10 -7 19.333 -21 28s-33.333 16.334 -58 23.001
s-53.167 11.834 -85.5 15.501s-66.166 5.5 -101.499 5.5c-36 0 -70.167 -1.83301 -102.5 -5.5s-60.833 -8.83398 -85.5 -15.501s-43.834 -14.334 -57.501 -23.001s-20.5 -18 -20.5 -28v-167c-46 -42 -79.833 -82.167 -101.5 -120.5s-32.5 -73.5 -32.5 -105.5
c0 -40.667 15.167 -73.5 45.5 -98.5s67.5 -37.5 111.5 -37.5c24 0 48.333 4 73 12s48 20.333 70 37c0 -38 8 -70.333 24 -97s34.667 -42.667 56 -48v-53h-40v-40h40v-40h40v40h40v40h-40v53zM484 605c0 -45.333 -6.5 -85.333 -19.5 -120s-30.333 -63.167 -52 -85.5
s-45.5 -39 -71.5 -50s-52.333 -16.5 -79 -16.5c-38 0 -70 10.333 -96 31s-39 48.334 -39 83.001c0 28 9.83301 59.167 29.5 93.5s50.5 70.833 92.5 109.5c14.667 -10 42.5 -19.833 83.5 -29.5s91.5 -14.834 151.5 -15.501zM425 376c16.667 15.333 31.168 34.333 43.501 57
s22.833 50 31.5 82c8 -32 18.5 -59.5 31.5 -82.5s27.5 -41.833 43.5 -56.5c0 -43.333 -7.5 -77.166 -22.5 -101.499s-32.5 -36.5 -52.5 -36.5c-20.667 0 -38.334 12.167 -53.001 36.5s-22 58.166 -22 101.499zM516.001 605c60.667 0.666992 111.332 5.83398 151.999 15.501
s68.334 19.5 83.001 29.5c42 -38.667 72.833 -75.167 92.5 -109.5s29.5 -65.5 29.5 -93.5c0 -34.667 -13 -62.334 -39 -83.001s-58 -31 -96 -31c-26 0 -52.167 5.5 -78.5 16.5s-50.333 27.667 -72 50s-39 50.833 -52 85.5s-19.5 74.667 -19.5 120zM260.999 748
c14 -13.333 43.167 -24.5 87.5 -33.5s94.833 -13.5 151.5 -13.5s107.167 4.5 151.5 13.5s73.5 20.167 87.5 33.5v-71c-14 -13.333 -43.167 -24.5 -87.5 -33.5s-94.833 -13.5 -151.5 -13.5s-107.167 4.5 -151.5 13.5s-73.5 20.167 -87.5 33.5v71zM260.999 813
c14 -13.333 43.167 -24.5 87.5 -33.5s94.833 -13.5 151.5 -13.5s107.167 4.5 151.5 13.5s73.5 20.167 87.5 33.5v-40c-14 -13.333 -43.167 -24.5 -87.5 -33.5s-94.833 -13.5 -151.5 -13.5s-107.167 4.5 -151.5 13.5s-73.5 20.167 -87.5 33.5v40zM738.999 838
c-14 -13.333 -43.167 -24.5 -87.5 -33.5s-94.833 -13.5 -151.5 -13.5s-107.167 4.5 -151.5 13.5s-73.5 20.167 -87.5 33.5c14 13.333 43.167 24.5 87.5 33.5s94.833 13.5 151.5 13.5s107.167 -4.5 151.5 -13.5s73.5 -20.167 87.5 -33.5z" />
    <glyph glyph-name="VaoB" unicode="l" horiz-adv-x="1000" 
d="M420 420v60h60v40h-60v60h-40v-60h-60v-40h60v-60h40zM197 536c-12 16.667 -27.668 24.999 -47.001 24.999c-16.667 0 -30.834 -6 -42.501 -18s-17.5 -26.333 -17.5 -43c0 -17.333 5.83301 -31.833 17.5 -43.5s25.834 -17.5 42.501 -17.5c9.33301 0 18.333 2.33301 27 7
s15.334 10.667 20.001 18c28 -56 59.667 -99.167 95 -129.5s73 -45.5 113 -45.5c27.333 0 58 5.66699 92 17c32.667 12.667 63.667 28 93 46l109 -34c10 0 20.167 14.667 30.5 44s15.5 64.666 15.5 105.999c12.667 -14.667 21.5 -30 26.5 -46s7.5 -34 7.5 -54
c0 -13.333 -1.33301 -33.666 -4 -60.999c-3.33301 -28.667 -5 -50.667 -5 -66c0 -22.667 2.83301 -44.167 8.5 -64.5s15.834 -40.5 30.501 -60.5l101 32c-16.667 24 -28.334 45 -35.001 63s-10 36 -10 54c0 12 2 30.667 6 56c2.66699 22 4.83398 40.5 6.50098 55.5
s2.5 33.167 2.5 54.5c-2.66699 22 -14 45 -34 69c20 24 31.333 47 34 69c0 21.333 -0.833008 40.333 -2.5 57s-3.83398 34.334 -6.50098 53.001c-4 25.333 -6 44 -6 56c0 18 3.33301 36 10 54s18.334 39 35.001 63l-101 32c-14.667 -19.333 -24.834 -39.333 -30.501 -60
s-8.5 -42.334 -8.5 -65.001c0 -15.333 1.66699 -37.333 5 -66c2.66699 -27.333 4 -47.666 4 -60.999c0 -19.333 -2.5 -37.166 -7.5 -53.499s-13.833 -31.833 -26.5 -46.5c0 41.333 -5.16699 76.666 -15.5 105.999s-20.5 44 -30.5 44l-109 -34
c-29.333 18 -60.333 33.333 -93 46c-34 11.333 -64.667 17 -92 17c-40 0 -77.667 -15 -113 -45s-67 -73.333 -95 -130zM409.999 679.999c24.667 0 52 -5 82 -15c20.667 -7.33301 39 -15.833 55 -25.5s25.667 -16.167 29 -19.5c-8.66699 -46.667 -13 -86.667 -13 -120
c0 -32.667 4.33301 -72.667 13 -120c-3.33301 -3.33301 -13 -9.83301 -29 -19.5s-34.333 -18.167 -55 -25.5c-30 -10 -57.333 -15 -82 -15c-18 0 -34.833 2.5 -50.5 7.5s-31.667 13.833 -48 26.5s-32.833 31 -49.5 55s-34 54.333 -52 91c17.333 36.667 34.5 67 51.5 91
s33.667 42.333 50 55s32.333 21.5 48 26.5s32.5 7.5 50.5 7.5zM750.999 499.999c22 18.667 37.167 36.999 45.5 54.999s12.5 37.333 12.5 58c0 11.333 -1.66699 29.333 -5 54c-4.66699 30 -7 53 -7 69c0 38 8.33301 75.333 25 112l48 -13
c-22.667 -33.333 -34 -70.666 -34 -111.999c0 -16 2 -38.667 6 -68c4 -27.333 6 -47.333 6 -60c0 -18.667 -3.16699 -35.667 -9.5 -51s-17.5 -30 -33.5 -44c16 -14 27.167 -28.667 33.5 -44s9.5 -32.333 9.5 -51c0 -12.667 -1.66699 -32.334 -5 -59.001
c-4.66699 -29.333 -7 -51.666 -7 -66.999c0 -42 12 -80 36 -114l-50 -13c-16.667 36.667 -25 74 -25 112c0 16.667 2.33301 39.667 7 69c3.33301 24.667 5 43 5 55c0 20 -4.16699 39 -12.5 57s-23.5 36.333 -45.5 55zM629.999 499.998c0 -31.333 1.33301 -58.5 4 -81.5
s8 -44.167 16 -63.5l-44 15c-7.33301 22.667 -12.166 43 -14.499 61s-3.5 41 -3.5 69s1.16699 51 3.5 69s7.16602 38.333 14.499 61l44 15c-8 -19.333 -13.333 -40.5 -16 -63.5s-4 -50.167 -4 -81.5zM660.999 497.998c0 14 0.666992 30.168 2 48.501s3 35.833 5 52.5
s4.83301 30.167 8.5 40.5s7.5 15.5 11.5 15.5c9.33301 0 16.333 -13.5 21 -40.5s7 -65.833 7 -116.5s-2.33301 -89.5 -7 -116.5s-11.667 -40.5 -21 -40.5c-4 0 -7.66699 5.16699 -11 15.5s-6.33301 24.166 -9 41.499s-4.5 34.833 -5.5 52.5s-1.5 33.5 -1.5 47.5z
M119.999 499.999c0 7.33301 2.66797 14.167 8.00098 20.5s12.666 9.83301 21.999 10.5c8 0 15 -2.66699 21 -8s9 -13 9 -23c-1.33301 -20.667 -11.333 -31 -30 -31c-8 0 -15 3.33301 -21 10s-9 13.667 -9 21z" />
    <glyph glyph-name="FersB" unicode="m" horiz-adv-x="1000" 
d="M620 420v60h60v40h-60v60h-40v-60h-60v-40h60v-60h40zM880 500c0 -7.33301 -2.99902 -14.334 -8.99902 -21.001s-13 -10 -21 -10c-18.667 0 -28.667 10.333 -30 31c0 10 3 17.667 9 23s13 8 21 8c9.33301 -0.666992 16.666 -4.16699 21.999 -10.5s8 -13.166 8 -20.499z
M339.001 497.999c0 -14 -0.5 -30.1689 -1.5 -48.502s-2.66699 -35.666 -5 -51.999s-5.33301 -29.833 -9 -40.5s-7.5 -16 -11.5 -16c-8.66699 0 -15.5 13.5 -20.5 40.5s-7.5 65.833 -7.5 116.5s2.5 89.5 7.5 116.5s11.833 40.5 20.5 40.5c4 0 7.66699 -5.16699 11 -15.5
s6.33301 -24.166 9 -41.499s4.5 -34.833 5.5 -52.5s1.5 -33.5 1.5 -47.5zM370.001 499.997c0 31.333 -1.16699 58.5 -3.5 81.5s-7.83301 44.167 -16.5 63.5l44 -15c7.33301 -22.667 12.166 -43 14.499 -61s3.5 -41 3.5 -69s-1.16699 -51 -3.5 -69
s-7.16602 -38.333 -14.499 -61l-44 -15c8.66699 19.333 14.167 40.5 16.5 63.5s3.5 50.167 3.5 81.5zM249.001 499.997c-22 -18.667 -37.166 -37.001 -45.499 -55.001s-12.5 -37 -12.5 -57c0 -11.333 2 -29.666 6 -54.999c4 -29.333 6 -52.333 6 -69
c0 -38 -8.33301 -75.333 -25 -112l-50 13c13.333 18.667 22.666 37.334 27.999 56.001s8 38 8 58c0 15.333 -2.33301 37.666 -7 66.999c-3.33301 26.667 -5 46.334 -5 59.001c0 18.667 3.16699 35.667 9.5 51s17.5 30 33.5 44c-16 14 -27.167 28.667 -33.5 44
s-9.5 32.333 -9.5 51c0 12.667 2 32.667 6 60c4 29.333 6 52 6 68c0 41.333 -11.333 78.666 -34 111.999l48 13c16.667 -36.667 25 -74 25 -112c0 -16.667 -2 -39.667 -6 -69c-4 -25.333 -6 -43.333 -6 -54c0 -20.667 4.33301 -40 13 -58s23.667 -36.333 45 -55z
M590.002 679.996c18 0 35 -2.5 51 -7.5s32 -13.833 48 -26.5s32.333 -31 49 -55s34 -54.333 52 -91c-17.333 -36 -34.5 -66.167 -51.5 -90.5s-33.5 -42.833 -49.5 -55.5s-32 -21.5 -48 -26.5s-33 -7.5 -51 -7.5c-24.667 0 -52 5 -82 15c-20.667 7.33301 -39 15.833 -55 25.5
s-25.667 16.167 -29 19.5c9.33301 47.333 14 87.333 14 120c0 33.333 -4.66699 73.333 -14 120c3.33301 3.33301 13 9.83301 29 19.5s34.333 18.167 55 25.5c30 10 57.333 15 82 15zM803.002 535.996c-28 56.667 -59.501 100 -94.501 130s-72.833 45 -113.5 45
c-27.333 0 -58 -5.66699 -92 -17c-32.667 -12.667 -63.667 -28 -93 -46l-109 34c-10 0 -20.167 -14.667 -30.5 -44s-15.5 -64.666 -15.5 -105.999c-12.667 14.667 -21.5 30.167 -26.5 46.5s-7.5 34.166 -7.5 53.499c0 13.333 1.66699 33.666 5 60.999
c2.66699 28.667 4 50.667 4 66c0 22.667 -2.83301 44.334 -8.5 65.001s-15.834 40.667 -30.501 60l-101 -32c16.667 -24 28.334 -45 35.001 -63s10 -36 10 -54c0 -12 -2 -30.667 -6 -56c-2.66699 -21.333 -4.83398 -39.666 -6.50098 -54.999s-2.5 -33.666 -2.5 -54.999
c2.66699 -22 14 -45 34 -69c-20 -24 -31.333 -47 -34 -69c0 -21.333 0.833008 -40.333 2.5 -57s3.83398 -34.334 6.50098 -53.001c4 -25.333 6 -44 6 -56c0 -18 -3.33301 -36 -10 -54s-18.334 -39 -35.001 -63l101 -32c14.667 20 24.834 40.167 30.501 60.5
s8.5 41.833 8.5 64.5c0 15.333 -1.33301 37.333 -4 66c-3.33301 27.333 -5 47.666 -5 60.999c0 19.333 2.5 37.166 7.5 53.499s13.833 31.833 26.5 46.5c0 -41.333 5.16699 -76.666 15.5 -105.999s20.5 -44 30.5 -44l109 34c29.333 -18 60.333 -33.333 93 -46
c34 -11.333 64.667 -17 92 -17c40.667 0 78.5 15.167 113.5 45.5s66.5 73.5 94.5 129.5c5.33301 -7.33301 12.333 -13.333 21 -18s17.334 -7 26.001 -7c16.667 0 30.834 5.83301 42.501 17.5s17.5 26.167 17.5 43.5c0 16.667 -5.83301 31 -17.5 43s-25.834 18 -42.501 18
c-19.333 0 -35 -8.33301 -47 -25z" />
    <glyph glyph-name="NB" unicode="n" horiz-adv-x="1000" 
d="M697 367c-24 0 -44.833 -4.83301 -62.5 -14.5s-26.5 -26.167 -26.5 -49.5c28.667 0 50.667 4.66699 66 14s23 26 23 50zM818 584c-14.667 0 -24.5 -2.5 -29.5 -7.5s-7.5 -17.5 -7.5 -37.5c13.333 0 22.833 2.5 28.5 7.5s8.5 17.5 8.5 37.5zM630 241
c-8 -8 -17.3242 -14.999 -27.9912 -20.999c-6 -3.33301 -11.167 -5.5 -15.5 -6.5s-11.5 -1.5 -21.5 -1.5l4 20h-30c-0.666992 -14 -2.33398 -25.5 -5.00098 -34.5s-8.33398 -22.833 -17.001 -41.5l-2 -4c-2 2.66699 -4.66699 6.66699 -8 12
c-8.66699 14 -15.334 25.833 -20.001 35.5s-8 20.5 -10 32.5h-22v-18c-36 8 -68.667 22.333 -98 43c-24.667 17.333 -47 39 -67 65c-16 22.667 -28 41.667 -36 57c-16.667 30.667 -31 66 -43 106c-14 46.667 -24 94 -30 142c-4.66699 36 -8.33398 78.333 -11.001 127
c-0.666992 40 -1 78.667 -1 116h475c-0.666992 -18.667 -5.5 -39.5 -14.5 -62.5s-18.167 -41.167 -27.5 -54.5c-8 -12 -21.667 -29.333 -41 -52c-19.333 -23.333 -33 -41 -41 -53c-14 -19.333 -25 -39 -33 -59s-12 -41.333 -12 -64c-2 -16 -4 -27.333 -6 -34
s-6.33301 -16 -13 -28l26 -13c6.66699 10 11 18.667 13 26s3.33301 16.666 4 27.999c5.33301 2.66699 19.666 9 42.999 19c30.667 14 54 25.333 70 34c29.333 15.333 55.666 33.666 78.999 54.999c13.333 12 28.666 29 45.999 51c3.33301 4.66699 7 7 11 7c6 0 9 -4 9 -12
v-3c-0.666992 -1.33301 -1 -2.66602 -1 -3.99902l-6 -7c-6.66699 -7.33301 -12.334 -14 -17.001 -20l21 -13l9 12c2 2.66699 5 6 9 10l2 3c5.33301 3.33301 11.333 5 18 5c3.33301 0 8 -0.666992 14 -2c2 -0.666992 3.33301 -1 4 -1
c9.33301 -1.33301 17 -6.66602 23 -15.999s9.33301 -21 10 -35c0 -15.333 -3.66699 -32.666 -11 -51.999c-16.667 -20 -29.334 -37.333 -38.001 -52c-7.33301 -11.333 -14.333 -24 -21 -38l-25 -52l-12 -27l-14 -33.5l-16 -35.5l-8 -18
c-8.66699 -16 -20.667 -31.667 -36 -47c-2.66699 -2.66699 -4.66699 -4.33398 -6 -5.00098l-4 -3l5 -19l7 4c0 -14 0.666992 -29.333 2 -46v-8l-24.5 21.5c-5 4.33301 -9.16699 8.16602 -12.5 11.499c-8 6.66699 -12.667 10.667 -14 12c0 0.666992 1 2.33398 3 5.00098
c3.33301 4 6 7.66699 8 11c0 0.666992 0.333008 2.66699 1 6c2 7.33301 3 13.666 3 18.999zM693.009 225.001c3.33301 4.66699 7.66309 9.99609 12.9961 15.9961c3.33301 3.33301 6 6.33301 8 9c8 10 14 19.333 18 28c1.33301 2.66699 3.66602 7.66699 6.99902 15l9.5 21
l11 25.5l10.5 24.5c2 6 5.33301 13 10 21l2 5l10 22l10 22c1.33301 3.33301 4 8.33301 8 15c4 7.33301 7 13 9 17c3.33301 8 8.33301 16.667 15 26c2 2 4 4.33301 6 7s4 5 6 7c6.66699 6.66699 13.334 16 20.001 28c2.66699 6 5.33398 16.333 8.00098 31
c0 2 0.333008 4.33301 1 7v7c0 6.66699 -0.666992 14.334 -2 23.001c-2 16 -6.66699 28.667 -14 38c-4.66699 7.33301 -10.667 13.333 -18 18c-10 6.66699 -23.333 11.334 -40 14.001c-5.33301 0 -11 -0.333008 -17 -1h-5c-4.66699 8 -8.66699 13.667 -12 17
c-6 6 -14.333 9 -25 9c-7.33301 -1.33301 -12.666 -3 -15.999 -5c-4.66699 -2.66699 -9.66699 -6.66699 -15 -12c-2 -2.66699 -4.66699 -5.66699 -8 -9c-2.66699 -3.33301 -4.33398 -5.33301 -5.00098 -6c-8.66699 -10.667 -16.667 -19.667 -24 -27
c-5.33301 -5.33301 -12.666 -12 -21.999 -20l-2 -2c-1.33301 -0.666992 -5.33301 -3.33398 -12 -8.00098s-10.667 -7.66699 -12 -9c-4 -2 -9.33301 -5 -16 -9c-7.33301 -4.66699 -13 -8 -17 -10l-18 -10c-6.66699 -4 -12 -6.66699 -16 -8
c-4.66699 -1.33301 -10.667 -4 -18 -8c-2.66699 -1.33301 -4.33398 -2.33301 -5.00098 -3c-6.66699 -2 -16 -6 -28 -12c0 18 3.33301 35.167 10 51.5s16.334 32.833 29.001 49.5c6 8.66699 16.667 21.667 32 39c24.667 30 42.334 53.667 53.001 71
c13.333 22 23.833 45.167 31.5 69.5s11.5 51.166 11.5 80.499h-556c0 -38.667 0.666992 -66.667 2 -84c1.33301 -32 2.66602 -56 3.99902 -72l5 -54l3 -27c1.33301 -20.667 5.66602 -46.334 12.999 -77.001c6 -34 13 -64 21 -90c5.33301 -21.333 12.333 -41.666 21 -60.999
c6 -15.333 13 -30.666 21 -45.999c5.33301 -11.333 12 -23.333 20 -36c14.667 -26 34.334 -51.333 59.001 -76c20 -20 35 -32.667 45 -38c11.333 -8.66699 27.333 -18 48 -28c11.333 -6 23.833 -11.167 37.5 -15.5s27.834 -8.16602 42.501 -11.499
c3.33301 -6.66699 7.33301 -14 12 -22c0.666992 -0.666992 1.33398 -2 2.00098 -4c2 -3.33301 5 -7.66602 9 -12.999c6.66699 -10 13.667 -18.667 21 -26c2 -2.66699 6 -6.66699 12 -12c3.33301 -2.66699 6 -5 8 -7c4 7.33301 8.33301 17.333 13 30
c1.33301 2.66699 3 6.66699 5 12c0.666992 2.66699 2.66699 8 6 16c3.33301 7.33301 6.33301 15.333 9 24c15.333 0 27.333 0.666992 36 2c2 -2.66699 5 -6 9 -10c3.33301 -3.33301 7 -6.66602 11 -9.99902l10 -10c10 -10 21 -19 33 -27
c6.66699 -5.33301 12 -9.33301 16 -12l3 -2c10 -6.66699 17.333 -11 22 -13l-1 30l-1 22l-1 30l-1 18z" />
    <glyph glyph-name="ToursautB" unicode="o" horiz-adv-x="1000" 
d="M800 140v120l-90 70v229v111l60 40v25v65h60v25v65h-311h-349v-65v-25h60v-65v-25l60 -40v-111v-229l-90 -70v-125v-25h135v25v40h90v-40v-25h95h55v25v40h90v-40v-25h135v30zM800 860v-30h-281h-319v30h319h281zM260 740v60h259h221v-60h-221h-259zM270 710h249h211
l-50 -30h-161h-199zM320 650h199h161v-91v-214h-160h-200v214v91zM245 265l75 50h200h160l75 -50h-235h-275zM545 140h-90v65h-30h-120v-65h-75v95h290h250v-95h-75v65h-30h-120v-65z" />
    <glyph glyph-name="PB" unicode="p" horiz-adv-x="1000" 
d="M800 110c-0.666992 44.667 -5.5 87.167 -14.5 127.5s-21.5 75.5 -37.5 105.5c-15.333 30 -33.5 53.833 -54.5 71.5s-43.5 27.834 -67.5 30.501c14 5.33301 26.333 18 37 38c5.33301 10 9.83301 21 13.5 33s5.5 22.667 5.5 32c0 27.333 -5 52.333 -15 75
c-7.33301 16 -18 31.667 -32 47c-16 17.333 -33 30.666 -51 39.999c5.33301 5.33301 11 14 17 26c6.66699 17.333 10 32 10 44c0 17.333 -4.33301 33.666 -13 48.999c-7.33301 16 -20 30.333 -38 43c-19.333 12 -39.333 18 -60 18c-20 0 -40 -6 -60 -18
c-18 -12.667 -30.667 -27 -38 -43c-8.66699 -15.333 -13 -31.666 -13 -48.999c0 -12 3.33301 -26.667 10 -44c6 -12 11.667 -20.667 17 -26c-18 -9.33301 -35 -22.666 -51 -39.999c-14 -15.333 -24.667 -31 -32 -47c-10 -22.667 -15 -47.667 -15 -75
c0 -9.33301 1.83301 -20 5.5 -32s8.16699 -23 13.5 -33c10.667 -20 23 -32.667 37 -38c-24 -2.66699 -46.5 -12.834 -67.5 -30.501s-39.167 -41.5 -54.5 -71.5c-16 -30 -28.5 -65.167 -37.5 -105.5s-13.833 -82.833 -14.5 -127.5h600zM500 857
c10.667 -1.33301 17.167 -2.16406 19.5 -2.49707s6.83301 -1.5 13.5 -3.5l6 -4c6.66699 -4 10.834 -6.66699 12.501 -8s5.5 -5.33301 11.5 -12c4.66699 -7.33301 8 -14 10 -20s3.66699 -15 5 -27c0 -10 -2.33301 -22 -7 -36
c-1.33301 -2.66699 -2.33301 -5.33398 -3 -8.00098l-6 -6l-2 -2c-0.666992 -0.666992 -2.66699 -3.33398 -6 -8.00098l-3 -2c-7.33301 -5.33301 -11 -9 -11 -11c0 -2.66699 4.33301 -5.66699 13 -9c12.667 -4.66699 26.667 -13.667 42 -27c2 -1.33301 4.66699 -3.33301 8 -6
c6.66699 -6.66699 12.334 -13 17.001 -19s9.33398 -13.667 14.001 -23c10 -20 15 -45 15 -75c-2 -10.667 -4 -19.334 -6 -26.001s-5 -14.667 -9 -24l-1 -4l-6 -8c-3.33301 -4.66699 -5.83301 -7.83398 -7.5 -9.50098s-5.83398 -5.16699 -12.501 -10.5
c-17.333 -10 -26 -17.667 -26 -23c0 -4.66699 4.66699 -9.33398 14 -14.001c24.667 -2.66699 47.834 -12.5 69.501 -29.5s40.5 -39.833 56.5 -68.5c14.667 -26 26 -55.167 34 -87.5s12.333 -66.833 13 -103.5h-536c0.666992 36.667 5 71.167 13 103.5s19.333 61.5 34 87.5
c16.667 28.667 35.667 51.5 57 68.5s44.333 26.833 69 29.5c9.33301 4.66699 14 9.33398 14 14.001c0 5.33301 -8.66699 13 -26 23c-6.66699 5.33301 -10.834 8.83301 -12.501 10.5s-4.16699 4.83398 -7.5 9.50098l-6 8l-1 4c-4.66699 10 -7.83398 18.167 -9.50098 24.5
s-3.5 14.833 -5.5 25.5c0 30 5 55 15 75c4.66699 9.33301 9.33398 17 14.001 23s10.334 12.333 17.001 19c3.33301 2.66699 6 4.66699 8 6c15.333 13.333 29.333 22.333 42 27c8.66699 3.33301 13 6.33301 13 9c0 2 -3.66699 5.66699 -11 11l-3 2
c-3.33301 4 -5.33301 6.5 -6 7.5s-1.33398 1.83301 -2.00098 2.5l-6 6c-0.666992 2.66699 -1.66699 5.33398 -3 8.00098c-4.66699 14 -7 26 -7 36c1.33301 12 3 21 5 27s5.33301 12.667 10 20l1 1c5.33301 6 9.16602 9.83301 11.499 11.5s8.16602 5.5 17.499 11.5
c6.66699 2 11.167 3.16699 13.5 3.5s8.83301 1.16602 19.5 2.49902z" />
    <glyph glyph-name="SBd" unicode="q" horiz-adv-x="500" 
d="M375 293c11.333 0 20.668 -4.33301 28.001 -13c5.33301 -6.66699 8 -14.334 8 -23.001c0 -8 -3 -15.667 -9 -23c-7.33301 -8.66699 -16.333 -13 -27 -13c-10 0 -18 3 -24 9c-8 8 -12 17 -12 27c0 8.66699 2.66699 16.334 8 23.001c7.33301 8.66699 16.666 13 27.999 13z
M200.002 210c11.333 0 20.667 -4.33203 28 -12.999c5.33301 -6.66699 8 -14.334 8 -23.001c0 -10 -3.33301 -18.333 -10 -25c-7.33301 -7.33301 -16 -11 -26 -11s-18 3 -24 9c-8 8 -12 17 -12 27c0 8 3 15.667 9 23c7.33301 8.66699 16.333 13 27 13zM59.0029 534.001
l-58.9971 -287v-57c11.333 0 21 -4.66699 29 -14c6.66699 -8 10 -16.333 10 -25c0 -10.667 -3.66699 -19.667 -11 -27c-8 -8 -17.333 -12 -28 -12v-25c18 0 33.667 6.66699 47 20c11.333 11.333 17 26 17 44c0 16 -5.66699 30.333 -17 43c-10 10 -20.667 16.333 -32 19
l65 290l94 -274c-9.33301 -4 -17.333 -10.333 -24 -19c-7.33301 -10.667 -11 -22.667 -11 -36c0 -17.333 6 -32 18 -44c11.333 -11.333 25.666 -17 42.999 -17c18 0 33 6.66699 45 20c10.667 12 16 25.667 16 41c0 14.667 -5 28 -15 40c-10 11.333 -22.667 18 -38 20l2 284
l128 -212c-8 -6 -14.333 -14 -19 -24c-3.33301 -8.66699 -5 -17 -5 -25c0 -18 6.33301 -32.667 19 -44c11.333 -11.333 25.333 -17 42 -17c19.333 0 35 7 47 21c9.33301 11.333 14 24.666 14 39.999c0 14.667 -5 28 -15 40c-12 14 -27.333 21 -46 21l-51 228
c-6.66699 22 -13.167 40 -19.5 54s-12.833 26.333 -19.5 37l-7 11c-7.33301 11.333 -12.333 20.666 -15 27.999s-4 17 -4 29c0 13.333 5.33301 32.333 16 57l5 12c8 18.667 13.833 33.334 17.5 44.001s5.5 20.334 5.5 29.001c0 10 -10.5 19.333 -31.5 28
s-49.833 16 -86.5 22c-34 5.33301 -65 8.66602 -93 9.99902c-28.667 2 -59.334 3 -92.001 3v-30c33.333 0 64.333 -1 93 -3c27.333 -1.33301 58 -4.66602 92 -9.99902c26.667 -4.66699 48 -9.83398 64 -15.501s24 -11.167 24 -16.5
c0 -3.33301 -8.16699 -7.83301 -24.5 -13.5s-37.166 -10.5 -62.499 -14.5c-32 -4.66699 -62.667 -8 -92 -10c-28.667 -2 -60 -3 -94 -3v-30c32.667 0 64 1 94 3c36 2 67 5.33301 93 10c25.333 4.66699 50.333 10.667 75 18l-12 -34c-20.667 -6 -41.667 -10.667 -63 -14
c-36 -5.33301 -66.667 -8.66602 -92 -9.99902c-30 -2 -61.667 -3 -95 -3v-30c33.333 0 65 1 95 3c28 2 58.667 5.33301 92 10c1.33301 0 5.66602 0.666992 12.999 2c15.333 2.66699 26.666 5 33.999 7c-2.66699 -9.33301 -4 -17.333 -4 -24c0 -7.33301 2 -16.666 6 -27.999
c-12 -2.66699 -28 -5.66699 -48 -9c-26 -4 -56.667 -7 -92 -9c-20 -1.33301 -52 -2 -96 -2v-30c33.333 0 65.333 1 96 3c34.667 2 65.334 5 92.001 9c15.333 2.66699 34.333 6.33398 57 11.001c4.66699 -10.667 11 -22.334 19 -35.001c6.66699 -10 12 -19.333 16 -28
s8.33301 -21 13 -37l51 -207l-127 213c-2 -0.666992 -6.33301 -1.33398 -13 -2.00098c-6 -1.33301 -11 -2.33301 -15 -3h-2l-2 -1v-278l-87 267h-4c-14.667 -1.33301 -26.334 -2 -35.001 -2z" />
    <glyph glyph-name="RB" unicode="r" horiz-adv-x="1000" 
d="M516 395c0 45.333 6.50195 85.5 19.502 120.5s30.333 63.5 52 85.5s45.667 38.5 72 49.5s52.5 16.5 78.5 16.5c38 0 70 -10.333 96 -31s39 -48.334 39 -83.001c0 -28 -9.83301 -59.167 -29.5 -93.5s-50.5 -70.833 -92.5 -109.5c-14.667 10 -42.334 19.833 -83.001 29.5
s-91.334 14.834 -152.001 15.501zM766.002 329c46 42 79.833 82.167 101.5 120.5s32.5 73.5 32.5 105.5c0 40.667 -15 73.5 -45 98.5s-67.333 37.5 -112 37.5c-24 0 -48.333 -4 -73 -12s-48 -20.333 -70 -37c0 38 -8 70.333 -24 97s-34.667 42.667 -56 48v53h40v40h-40v40
h-40v-40h-40v-40h40v-53c-21.333 -5.33301 -40 -21.333 -56 -48s-24 -59 -24 -97c-44 32.667 -91.667 49 -143 49c-44 0 -81.167 -12.5 -111.5 -37.5s-45.5 -57.833 -45.5 -98.5c0 -32 10.833 -67.167 32.5 -105.5s55.5 -78.5 101.5 -120.5v-167c0 -10 7 -19.333 21 -28
s33.333 -16.334 58 -23.001s53.167 -11.834 85.5 -15.501s66.166 -5.5 101.499 -5.5c36 0 70.167 1.83301 102.5 5.5s60.833 8.83398 85.5 15.501s43.834 14.334 57.501 23.001s20.5 18 20.5 28v167zM575.002 624c-16.667 -15.333 -31.167 -34.335 -43.5 -57.002
s-22.833 -50 -31.5 -82c-8 32.667 -18.333 60.334 -31 83.001s-27.334 41.334 -44.001 56.001c0 43.333 7.5 77.166 22.5 101.499s32.5 36.5 52.5 36.5c20.667 0 38.334 -12.167 53.001 -36.5s22 -58.166 22 -101.499zM484.002 394.998
c-60 -0.666992 -110.5 -5.83398 -151.5 -15.501s-68.833 -19.5 -83.5 -29.5c-42 38.667 -72.833 75.167 -92.5 109.5s-29.5 65.5 -29.5 93.5c0 34.667 13 62.334 39 83.001s58 31 96 31c26.667 0 53 -5.5 79 -16.5s49.833 -27.5 71.5 -49.5s39 -50.5 52 -85.5
s19.5 -75.167 19.5 -120.5zM739.002 251.998c-14 13.333 -43.167 24.5 -87.5 33.5s-94.833 13.5 -151.5 13.5s-107.167 -4.5 -151.5 -13.5s-73.5 -20.167 -87.5 -33.5v71c14 13.333 43.167 24.5 87.5 33.5s94.833 13.5 151.5 13.5s107.167 -4.5 151.5 -13.5
s73.5 -20.167 87.5 -33.5v-71zM739.002 186.998c-14 13.333 -43.167 24.5 -87.5 33.5s-94.833 13.5 -151.5 13.5s-107.167 -4.5 -151.5 -13.5s-73.5 -20.167 -87.5 -33.5v40c14 13.333 43.167 24.5 87.5 33.5s94.833 13.5 151.5 13.5s107.167 -4.5 151.5 -13.5
s73.5 -20.167 87.5 -33.5v-40zM261.002 161.998c14 13.333 43.167 24.5 87.5 33.5s94.833 13.5 151.5 13.5s107.167 -4.5 151.5 -13.5s73.5 -20.167 87.5 -33.5c-14 -13.333 -43.167 -24.5 -87.5 -33.5s-94.833 -13.5 -151.5 -13.5s-107.167 4.5 -151.5 13.5
s-73.5 20.167 -87.5 33.5z" />
    <glyph glyph-name="SBg" unicode="s" horiz-adv-x="500" 
d="M125 293c11.333 0 20.668 -4.33301 28.001 -13c5.33301 -6.66699 8 -14.334 8 -23.001c0 -10 -4 -19 -12 -27c-6 -6 -14 -9 -24 -9c-10.667 0 -19.667 4.33301 -27 13c-6 7.33301 -9 15 -9 23c0 8.66699 2.66699 16.334 8 23.001c7.33301 8.66699 16.666 13 27.999 13z
M300.002 210c10.667 0 19.668 -4.33398 27.001 -13.001c6 -7.33301 9 -15 9 -23c0 -10 -4 -19 -12 -27c-6 -6 -14 -9 -24 -9s-18.667 3.66699 -26 11c-6.66699 6.66699 -10 15 -10 25c0 8.66699 2.66699 16.334 8 23.001c7.33301 8.66699 16.666 13 27.999 13z
M441.003 533.999c-8.66699 0 -20.333 0.665039 -35 1.99805h-4l-87 -267v278l-2 1h-2c-4 0.666992 -9 1.66699 -15 3c-6.66699 0.666992 -11 1.33398 -13 2.00098l-127 -213l51 207c4.66699 16 9.16699 28.5 13.5 37.5s9.5 18.167 15.5 27.5
c8 12.667 14.333 24.334 19 35.001c22.667 -4.66699 41.667 -8.33398 57 -11.001c26.667 -4 57.334 -7 92.001 -9c31.333 -2 63.333 -3 96 -3v30c-44 0 -76 0.666992 -96 2c-35.333 2 -66 5 -92 9c-20 3.33301 -36 6.33301 -48 9c4 11.333 6 20.666 6 27.999
c0 6.66699 -1.33301 14.667 -4 24c7.33301 -2 18.666 -4.33301 33.999 -7c7.33301 -1.33301 11.666 -2 12.999 -2c34 -4.66699 64.667 -8 92 -10c30 -2 61.667 -3 95 -3v30c-33.333 0 -65 1 -95 3c-25.333 1.33301 -56 4.66602 -92 9.99902
c-20.667 3.33301 -41.667 8 -63 14l-12 34c24.667 -7.33301 49.667 -13.333 75 -18c26 -4.66699 57 -8 93 -10c30 -2 61.333 -3 94 -3v30c-33.333 0 -64.666 1 -93.999 3s-60 5.33301 -92 10c-25.333 4 -46.166 8.83301 -62.499 14.5s-24.5 10.167 -24.5 13.5
c0 5.33301 8 10.833 24 16.5s37.333 10.834 64 15.501c34 5.33301 64.667 8.66602 92 9.99902c29.333 2 60.333 3 93 3v30c-32 0 -62.667 -1 -92 -3c-28 -1.33301 -59 -4.66602 -93 -9.99902c-36.667 -6 -65.5 -13.333 -86.5 -22s-31.5 -18 -31.5 -28
c0 -8.66699 2 -18.5 6 -29.5s9.66699 -25.5 17 -43.5l5 -12c10.667 -24.667 16 -43.667 16 -57c0 -12 -1.33301 -21.667 -4 -29s-7.66699 -16.666 -15 -27.999l-7 -11c-6.66699 -10.667 -13.167 -23 -19.5 -37s-12.833 -32 -19.5 -54l-51 -228c-18.667 0 -34 -7 -46 -21
c-10 -12 -15 -25.333 -15 -40c0 -15.333 4.66699 -28.666 14 -39.999c12 -14 27.667 -21 47 -21c16.667 0 30.667 5.66699 42 17c12.667 11.333 19 26 19 44c0 8 -1.66699 16.333 -5 25c-4 10 -10.333 18 -19 24l128 212l2 -284c-15.333 -2 -28 -8.66699 -38 -20
c-10 -12 -15 -25.333 -15 -40c0 -15.333 5.33301 -29 16 -41c12 -13.333 27 -20 45 -20c17.333 0 31.666 5.66699 42.999 17c12 12 18 26.667 18 44c0 13.333 -3.66699 25.333 -11 36c-6.66699 8.66699 -14.667 15 -24 19l94 274l65 -290c-11.333 -2.66699 -22 -9 -32 -19
c-11.333 -12.667 -17 -27 -17 -43c0 -18 5.66699 -32.667 17 -44c13.333 -13.333 29 -20 47 -20v25c-10.667 0 -20 4 -28 12c-7.33301 7.33301 -11 16.333 -11 27c0 8.66699 3.33301 17 10 25c8 9.33301 17.667 14 29 14v57z" />
    <glyph glyph-name="TB" unicode="t" horiz-adv-x="1000" 
d="M200 860v-120l90 -70v-229v-111l-60 -40v-25v-65h-60v-25v-65h311h349v65v25h-60v65v25l-60 40v111v229l90 70v125v25h-135v-25v-40h-90v40v25h-95h-55v-25v-40h-90v40v25h-135v-30zM200 140v30h281h319v-30h-319h-281zM740 260v-60h-259h-221v60h221h259zM730 290h-249
h-211l50 30h161h199zM320 655h360v-214v-91h-199h-161v91v214zM320 685l-75 50h510l-75 -50h-360zM230 765v95h75v-65h150v65h90v-65h30h120v65h75v-95h-540z" />
    <glyph glyph-name="LéoBg" unicode="u" horiz-adv-x="500" 
d="M295 877c0 -14.667 -6.66602 -25.333 -19.999 -32c-6.66699 -2.66699 -12 -4 -16 -4c-11.333 0 -20 3.66699 -26 11c-6.66699 8 -10 16.333 -10 25c0 12 4.66699 21.667 14 29c5.33301 4.66699 12.666 7 21.999 7c8.66699 0 17 -3.33301 25 -10
c7.33301 -6 11 -14.667 11 -26zM212.001 702.001c0 -14.667 -6.66797 -25.333 -20.001 -32c-6.66699 -2.66699 -12 -4 -16 -4c-9.33301 0 -16.666 2.33301 -21.999 7c-9.33301 7.33301 -14 17 -14 29c0 11.333 3.66699 20 11 26c6.66699 6.66699 15 10 25 10
c13.333 0 23.333 -5.33301 30 -16c4 -6 6 -12.667 6 -20zM212 302.002c0 -11.333 -4.33203 -20.667 -12.999 -28c-6.66699 -5.33301 -14.334 -8 -23.001 -8c-10 0 -18.333 3.33301 -25 10c-7.33301 7.33301 -11 16 -11 26s3 18 9 24c8 8 17 12 27 12c8 0 15.667 -3 23 -9
c8.66699 -7.33301 13 -16.333 13 -27zM295.001 127.001c0 -11.333 -4.33301 -20.668 -13 -28.001c-6.66699 -5.33301 -14.334 -8 -23.001 -8c-8 0 -15.667 3 -23 9c-8.66699 7.33301 -13 16.333 -13 27c0 10 3 18 9 24c8 8 17 12 27 12c8.66699 0 16.334 -2.66699 23.001 -8
c8.66699 -7.33301 13 -16.666 13 -27.999zM192.001 501.999c0 -11.333 -4.66699 -21 -14 -29c-8 -6.66699 -16.333 -10 -25 -10c-10.667 0 -19.667 3.66699 -27 11c-8 8 -12 17.333 -12 28s3.66699 19.667 11 27c8 8 17.333 12 28 12c8.66699 0 17 -3.33301 25 -10
c9.33301 -8 14 -17.667 14 -29zM500.001 720.999v31.001l-158 94l158 -40v28l-181 41c0 16.667 -6 31 -18 43s-26.333 18 -43 18c-17.333 0 -31.833 -6 -43.5 -18s-17.5 -26.333 -17.5 -43s6 -31 18 -43s26.333 -18 43 -18c10 0 19.5 2.16699 28.5 6.5
s15.833 10.166 20.5 17.499zM500.001 290l-0.000976562 27h-229l229 77v54l-251 54l251 54v52l-229 79h229v23l-265 -2c-2.66699 15.333 -9.66699 28 -21 38s-24.333 15 -39 15c-17.333 0 -31.833 -5.66699 -43.5 -17s-17.5 -26 -17.5 -44c0 -17.333 6 -31.833 18 -43.5
s26.333 -17.5 43 -17.5c12 0 23.167 3.33301 33.5 10s17.5 15 21.5 25l270 -95l-286 -64c-4 14 -11.667 25.667 -23 35s-24.333 14 -39 14c-18 0 -33.167 -6.16699 -45.5 -18.5s-18.5 -27.5 -18.5 -45.5c0 -17.333 6.16699 -32.333 18.5 -45s27.5 -19 45.5 -19
c15.333 0 28.833 4.5 40.5 13.5s18.834 20.833 21.501 35.5l286 -66l-270 -93c-4 10 -11.167 18.333 -21.5 25s-21.5 10 -33.5 10c-17.333 0 -31.833 -5.83301 -43.5 -17.5s-17.5 -26.167 -17.5 -43.5c0 -16.667 6 -31 18 -43s26.333 -18 43 -18
c15.333 0 28.5 5.16699 39.5 15.5s17.833 22.833 20.5 37.5zM500 165v29l-158 -36l158 94v26l-193 -116c-12 16 -28.333 24 -49 24c-17.333 0 -31.833 -5.83301 -43.5 -17.5s-17.5 -26.167 -17.5 -43.5c0 -16.667 6 -31 18 -43s26.333 -18 43 -18s31 6.16699 43 18.5
s18 26.5 18 42.5z" />
    <glyph glyph-name="LéoBd" unicode="v" horiz-adv-x="500" 
d="M387 502c0 -32.667 -1.00391 -63.665 -3.00391 -92.998c-1.33301 -27.333 -4.66602 -58 -9.99902 -92c-4.66699 -27.333 -10.167 -48.833 -16.5 -64.5s-13.166 -23.5 -20.499 -23.5s-14.166 7.66699 -20.499 23s-11.833 36.666 -16.5 63.999
c-4.66699 32 -8 62.667 -10 92s-3 60.666 -3 93.999c0 27.333 0.333008 47.333 1 60c0.666992 25.333 3 56.333 7 93c0.666992 3.33301 1.33398 8.66602 2.00098 15.999c2.66699 20 5 33.667 7 41c10 42 21 63 33 63c10.667 0 20.667 -17.667 30 -53
c4.66699 -17.333 8.66699 -39.666 12 -66.999c4 -35.333 6.33301 -66 7 -92c0.666992 -12.667 1 -33 1 -61zM291.996 764.002c-10.667 -32 -18.334 -68.333 -23.001 -109c-3.33301 -26 -5.66602 -57 -6.99902 -93c-0.666992 -13.333 -1 -33.333 -1 -60
c0 -32.667 1 -64 3 -94c2 -36 5.33301 -67 10 -93c4.66699 -25.333 10.667 -50.333 18 -75l-29 12c-6 21.333 -10.667 42.333 -14 63c-5.33301 36 -8.66602 66.667 -9.99902 92c-2 30 -3 61.667 -3 95c0 27.333 0.333008 47.333 1 60c0.666992 26 3 57 7 93
c5.33301 42 11.666 74.333 18.999 97zM227.996 736.002c-4.66699 -18 -9.33301 -45.0029 -14 -81.0029c-4 -36 -6.33301 -67 -7 -93c-0.666992 -12.667 -1 -32.667 -1 -60c0 -33.333 1 -65 3 -95c2 -27.333 5.33301 -58 10 -92c0 -1.33301 0.666992 -5.66602 2 -12.999
c2.66699 -15.333 5 -26.666 7 -33.999c-9.33301 2.66699 -17.333 4 -24 4c-7.33301 0 -16.666 -2 -27.999 -6c-2.66699 12 -5.66699 28 -9 48c-4 26 -7 56.667 -9 92c-1.33301 20 -2 52 -2 96c0 27.333 0.333008 47.333 1 60c1.33301 35.333 3.33301 66.333 6 93
c4.66699 38.667 9 66.334 13 83.001c11.333 -4 20.666 -6 27.999 -6c6.66699 0 14.667 1.33301 24 4zM49.9971 686.999c1.33301 8 3.33301 19.333 6 34l-56 31v-65h50zM54.9971 283.999c-0.666992 2.66699 -1.33301 7.33301 -2 14l-3 15v2l-1 2h-49v-65zM61.998 211.998
l-62.0049 -17.998v-29l47 11c33.333 10.667 60.666 22 81.999 34c6 3.33301 13 7.66602 21 12.999c11.333 6.66699 20.5 11.334 27.5 14.001s16.5 4 28.5 4c8.66699 0 19.167 -2 31.5 -6s27.5 -10 45.5 -18c16 -6.66699 28.833 -11.667 38.5 -15s18.5 -5 26.5 -5
c8.66699 0 17.167 9.16699 25.5 27.5s15.5 43.166 21.5 74.499c7.33301 40 12 84.667 14 134c1.33301 29.333 2 51.666 2 66.999c0 18.667 -0.666992 44 -2 76c-1.33301 29.333 -4.66602 62.333 -9.99902 99c-6 40 -13.5 71.333 -22.5 94s-18.5 34 -28.5 34
c-7.33301 0 -16.166 -1.66699 -26.499 -5s-22.833 -8 -37.5 -14l-1 -1c-18.667 -7.33301 -34 -13.166 -46 -17.499s-22.333 -6.5 -31 -6.5c-12 0 -21.667 1.33301 -29 4s-16.666 7.66699 -27.999 15v0c-13.333 8.66699 -27.333 16.5 -42 23.5s-34.667 14.5 -60 22.5l-47 10
v-28l62 -18c12.667 -2.66699 22.334 -5.5 29.001 -8.5s14.334 -7.5 23.001 -13.5c12 -8 23.667 -14.333 35 -19c-6 -27.333 -11 -58 -15 -92c-4 -38 -6.33301 -69 -7 -93c-0.666992 -12.667 -1 -32.667 -1 -60c0 -32.667 1 -64.667 3 -96c2 -34.667 5 -65.334 9 -92.001
c2.66699 -15.333 6.33398 -34.333 11.001 -57c-12 -5.33301 -24.333 -12.333 -37 -21l-22 -12.5c-6.66699 -3.66699 -16 -7.5 -28 -11.5zM37.9932 404v6c-1.33301 16 -2.33301 26.667 -3 32l-35 6v-54zM34.9932 562v-2v1c0.666992 4.66699 1 10 1 16c0.666992 8 1 13 1 15
l-37 18v-54z" />
    <glyph glyph-name="LocusteBg" unicode="w" horiz-adv-x="500" 
d="M113 497c0 33.333 1.00391 64.332 3.00391 92.999c1.33301 27.333 4.66602 58 9.99902 92c4.66699 27.333 10.167 48.833 16.5 64.5s13.166 23.5 20.499 23.5s14.166 -7.66699 20.499 -23s11.833 -36.666 16.5 -63.999c4.66699 -32 8 -62.667 10 -92
c2 -28.667 3 -60 3 -94c0 -27.333 -0.333008 -47.333 -1 -60c-0.666992 -25.333 -3 -56.333 -7 -93c-0.666992 -3.33301 -1.33398 -8.66602 -2.00098 -15.999c-2.66699 -20 -5 -33.667 -7 -41c-9.33301 -42 -20.333 -63 -33 -63c-10.667 0 -20.667 17.667 -30 53
c-4.66699 17.333 -8.66699 39.666 -12 66.999c-4 35.333 -6.33301 66 -7 92c-0.666992 12.667 -1 33 -1 61zM208.004 234.999c10.667 32 18.334 68.333 23.001 109c3.33301 26 5.66602 57 6.99902 93c0.666992 13.333 1 33.333 1 60c0 32.667 -1 64 -3 94
c-2 36 -5.33301 67 -10 93c-4.66699 25.333 -10.667 50.333 -18 75l29 -12c6 -20.667 10.667 -41.667 14 -63c5.33301 -36 8.66602 -66.667 9.99902 -92c2 -30 3 -61.667 3 -95c0 -27.333 -0.333008 -47.333 -1 -60c-0.666992 -26 -3 -57 -7 -93
c-5.33301 -42 -11.666 -74.333 -18.999 -97zM272.004 262.999c4.66699 18 9.33203 45.0029 13.999 81.0029c4 36 6.33301 67 7 93c0.666992 12.667 1 32.667 1 60c0 33.333 -1 65 -3 95c-1.33301 28 -4.66602 58.667 -9.99902 92c0 1.33301 -0.666992 5.66602 -2 12.999
c-2.66699 15.333 -5 26.666 -7 33.999c9.33301 -2.66699 17.333 -4 24 -4c7.33301 0 16.666 2 27.999 6c3.33301 -12 6.33301 -28 9 -48c4 -26 7 -56.667 9 -92c1.33301 -20 2 -52 2 -96c0 -27.333 -0.333008 -47.333 -1 -60c-1.33301 -35.333 -3.33301 -66.333 -6 -93
c-4 -38.667 -8.33301 -66.334 -13 -83.001c-11.333 4 -20.666 6 -27.999 6c-6.66699 0 -14.667 -1.33301 -24 -4zM450.002 312.002c-1.33301 -8 -3.33301 -19.333 -6 -34l56 -31v65h-50zM445.002 715.002c0.666992 -2.66699 1.33301 -7.33301 2 -14l3 -15l1 -2v-2h49v65z
M438.001 787.003l62.001 17.999v29l-47 -11c-33.333 -10.667 -60.666 -22 -81.999 -34l-21 -12c-10.667 -7.33301 -19.667 -12.333 -27 -15s-17 -4 -29 -4c-8.66699 0 -19.167 2 -31.5 6s-27.5 10 -45.5 18c-16 6.66699 -28.833 11.667 -38.5 15s-18.5 5 -26.5 5
c-8.66699 0 -17.167 -9 -25.5 -27s-15.5 -43 -21.5 -75c-7.33301 -40 -12 -84.667 -14 -134c-1.33301 -29.333 -2 -51.666 -2 -66.999c0 -18.667 0.666992 -44 2 -76c2 -29.333 5.33301 -62.333 10 -99c6 -39.333 13.5 -70.5 22.5 -93.5s18.5 -34.5 28.5 -34.5
c7.33301 0 16.166 1.66699 26.499 5s22.833 8 37.5 14l1 1c18.667 8 34 14 46 18s22.333 6 31 6c12 0 21.667 -1.33301 29 -4s16.666 -7.66699 27.999 -15v0c13.333 -8 27.333 -15.667 42 -23s34.667 -15 60 -23l47 -10v28l-62 18c-12 2.66699 -21.333 5.66699 -28 9
s-14.667 7.66602 -24 12.999c-12 8 -23.667 14.333 -35 19c6 27.333 11 58 15 92c4 38 6.33301 69 7 93c0.666992 12.667 1 32.667 1 60c0 33.333 -1 65.333 -3 96c-2 34.667 -5 65.334 -9 92.001c-2 15.333 -5.66699 34.333 -11 57c12 5.33301 24.333 12.333 37 21l22 12.5
c6.66699 3.66699 16 7.5 28 11.5zM462.002 595.002v-6c1.33301 -16 2.33301 -26.667 3 -32l35 -6v54zM465.002 437.002v2v-1c-0.666992 -4.66699 -1 -9.66699 -1 -15c-0.666992 -8.66699 -1 -14 -1 -16l37 -18v54z" />
    <glyph glyph-name="LocusteBd" unicode="x" horiz-adv-x="500" 
d="M205 123c0 14.667 6.66602 25.333 19.999 32c6.66699 2.66699 12 4 16 4c11.333 0 20 -3.66699 26 -11c6.66699 -8 10 -16.333 10 -25c0 -12 -4.66699 -21.667 -14 -29c-5.33301 -4.66699 -12.666 -7 -21.999 -7c-8.66699 0 -17 3.33301 -25 10
c-7.33301 6 -11 14.667 -11 26zM287.999 297.999c0 14.667 6.66797 25.333 20.001 32c6.66699 2.66699 12 4 16 4c9.33301 0 16.666 -2.33301 21.999 -7c9.33301 -7.33301 14 -17 14 -29c0 -11.333 -3.66699 -20 -11 -26c-6.66699 -6.66699 -15 -10 -25 -10
c-13.333 0 -23.333 5.33301 -30 16c-4 6 -6 12.667 -6 20zM288 697.998c0 11.333 4.33203 20.667 12.999 28c6.66699 5.33301 14.334 8 23.001 8c10 0 18.333 -3.33301 25 -10c7.33301 -7.33301 11 -16 11 -26s-3 -18 -9 -24c-8 -8 -17 -12 -27 -12c-8 0 -15.667 3 -23 9
c-8.66699 7.33301 -13 16.333 -13 27zM204.999 872.999c0 11.333 4.33301 20.668 13 28.001c6.66699 5.33301 14.334 8 23.001 8c8 0 15.667 -3 23 -9c8.66699 -7.33301 13 -16.333 13 -27c0 -10 -3 -18 -9 -24c-8 -8 -17 -12 -27 -12c-8.66699 0 -16.334 2.66699 -23.001 8
c-8.66699 7.33301 -13 16.666 -13 27.999zM307.999 498.001c0 11.333 4.66699 21 14 29c8 6.66699 16.333 10 25 10c10.667 0 19.667 -3.66699 27 -11c8 -8 12 -17.333 12 -28s-3.66699 -19.667 -11 -27c-8 -8 -17.333 -12 -28 -12c-8.66699 0 -17 3.33301 -25 10
c-9.33301 8 -14 17.667 -14 29zM-0.000976562 279.001l-0.000976562 -31.001l158 -94l-158 35v-23l181 -41c0 -16.667 6 -31 18 -43s26.333 -18 43 -18c17.333 0 31.833 6 43.5 18s17.5 26.333 17.5 43s-6 31 -18 43s-26.333 18 -43 18
c-9.33301 0 -18.666 -2.16699 -27.999 -6.5s-16.333 -10.166 -21 -17.499zM-0.00195312 710l-0.00195312 -27h229l-229 -77v-54l251 -54l-251 -54v-52l229 -79h-229v-23l265 2c2.66699 -15.333 9.66699 -28 21 -38s24.333 -15 39 -15c17.333 0 31.833 5.83301 43.5 17.5
s17.5 26.167 17.5 43.5s-6 31.833 -18 43.5s-26.333 17.5 -43 17.5c-12 0 -23.167 -3.33301 -33.5 -10s-17.5 -15 -21.5 -25l-270 95l286 64c4 -14 11.667 -25.667 23 -35s24.333 -14 39 -14c18 0 33.167 6.16699 45.5 18.5s18.5 27.5 18.5 45.5
c0 17.333 -6.16699 32.333 -18.5 45s-27.5 19 -45.5 19c-15.333 0 -28.666 -4.5 -39.999 -13.5s-18.666 -20.833 -21.999 -35.5l-286 66l270 93c4 -10 11.167 -18.333 21.5 -25s21.5 -10 33.5 -10c17.333 0 31.833 5.83301 43.5 17.5s17.5 26.167 17.5 43.5
c0 16.667 -6 31 -18 43s-26.333 18 -43 18c-15.333 0 -28.5 -5.16699 -39.5 -15.5s-17.833 -22.833 -20.5 -37.5zM-0.00390625 835v-29l158 36l-158 -94v-26l193 116c12 -16 28.333 -24 49 -24c17.333 0 31.833 5.83301 43.5 17.5s17.5 26.167 17.5 43.5
c0 16.667 -6 31 -18 43s-26.333 18 -43 18s-31 -6.16699 -43 -18.5s-18 -26.5 -18 -42.5z" />
    <glyph glyph-name="PaoB" unicode="y" horiz-adv-x="1000" 
d="M140 200h120l70 90h229h111l40 -60h25h65v-60h25h65v311v349h-65h-25v-60h-65h-25l-40 -60h-111h-229l-70 90h-125h-25v-135h25h40v-90h-40h-25v-95v-55h25h40v-90h-40h-25v-135h30zM860 200h-30v281v319h30v-319v-281zM740 740h60v-259v-221h-60v221v259zM710 730v-249
v-211l-30 50v161v199zM650 680v-199v-161h-91h-214v160v200h214h91zM265 755l50 -75v-200v-160l-50 -75v235v275zM140 455v90h65v30v120h-65v75h95v-290v-250h-95v75h65v30v120h-65z" />
    <glyph glyph-name="VizirB" unicode="z" horiz-adv-x="1000" 
d="M860 800h-120l-70 -90h-229h-111l-40 60h-25h-65v60h-25h-65v-311v-349h65h25v60h65h25l40 60h111h229l70 -90h125h25v135h-25h-40v90h40h25v95v55h-25h-40v90h40h25v135h-30zM140 800h30v-281v-319h-30v319v281zM260 260h-60v259v221h60v-221v-259zM290 270v249v211
l30 -50v-161v-199zM350 320v199v161h91h214v-160v-200h-214h-91zM735 245l-50 75v200v160l50 75v-235v-275zM860 545v-90h-65v-30v-120h65v-75h-95v290v250h95v-75h-65v-30v-120h65z" />
    <glyph glyph-name="SuperBérolinaB" unicode="{" horiz-adv-x="1000" 
d="M857 500c-1.33301 -10.667 -2.16406 -17.168 -2.49707 -19.501s-1.5 -6.83301 -3.5 -13.5l-4 -6l-8 -12c-1.33301 -2 -5.33301 -6 -12 -12c-7.33301 -4.66699 -14 -8 -20 -10s-15 -3.66699 -27 -5c-10 0 -22 2.33301 -36 7c-2.66699 1.33301 -5.33398 2.33301 -8.00098 3
l-6 6l-2 2c-0.666992 0.666992 -3.33398 2.66699 -8.00098 6l-2 3c-5.33301 7.33301 -9 11 -11 11c-2.66699 0 -5.66699 -4.33301 -9 -13c-4.66699 -12.667 -13.667 -26.667 -27 -42c-1.33301 -2 -3.33301 -4.66699 -6 -8c-6.66699 -6.66699 -13 -12.334 -19 -17.001
s-13.667 -9.33398 -23 -14.001c-20 -10 -45 -15 -75 -15c-10.667 2 -19.334 4 -26.001 6s-14.667 5 -24 9l-4 1l-8 6c-4.66699 3.33301 -7.83398 5.83301 -9.50098 7.5s-5.16699 5.83398 -10.5 12.501c-10 17.333 -17.667 26 -23 26
c-4.66699 0 -9.33398 -4.66699 -14.001 -14c-2.66699 -24.667 -12.5 -47.667 -29.5 -69s-39.833 -40.333 -68.5 -57c-26 -14.667 -55.167 -26 -87.5 -34s-66.833 -12.333 -103.5 -13v536c36.667 -0.666992 71.167 -5 103.5 -13s61.5 -19.333 87.5 -34
c28.667 -16 51.5 -34.833 68.5 -56.5s26.833 -44.834 29.5 -69.501c4.66699 -9.33301 9.33398 -14 14.001 -14c5.33301 0 13 8.66699 23 26c5.33301 6.66699 8.83301 10.834 10.5 12.501s4.83398 4.16699 9.50098 7.5l8 6l4 1c10 4.66699 18.167 7.83398 24.5 9.50098
s14.833 3.5 25.5 5.5c30 0 55 -5 75 -15c9.33301 -4.66699 17 -9.33398 23 -14.001s12.333 -10.334 19 -17.001c2.66699 -3.33301 4.66699 -6 6 -8c13.333 -15.333 22.333 -29.333 27 -42c3.33301 -8.66699 6.33301 -13 9 -13c2 0 5.66699 3.66699 11 11l2 3
c4 3.33301 6.5 5.33301 7.5 6s1.83301 1.33398 2.5 2.00098l6 6c2.66699 1.33301 5.33398 2.33301 8.00098 3c14 4.66699 26 7 36 7c12 -1.33301 21 -3 27 -5s12.667 -5.33301 20 -10l1 -1c6 -5.33301 9.83301 -9.16602 11.5 -11.499s5.5 -8.16602 11.5 -17.499
c2 -6.66699 3.16699 -11.167 3.5 -13.5s1.16602 -8.83301 2.49902 -19.5zM110.002 799.999v-600c44.667 0.666992 87.167 5.5 127.5 14.5s75.5 21.5 105.5 37.5c30 15.333 53.833 33.5 71.5 54.5s27.834 43.5 30.501 67.5c5.33301 -14 18 -26.333 38 -37
c10 -5.33301 21 -9.83301 33 -13.5s22.667 -5.5 32 -5.5c27.333 0 52.333 5 75 15c16 7.33301 31.667 18 47 32c17.333 16 30.666 33 39.999 51c5.33301 -5.33301 14 -11 26 -17c17.333 -6.66699 32 -10 44 -10c17.333 0 33.666 4.33301 48.999 13
c16 7.33301 30.333 20 43 38c12 20 18 40 18 60c0 20.667 -6 40.667 -18 60c-12.667 18 -27 30.667 -43 38c-15.333 8.66699 -31.666 13 -48.999 13c-12 0 -26.667 -3.33301 -44 -10c-12 -6 -20.667 -11.667 -26 -17c-9.33301 18 -22.666 35 -39.999 51
c-15.333 14 -31 24.667 -47 32c-22.667 10 -47.667 15 -75 15c-9.33301 0 -20 -1.83301 -32 -5.5s-23 -8.16699 -33 -13.5c-20 -10.667 -32.667 -23 -38 -37c-2.66699 24 -12.834 46.5 -30.501 67.5s-41.5 39.167 -71.5 54.5c-30 16 -65.167 28.5 -105.5 37.5
s-82.833 13.833 -127.5 14.5z" />
    <glyph glyph-name="RoitransmutéB" unicode="|" horiz-adv-x="1000" 
d="M213 480c5.33301 -21.333 21.333 -40 48 -56s59 -24 97 -24c-32.667 -44 -49 -91.667 -49 -143c0 -44 12.5 -81.167 37.5 -111.5s57.833 -45.5 98.5 -45.5c32 0 67.167 10.833 105.5 32.5s78.5 55.5 120.5 101.5h167c10 0 19.333 7 28 21s16.334 33.333 23.001 58
s11.834 53.167 15.501 85.5s5.5 66.166 5.5 101.499c0 36 -1.83301 70.167 -5.5 102.5s-8.83398 60.833 -15.501 85.5s-14.334 43.834 -23.001 57.501s-18 20.5 -28 20.5h-167c-42 46 -82.167 79.833 -120.5 101.5s-73.5 32.5 -105.5 32.5c-40.667 0 -73.5 -15 -98.5 -45
s-37.5 -67.333 -37.5 -112c0 -24 4 -48.333 12 -73s20.333 -48 37 -70c-38 0 -70.333 -8 -97 -24s-42.667 -34.667 -48 -56h-53v40h-40v-40h-40v-40h40v-40h40v40h53zM605 516c-45.333 0 -85.333 6.50195 -120 19.502s-63.167 30.333 -85.5 52s-39 45.667 -50 72
s-16.5 52.5 -16.5 78.5c0 38 10.333 70 31 96s48.334 39 83.001 39c28 0 59.167 -9.83301 93.5 -29.5s70.833 -50.5 109.5 -92.5c-10 -14.667 -19.833 -42.334 -29.5 -83.001s-14.834 -91.334 -15.501 -152.001zM376 575.002c15.333 -16.667 34.333 -31.167 57 -43.5
s50 -22.833 82 -31.5c-32 -8 -59.5 -18.333 -82.5 -31s-41.833 -27.334 -56.5 -44.001c-43.333 0 -77.166 7.5 -101.499 22.5s-36.5 32.5 -36.5 52.5c0 20.667 12.167 38.334 36.5 53.001s58.166 22 101.499 22zM605 484.002c0.666992 -60 5.83398 -110.5 15.501 -151.5
s19.5 -68.833 29.5 -83.5c-38.667 -42 -75.167 -72.833 -109.5 -92.5s-65.5 -29.5 -93.5 -29.5c-34.667 0 -62.334 13 -83.001 39s-31 58 -31 96c0 26.667 5.5 53 16.5 79s27.667 49.833 50 71.5s50.833 39 85.5 52s74.667 19.5 120 19.5zM748 739.002
c-13.333 -14 -24.5 -43.167 -33.5 -87.5s-13.5 -94.833 -13.5 -151.5s4.5 -107.167 13.5 -151.5s20.167 -73.5 33.5 -87.5h-71c-13.333 14 -24.5 43.167 -33.5 87.5s-13.5 94.833 -13.5 151.5s4.5 107.167 13.5 151.5s20.167 73.5 33.5 87.5h71zM813 739.002
c-13.333 -14 -24.5 -43.167 -33.5 -87.5s-13.5 -94.833 -13.5 -151.5s4.5 -107.167 13.5 -151.5s20.167 -73.5 33.5 -87.5h-40c-13.333 14 -24.5 43.167 -33.5 87.5s-13.5 94.833 -13.5 151.5s4.5 107.167 13.5 151.5s20.167 73.5 33.5 87.5h40zM838 261.002
c-13.333 14 -24.5 43.167 -33.5 87.5s-13.5 94.833 -13.5 151.5s4.5 107.167 13.5 151.5s20.167 73.5 33.5 87.5c13.333 -14 24.5 -43.167 33.5 -87.5s13.5 -94.833 13.5 -151.5s-4.5 -107.167 -13.5 -151.5s-20.167 -73.5 -33.5 -87.5z" />
    <glyph glyph-name="SuperBerolinaN" unicode="}" horiz-adv-x="1000" 
d="M110 800v-600c44.667 0.666992 87.167 5.5 127.5 14.5s75.5 21.5 105.5 37.5c30 15.333 53.833 33.5 71.5 54.5s27.834 43.5 30.501 67.5c5.33301 -14 18 -26.333 38 -37c10 -5.33301 21 -9.83301 33 -13.5s22.667 -5.5 32 -5.5c27.333 0 52.333 5 75 15
c16 7.33301 31.667 18 47 32c17.333 16 30.666 33 39.999 51c5.33301 -5.33301 14 -11 26 -17c17.333 -6.66699 32 -10 44 -10c17.333 0 33.666 4.33301 48.999 13c16 7.33301 30.333 20 43 38c12 20 18 40 18 60c0 20.667 -6 40.667 -18 60c-12.667 18 -27 30.667 -43 38
c-15.333 8.66699 -31.666 13 -48.999 13c-12 0 -26.667 -3.33301 -44 -10c-12 -6 -20.667 -11.667 -26 -17c-9.33301 18 -22.666 35 -39.999 51c-15.333 14 -31 24.667 -47 32c-22.667 10 -47.667 15 -75 15c-9.33301 0 -20 -1.83301 -32 -5.5s-23 -8.16699 -33 -13.5
c-20 -10.667 -32.667 -23 -38 -37c-2.66699 24 -12.834 46.5 -30.501 67.5s-41.5 39.167 -71.5 54.5c-30 16 -65.167 28.5 -105.5 37.5s-82.833 13.833 -127.5 14.5z" />
    <glyph glyph-name="cngEquisauteur" unicode="~" 
d="M500 60v5l-45 -45h5zM500 170v5l-155 -155h5zM500 280v5l-265 -265h5zM500 715v5l-84 -84l3 -2zM500 825v5l-145 -145l3 -2zM500 935v5l-206 -206l3 -2zM430 320l-1 4l-304 -304h5zM373 370l-166 -161l-187 -187v-2h3zM75 180v5l-55 -55v-5zM75 290v5l-55 -55v-5zM75 400
v5l-55 -55v-5zM75 510v5l-55 -55v-5zM75 620v5l-55 -55v-5zM75 730v5l-55 -55v-5zM235 780l200 200h-5l-198 -198zM174 829l151 151h-5l-149 -149zM105 980h-5l-80 -80v-5zM215 980h-5l-190 -190v-5z" />
    <glyph glyph-name="Siamoises" 
d="M710 813l-35 18l-229 -649l35 -14zM553 813l-35 18l-228 -649l35 -14z" />
    <glyph glyph-name="CN45g" unicode="&#xc4;" horiz-adv-x="1000" 
d="M267 267c-13.333 13.333 -20 24.333 -20 33c0 6.66699 5 15 15 25c14 -14 21 -25 21 -33c0 -6 -4.66699 -13.667 -14 -23zM187 524c-14.667 14.667 -22 28.333 -22 41s9 32 27 58c14 -8.66699 21 -21.667 21 -39c0 -10 -2.33301 -20.5 -7 -31.5s-11 -20.5 -19 -28.5z
M946 534.999l-35.999 -36.001l-2 2c-37.333 36 -67 63 -89 81c-22.667 20.667 -47 41 -73 61s-52 38.333 -78 55c-39.333 24.667 -77 44.834 -113 60.501s-70.667 26.167 -104 31.5c-20.667 2.66699 -40 4 -58 4c-24.667 0 -49.667 -2.66699 -75 -8
c-12 -2 -22.333 -4.5 -31 -7.5s-14.334 -5.83301 -17.001 -8.5l-19 18c44.667 28.667 99.334 43 164.001 43c26 0 52.167 -3.16699 78.5 -9.5s56.166 -15.833 89.499 -28.5c28 -10 63.667 -27.667 107 -53c40 -24.667 84.333 -56 133 -94c24.667 -20 47.5 -39.667 68.5 -59z
M446.001 538.998l-1 1.99902c-9.33301 9.33301 -16.333 17.333 -21 24s-7 13.667 -7 21s2.66699 14 8 20c19.333 -19.333 29 -35.666 29 -48.999c0 -6.66699 -2.66699 -12.667 -8 -18zM362.001 256.997l-24 -6.99805c0 2 -0.333008 5.33301 -1 10s-1 8 -1 10
c0 14 3.33301 25.333 10 34c5.33301 -6.66699 8.83301 -12.834 10.5 -18.501s3.16699 -11.834 4.5 -18.501c0 -4.66699 0.333008 -8 1 -10zM103.001 607.999c1.33301 -5.33301 2.00098 -11.6738 2.00098 -19.0068c0 -5.33301 0.333008 -9.66602 1 -12.999
c1.33301 -14 3 -25 5 -33c0.666992 -2 2.33398 -5 5.00098 -9c3.33301 -6.66699 6.33301 -13 9 -19c3.33301 -4 6.33301 -9.66699 9 -17l2 -6c2 -4.66699 3.66699 -11.334 5 -20.001c2 -8 3.66699 -13.333 5 -16c4 -8.66699 7.66699 -18.667 11 -30
c3.33301 -10 6.33301 -18 9 -24c1.33301 -2.66699 3.33301 -7.66699 6 -15c2.66699 -9.33301 5 -16 7 -20c0.666992 -1.33301 2 -5.66602 4 -12.999c4.66699 -12.667 7.66699 -24 9 -34c0.666992 -14 1.83398 -26.5 3.50098 -37.5s4.83398 -20.5 9.50098 -28.5
c2 -2 4.66699 -5.33301 8 -10c5.33301 -6.66699 9.66602 -11.667 12.999 -15c9.33301 -9.33301 20.666 -17.666 33.999 -24.999c12.667 -4.66699 23.334 -7 32.001 -7h6c2.66699 0.666992 4.66699 1 6 1c8 0.666992 15.667 3.33398 23 8.00098s14 10 20 16l6 6
c2 2.66699 3.33301 4.33398 4 5.00098c1.33301 0 4.33301 -0.333008 9 -1c5.33301 -1.33301 9.33301 -2 12 -2c7.33301 0 15.333 3.66699 24 11v0c6.66699 9.33301 10 20.666 10 33.999c-2 8.66699 -3 21 -3 37c-1.33301 8.66699 -2 19.667 -2 33c2 12 4.33301 27.667 7 47
l6 23c7.33301 26 12.666 43 15.999 51c2.66699 8.66699 6.66699 19.334 12 32.001l7 20c16 -16 27 -33.333 33 -52s10.667 -42.334 14 -71.001l4 -35c4 -43.333 9 -76.333 15 -99c14.667 -44 38.667 -82.667 72 -116l392 393c-38.667 38.667 -70.334 68.667 -95.001 90
s-51 43 -79 65l-4 3c-19.333 16.667 -41.166 33 -65.499 49s-49.833 31 -76.5 45c-14.667 9.33301 -31.5 18 -50.5 26s-37.167 14.333 -54.5 19c-32.667 12.667 -66 20 -100 22c-14 1.33301 -27.333 2 -40 2s-24.667 -0.666992 -36 -2c-14.667 -1.33301 -32 -5 -52 -11
c-2.66699 -0.666992 -7 -2 -13 -4c-14.667 -4 -25.334 -8 -32.001 -12c-22 -10 -39 -19.667 -51 -29c-2.66699 0.666992 -5 1.33398 -7 2.00098c-22 5.33301 -39 8.83301 -51 10.5s-27.333 2.5 -46 2.5c0.666992 -0.666992 3 -7 7 -19c6 -14 11.167 -26.667 15.5 -38
s8.16602 -19.666 11.499 -24.999c-6 -6 -10.5 -10.667 -13.5 -14s-6.5 -7.66602 -10.5 -12.999h-6c-4 0.666992 -7.66699 1 -11 1c-16 0 -35 -1.16699 -57 -3.5s-39.667 -5.16602 -53 -8.49902zM189.002 684.991l-6.00098 -9.00098c-6.66699 -8 -11.667 -15.333 -15 -22
c-6.66699 -14 -13 -30.333 -19 -49c0 19.333 2 38.333 6 57c2.66699 12 5.83398 21.333 9.50098 28s8.16699 13.334 13.5 20.001z" />
    <glyph glyph-name="CB135g" unicode="&#xc5;" horiz-adv-x="1000" 
d="M477 187c-10.667 10 -20.834 18 -30.501 24s-19.5 9 -29.5 9c-14 0 -27.667 -6.33301 -41 -19c13.333 -24 31.333 -36 54 -36c16.667 0 32.334 7.33301 47.001 22zM394 104c5.33301 1.33301 11.666 1.99512 18.999 1.99512c6 0 10.333 0.333008 13 1
c13.333 0.666992 24.333 3 33 7l12 4c6 2 15.833 5.66699 29.5 11l31.5 12.5c7.33301 3 12.333 5.16699 15 6.5c5.33301 2.66699 11.666 5.33398 18.999 8.00098c2.66699 0.666992 5 1.33398 7 2.00098c5.33301 2 12 4.33301 20 7c9.33301 3.33301 18 6.66602 26 9.99902
c3.33301 1.33301 8.33301 3 15 5c8 1.33301 14.333 3 19 5c8 3.33301 17.667 6 29 8c3.33301 0.666992 6.66602 1 9.99902 1c2.66699 0 5.66699 0.333008 9 1c9.33301 0 20.666 1.66699 33.999 5c6 2 15 7.33301 27 16c10.667 8.66699 19.334 17.667 26.001 27
c9.33301 12 15 24.333 17 37v7c0.666992 2.66699 1 4.66699 1 6s-0.333008 3.33301 -1 6v7c-2 10.667 -8.33301 23.334 -19 38.001c-3.33301 4.66699 -8.66602 9.66699 -15.999 15c2.66699 9.33301 4 16 4 20c0 8 -4 16 -12 24c-6 4.66699 -11 7.33398 -15 8.00098
c-6.66699 1.33301 -13 2 -19 2c-4.66699 -0.666992 -11 -1 -19 -1c-10 -1.33301 -22.333 -2 -37 -2c-14 0 -24.667 0.333008 -32 1c-6.66699 0.666992 -15 2 -25 4l-4 1c-4 1.33301 -10 3 -18 5s-14.333 3.66699 -19 5s-10 2.66602 -16 3.99902l-21 7
c-6.66699 3.33301 -14.667 6.33301 -24 9c-5.33301 2.66699 -13.666 6 -24.999 10l-3 1c12.667 12.667 27 22.334 43 29.001s34.667 11.667 56 15c10 1.33301 25.333 3 46 5c40.667 3.33301 71.334 7.66602 92.001 12.999c24.667 5.33301 48.334 14 71.001 26
s44.334 28.333 65.001 49l-393 393c-27.333 -27.333 -46.666 -47.333 -57.999 -60l-48 -54c-8.66699 -10 -20 -24 -34 -42l-17 -21c-16.667 -19.333 -32 -40.666 -46 -63.999c-22.667 -33.333 -38.667 -59.333 -48 -78c-11.333 -18 -21 -37.333 -29 -58
c-6 -14.667 -11.667 -30.667 -17 -48c-4 -11.333 -8 -24.333 -12 -39c-8 -28.667 -12 -60.667 -12 -96c0 -28 1.66699 -47.333 5 -58c2 -12.667 6.66699 -30.667 14 -54c3.33301 -12.667 8.5 -25.5 15.5 -38.5s14.5 -25.5 22.5 -37.5c-2 -5.33301 -4.33301 -12.333 -7 -21
c-1.33301 -4 -2 -6.33301 -2 -7v-3c-1.33301 -6 -2 -10.333 -2 -13c-2.66699 -8.66699 -4 -19.667 -4 -33c0 -4.66699 0.333008 -10.334 1 -17.001v-11c2.66699 0.666992 8.33398 3 17.001 7l13 5c7.33301 3.33301 16.666 7.33301 27.999 12
c1.33301 0.666992 3.66602 1.66699 6.99902 3c6 2.66699 11.333 5.33398 16 8.00098c6 -6 10.667 -10.5 14 -13.5s7.66602 -6.5 12.999 -10.5c-0.666992 -3.33301 -1 -7.66602 -1 -12.999c0 -1.33301 0.333008 -6 1 -14v-15c0 -16 1.33301 -30.333 4 -43
c0.666992 -4 1.66699 -10.667 3 -20c1.33301 -11.333 3.66602 -20.666 6.99902 -27.999l21 22l14 16l21 22l12 14zM361 159.995c-12 0 -23.667 1.66504 -35 4.99805c-7.33301 2 -12.833 4.16699 -16.5 6.5s-8.16699 6.16602 -13.5 11.499l-2 2l17 12l-21 21
c-10.667 -10 -20.5 -17.333 -29.5 -22s-23.833 -10.667 -44.5 -18c1.33301 6.66699 2.33301 11 3 13c7.33301 32.667 16.333 56.334 27 71.001l-15 15l-13 -12c-19.333 28.667 -32.333 61.667 -39 99c-3.33301 16.667 -5 33.667 -5 51c0 14 1 28.333 3 43
c4.66699 28.667 9.66699 50.334 15 65.001c9.33301 32 24.333 67.333 45 106c22.667 42.667 49 83 79 121c20.667 26.667 48 59.334 82 98.001l53 54l28 29l336 -336c-13.333 -12.667 -31.333 -23.834 -54 -33.501s-42 -16.167 -58 -19.5
c-14.667 -2.66699 -38.334 -5.66699 -71.001 -9c-27.333 -2.66699 -47.666 -5 -60.999 -7c-24 -4 -45.833 -10.333 -65.5 -19s-37.5 -21 -53.5 -37c-12.667 -10 -22.167 -16.5 -28.5 -19.5s-15.833 -6.5 -28.5 -10.5l9 -28c12 2.66699 21.333 6 28 10s14 9.66699 22 17
c12 -4 27.333 -9.66699 46 -17c31.333 -12.667 55 -21.334 71 -26.001c30 -9.33301 61.667 -15 95 -17c26 0 49 1.33301 69 4c10 0 15 -3 15 -9c0 -5.33301 -3.33301 -9.66602 -10 -12.999c-1.33301 0 -5.33301 -0.333008 -12 -1c-10 -0.666992 -18 -1.33398 -24 -2.00098
l6 -24c6 1.33301 11 2.16602 15 2.49902s9.66699 0.5 17 0.5c6 -1.33301 10.833 -3.66602 14.5 -6.99902s7.16699 -8 10.5 -14l2 -3c4 -5.33301 6 -11.666 6 -18.999c0 -13.333 -6.33301 -26.666 -19 -39.999c-11.333 -11.333 -26.333 -21 -45 -29
c-24.667 -2 -45.667 -5.33301 -63 -10c-7.33301 -1.33301 -18.333 -4.33301 -33 -9c-0.666992 0 -3.66699 -1 -9 -3c-16.667 -5.33301 -37.667 -13 -63 -23l-19 -7l-43.5 -17l-26.5 -10c-6 -2.66699 -12 -5 -18 -7c-18 -5.33301 -37.667 -8 -59 -8l-5 1h-8l-10 -17l8 -2
c-8 -8 -15.333 -15.667 -22 -23c-6 -6.66699 -11 -12 -15 -16c-0.666992 14 -1.66699 31.667 -3 53l-1 15l4 1c5.33301 0 10.333 0.666992 15 2c0.666992 0.666992 2.33398 1.66699 5.00098 3c7.33301 4 12.666 8 15.999 12zM736 268.993l-2.00098 2
c-9.33301 9.33301 -16.666 14 -21.999 14c-8.66699 0 -20 -7 -34 -21c10 -10 18.333 -15 25 -15c8.66699 0 19.667 6.66699 33 20z" />
    <glyph glyph-name="Cn135g" unicode="&#xc7;" horiz-adv-x="1000" 
d="M477 187c-14.667 -14.667 -30.334 -22 -47.001 -22c-22.667 0 -40.667 12 -54 36c13.333 12.667 27 19 41 19c10 0 19.833 -3 29.5 -9s19.834 -14 30.501 -24zM500 505l0.000976562 407.001l315 -317c-13.333 -12.667 -31.333 -23.834 -54 -33.501s-42 -16.167 -58 -19.5
c-14.667 -2.66699 -38.334 -5.66699 -71.001 -9c-27.333 -2.66699 -47.666 -5 -60.999 -7c-28.667 -4.66699 -52.334 -11.667 -71.001 -21zM500.001 163.001v258.998c4.66699 -2 11.667 -4.66699 21 -8c21.333 -8.66699 38 -14.667 50 -18c30 -9.33301 61.667 -15 95 -17
c26 0 49 1.33301 69 4c10 0 15 -3 15 -9c0 -5.33301 -3.33301 -9.66602 -10 -12.999c-1.33301 0 -5.33301 -0.333008 -12 -1c-10 -0.666992 -18 -1.33398 -24 -2.00098l6 -24c6 1.33301 11 2.16602 15 2.49902s9.66699 0.5 17 0.5c6 -1.33301 10.833 -3.66602 14.5 -6.99902
s7.16699 -8 10.5 -14l2 -3c4 -5.33301 6 -11.666 6 -18.999c0 -13.333 -6.33301 -26.666 -19 -39.999c-11.333 -11.333 -26.333 -21 -45 -29c-24.667 -2 -45.667 -5.33301 -63 -10c-7.33301 -1.33301 -18.333 -4.33301 -33 -9c-0.666992 0 -3.66699 -1 -9 -3
c-16.667 -5.33301 -37.667 -13 -63 -23l-19 -7l-18 -7zM734.001 266.999l-2.00098 2c-9.33301 9.33301 -16.666 14 -21.999 14c-8.66699 0 -20 -7 -34 -21c10 -10 18.333 -15 25 -15c8.66699 0 19.667 6.66699 33 20zM500 911.999
c-7.33301 -9.33301 -20.665 -24.665 -39.998 -45.998c-18.667 -20.667 -32.334 -36.334 -41.001 -47.001c-20.667 -22.667 -41 -47 -61 -73s-38.333 -52 -55 -78c-24.667 -39.333 -44.834 -77 -60.501 -113s-26.167 -70.667 -31.5 -104c-2.66699 -20.667 -4 -40 -4 -58
c0 -24.667 2.66699 -49.667 8 -75c2 -11.333 4.5 -21.5 7.5 -30.5s5.83301 -15.167 8.5 -18.5l-18 -18c-28.667 44.667 -43 99 -43 163c0 26.667 3.16699 53.167 9.5 79.5s15.833 56.166 28.5 89.499c10 28 27.667 63.667 53 107c24.667 40 56 84.333 94 133l56.5 65
l52.5 56zM462.001 446l-1 -1c-10 -9.33301 -18.333 -16.333 -25 -21s-13.667 -7 -21 -7s-14 2.66699 -20 8c20 19.333 36.333 29 49 29c6.66699 0 12.667 -2.66699 18 -8zM393.001 103c5.33301 0.666992 12.0029 0.999023 20.0029 0.999023c5.33301 0.666992 9.33301 1 12 1
c2.66699 0.666992 4.66699 1 6 1c12 1.33301 21 3 27 5c2 0.666992 5 2.33398 9 5.00098c6.66699 3.33301 13 6.33301 19 9c4 3.33301 9.66699 6.33301 17 9c2.66699 0.666992 4.66699 1.33398 6 2.00098c4.66699 2 11.334 3.66699 20.001 5c8 2 13.333 3.66699 16 5
c8.66699 4 18.667 7.66699 30 11c10 3.33301 18 6.33301 24 9c2.66699 1.33301 7.66699 3.33301 15 6c9.33301 2.66699 16 5 20 7c2 0.666992 6.33301 2 13 4c12.667 4.66699 24 7.66699 34 9c14 0.666992 26.5 1.83398 37.5 3.50098s20.5 4.83398 28.5 9.50098
c2 2 5.33301 4.66699 10 8c6.66699 5.33301 11.667 9.66602 15 12.999c10.667 10.667 19 22 25 34c4.66699 12.667 7 23.334 7 32.001v6c-0.666992 2.66699 -1 4.66699 -1 6c-0.666992 8 -3.33398 15.667 -8.00098 23s-10 14 -16 20l-6 6
c-2.66699 2 -4.33398 3.33301 -5.00098 4c0 1.33301 0.666992 4.33301 2 9c0.666992 5.33301 1 9.33301 1 12c0 7.33301 -3.66699 15.333 -11 24v0c-9.33301 6.66699 -20.666 10 -33.999 10c-8.66699 -2 -21 -3 -37 -3c-8.66699 -1.33301 -19.667 -2 -33 -2
c-12 2 -27.667 4.33301 -47 7l-23 6c-26 7.33301 -43 12.666 -51 15.999c-8.66699 2.66699 -19.334 6.66699 -32.001 12l-20 7c16 16 33.333 27 52 33s42.334 10.667 71.001 14l35 4c43.333 4 76.333 9 99 15c44 14.667 82.667 38.667 116 72l-393 392
c-38.667 -38.667 -68.667 -70.334 -90 -95.001l-65 -79l-3 -4c-16.667 -19.333 -33 -41.166 -49 -65.499s-31 -49.833 -45 -76.5c-8.66699 -14.667 -17.167 -31.5 -25.5 -50.5s-14.833 -37.167 -19.5 -54.5c-12.667 -32.667 -20 -66 -22 -100
c-1.33301 -14 -2 -27.333 -2 -40s0.666992 -24.667 2 -36c3.33301 -20 7 -37.333 11 -52c0.666992 -2.66699 2 -7 4 -13c4.66699 -14.667 8.66699 -25.334 12 -32.001c10 -22 19.667 -39 29 -51l-1 -5c-5.33301 -23.333 -9 -40.833 -11 -52.5s-3 -27.167 -3 -46.5
c0.666992 0.666992 7 3 19 7c14 6 26.667 11.167 38 15.5s19.666 8.16602 24.999 11.499c6 -6 10.667 -10.5 14 -13.5s7.66602 -6.5 12.999 -10.5v-6c-0.666992 -4 -1 -7.66699 -1 -11c0 -16 1.16699 -35 3.5 -57s5.16602 -39.667 8.49902 -53zM316.004 188.999
c2.66699 -2 5.66797 -4.00098 9.00098 -6.00098c8 -6.66699 15.333 -11.667 22 -15c12.667 -6 29 -12.333 49 -19c-19.333 0 -38.333 2 -57 6c-12 2.66699 -21.333 5.83398 -28 9.50098s-13.334 8.16699 -20.001 13.5z" />
    <glyph glyph-name="basdouble" unicode="&#xc9;" horiz-adv-x="1000" 
d="M0 880h1000v60h-1000v-60zM0 970h1000v30h-1000v-30z" />
    <glyph glyph-name="cngBérolina" unicode="&#xd1;" 
d="M20 895l85 85h-5l-80 -80v-5zM500 65l-45 -45h5l40 40v5zM418 93l-73 -73h5l70 70zM365 150l-130 -130h5l127 127zM355 250l-230 -230h5l228 228zM314 317l-294 -294v-3h2l294 294zM281 391l-261 -261v-5l263 263zM296 516l-276 -276v-5l273 275zM252 582l-232 -232v-5
l234 234zM210 650l-190 -190v-5l191 191zM180 730l-160 -160v-5l161 161zM162 822l-142 -142v-5l142 142v5zM156 926l-136 -136v-5l135 135zM170 935l45 45h-5l-45 -45h5zM280 935l45 45h-5l-45 -45h5zM390 935l45 45h-5l-45 -45h5z" />
    <glyph glyph-name="cndBérolina" unicode="&#xd6;" 
d="M844 842l136 136v2h-3l-131 -131zM830 935l45 45h-5l-45 -45h5zM720 935l45 45h-5l-45 -45h5zM610 935l45 45h-5l-45 -45h5zM500 935l45 45h-5l-40 -40v-5zM813 708l-5 -10l172 172v5zM722 507v-5l258 258v5zM718 393l-4 -9l266 266v5zM653 218v-5l327 327v5zM895 20h5
l80 80v5zM785 20h5l190 190v5zM675 20h5l300 300v5zM565 20h5l410 410v5z" />
    <glyph glyph-name="cngRoitransmuté" unicode="&#xdc;" 
d="M45 485l-25 -25v-5l25 25v5zM89 419l-69 -69v-5l70 70zM160 600l106 106v-5l-101 -101h-5zM197 417l-177 -177v-5l180 180zM262 372l-242 -242v-5l245 245zM264 266l-244 -244v-2h3l240 240zM272 167l-147 -147h5l142 142v5zM316 101l-81 -81h5l79 79zM383 58l-38 -38h5
l38 38h-5zM495 60l-40 -40h5l40 40h-5zM398 943l37 37h-5l-39 -39zM268 813l2 7l-250 -250v-5zM105 980h-5l-80 -80v-5zM215 980h-5l-190 -190v-5zM325 980h-5l-300 -300v-5z" />
    <glyph glyph-name="cndRoitransmuté" unicode="&#xe1;" 
d="M735 190l-170 -170h5l170 170h-5zM845 190l-170 -170h5l170 170h-5zM927 267l53 53v5l-49 -49zM950 400l30 30v5l-28 -28zM955 515l25 25v5l-25 -25v-5zM951 621l29 29v5l-30 -30zM933 713l47 47v5l-49 -49zM899 789l81 81v5l-83 -83zM813 810l167 167v3h-2l-170 -170h5z
M705 810l170 170h-5l-170 -170h5zM646 861l119 119h-5l-116 -116zM582 907l73 73h-5l-71 -71zM505 940l40 40h-5l-40 -40h5zM980 215v-5l-190 -190h-5zM980 105v-5l-80 -80h-5z" />
    <glyph glyph-name="cndLocuste" unicode="&#xe0;" 
d="M500 60l41 41l-4 1l-37 -37v-5zM500 935l45 45h-5l-40 -40v-5zM628 78l-3 2l-60 -60h5zM694 34l-3 2l-16 -16h5zM688 248l-4 1l-13 -13l3 -2zM834 179v-5l22 22h-5zM932 272l48 48v5l-48 -48v-5zM912 362l68 68v5l-70 -70zM725 395l33 33l-3 2l-33 -33zM954 514l26 26v5
l-26 -26v-5zM572 902l7 2l76 76h-5zM682 787h-5l-32 -32h5zM687 582h5l33 33l-7 -2zM920 590l60 60v5l-63 -63zM929 709l51 51v5l-51 -51v-5zM895 785l85 85v5l-88 -88zM843 840l137 137v3h-2l-134 -134zM831 936l44 44h-5l-41 -41zM980 215l-195 -195h5l190 190v5zM980 105
l-85 -85h5l80 80v5z" />
    <glyph glyph-name="cngPoséidon" unicode="&#xe2;" 
d="M265 810l170 170h-5l-170 -170h5zM155 810l170 170h-5l-170 -170h5zM73 733l-53 -53v-5l49 49zM50 600l-30 -30v-5l28 28zM45 485l-25 -25v-5l25 25v5zM49 379l-29 -29v-5l30 30zM67 287l-47 -47v-5l49 49zM101 211l-81 -81v-5l83 83zM187 190l-167 -167v-3h2l170 170h-5
zM295 190l-170 -170h5l170 170h-5zM354 139l-119 -119h5l116 116zM418 93l-73 -73h5l71 71zM495 60l-40 -40h5l40 40h-5zM20 785l195 195h-5l-190 -190v-5zM20 895l85 85h-5l-80 -80v-5z" />
    <glyph glyph-name="cndPoséidon" unicode="&#xe4;" 
d="M955 515l25 25v5l-25 -25v-5zM911 581l69 69v5l-70 -70zM840 400h-5l-101 -101v-5zM803 583l177 177v5l-180 -180zM738 628l242 242v5l-245 -245zM736 734l244 244v2h-3l-240 -240zM728 833l147 147h-5l-142 -142v-5zM684 899l81 81h-5l-79 -79zM617 942l38 38h-5
l-38 -38h5zM505 940l40 40h-5l-40 -40h5zM602 57l-37 -37h5l39 39zM732 187l-2 -7l250 250v5zM895 20h5l80 80v5zM785 20h5l190 190v5zM675 20h5l300 300v5z" />
    <glyph glyph-name="cngSuperP" unicode="&#xe3;" 
d="M500 60v5l-45 -45h5zM500 170v5l-155 -155h5zM500 280h-5l-260 -260h5zM500 825v5l-118 -118l7 2zM500 935v5l-285 -285h5zM65 505l-45 -45v-5l45 45v5zM85 415l-65 -65v-5l67 67zM141 361l-121 -121v-5l124 124zM239 349l-219 -219v-5l222 222zM312 314l-292 -292v-2h3
l292 292zM383 278l-258 -258h5l258 258h-5zM105 980h-5l-80 -80v-5zM215 980h-5l-190 -190v-5zM325 980h-5l-300 -300v-5zM435 980h-5l-410 -410v-5z" />
    <glyph glyph-name="cndSuperP" unicode="&#xe5;" 
d="M500 60l145 145l-3 2l-142 -142v-5zM500 170l75 75l-3 2l-72 -72v-5zM500 280l13 13l-3 2l-10 -10v-5zM500 715l265 265h-5l-260 -260v-5zM500 825l155 155h-5l-150 -150v-5zM500 935l45 45h-5l-40 -40v-5zM720 175l-155 -155h5l154 154zM808 153l-133 -133h5l133 133h-5
zM935 275l45 45v5l-45 -45v-5zM935 385l45 45v5l-45 -45v-5zM935 495l45 45v5l-45 -45v-5zM935 605l45 45v5l-45 -45v-5zM935 715l45 45v5l-45 -45v-5zM935 825l45 45v5l-45 -45v-5zM843 840l137 137v3h-2l-140 -140h5zM707 812l168 168h-5l-171 -171zM980 215v-5l-190 -190
h-5zM980 105v-5l-80 -80h-5z" />
    <glyph glyph-name="cngLocuste" unicode="&#xe7;" 
d="M500 60v5l-45 -45h5zM500 935v5l-74 -74l9 4zM456 126l-4 1l-107 -107h5zM374 154l-4 1l-135 -135h5zM299 189l-4 1l-170 -170h5zM151 148l-4 1l-127 -127v-2h3zM88 193l-1 4l-67 -67v-5zM62 277v5l-42 -42v-5zM51 376l1 6l-32 -32v-5zM45 480v5l-25 -25v-5zM47 592l1 6
l-28 -28v-5zM55 710l2 7l-37 -37v-5zM189 849l3 -2l133 133h-5zM271 821l3 -2l161 161h-5zM105 980h-5l-80 -80v-5zM215 980h-5l-190 -190v-5z" />
    <glyph glyph-name="cndS" unicode="&#xe9;" 
d="M566 241l2 -3l47 47l-2 3zM640 95l-75 -75h5l73 73zM506 946h5l34 34h-5zM613 943l4 -1l38 38h-5zM709 929l4 -1l52 52h-5zM798 908l4 -1l73 73h-5zM844 847l-3 -8l139 139v2h-3zM798 693l2 -3l180 180v5zM837 622l1 -4l142 142v5zM863 538l1 -4l116 116v5zM886 451l1 -4
l93 93v5zM906 361l2 -3l72 72v5zM961 306l1 -4l18 18v5zM774 339l-30 -30v-5l32 32zM825 170l-36 -36l-55 -55l-59 -59h5l59 59l47 47l42 42zM895 20h5l80 80v5zM785 20h5l190 190v5z" />
    <glyph glyph-name="cndLeo" unicode="&#xe8;" 
d="M500 940v-5l45 45h-5zM500 65v-5l74 74l-9 -4zM544 874l4 -1l107 107h-5zM626 846l4 -1l135 135h-5zM701 811l4 -1l170 170h-5zM849 852l4 -1l127 127v2h-3zM912 807l1 -4l67 67v5zM938 723v-5l42 42v5zM949 624l-1 -6l32 32v5zM955 520v-5l25 25v5zM953 408l-1 -6l28 28
v5zM945 290l-2 -7l37 37v5zM811 151l-3 2l-133 -133h5zM729 179l-3 2l-161 -161h5zM895 20h5l80 80v5zM785 20h5l190 190v5z" />
    <glyph glyph-name="cngSuperBerolina" unicode="&#xea;" 
d="M500 60v5l-45 -45h5zM500 170v5l-155 -155h5zM500 280v5l-265 -265h5zM500 715v5l-13 -13l3 -2zM500 825v5l-75 -75l3 -2zM500 935v5l-145 -145l3 -2zM280 825l155 155h-5l-154 -154zM192 847l133 133h-5l-133 -133h5zM65 725l-45 -45v-5l45 45v5zM65 615l-45 -45v-5
l45 45v5zM65 505l-45 -45v-5l45 45v5zM65 395l-45 -45v-5l45 45v5zM65 285l-45 -45v-5l45 45v5zM65 175l-45 -45v-5l45 45v5zM157 160l-137 -137v-3h2l140 140h-5zM298 193l-173 -173h5l176 176zM20 785l195 195h-5l-190 -190v-5zM20 895l85 85h-5l-80 -80v-5z" />
    <glyph glyph-name="cndSuperBerolina" unicode="&#xeb;" 
d="M500 940v-5l45 45h-5zM500 830v-5l155 155h-5zM500 720h5l260 260h-5zM500 175v-5l118 118l-7 -2zM500 65v-5l285 285h-5zM935 495l45 45v5l-45 -45v-5zM912 582l68 68v5l-70 -70zM859 639l121 121v5l-124 -124zM756 646l224 224v5l-227 -227zM688 686l292 292v2h-3
l-292 -292zM617 722l258 258h-5l-258 -258h5zM895 20h5l80 80v5zM785 20h5l190 190v5zM675 20h5l300 300v5zM565 20h5l410 410v5z" />
    <glyph glyph-name="cngRoiimmobile" unicode="&#xed;" 
d="M20 895l85 85h-5l-80 -80v-5zM20 785l195 195h-5l-190 -190v-5zM402 952h5l28 28h-5zM259 919l9 4l57 57h-5zM189 844v5l-169 -169v-5zM189 734v5l-169 -169v-5zM72 512l-52 -52v-5l48 48zM63 393l-43 -43v-5l43 43v5zM99 319l-79 -79v-5l82 82zM168 278l-148 -148v-5
l152 152zM260 263l-240 -240v-3h2l243 243h-5zM369 264l-244 -244h5l241 241zM480 45l-25 -25h5l25 25h-5zM426 96l-3 2l-78 -78h5zM416 196l-3 2l-178 -178h5z" />
    <glyph glyph-name="cndRoiimmobile" unicode="&#xb4;" 
d="M934 499v-5l46 46v5zM809 704v-5l171 171v5zM856 641l2 -3l122 122v5zM903 578l2 -3l75 75v5zM600 165v-5l111 111l-4 1zM929 384l-5 -10l56 56v5zM845 295l-11 -6l-269 -269h5zM514 954h5l26 26h-5zM615 945l4 -1l36 36h-5zM708 928l4 -1l53 53h-5zM786 896l2 -3l87 87
h-5zM809 812v-5l171 171v2h-3zM895 20h5l80 80v5zM785 20h5l190 190v5zM675 20h5l300 300v5z" />
    <glyph glyph-name="cndRoiimmobile" unicode="&#xec;" 
d="M934 499v-5l46 46v5zM809 704v-5l171 171v5zM856 641l2 -3l122 122v5zM903 578l2 -3l75 75v5zM600 165v-5l111 111l-4 1zM929 384l-5 -10l56 56v5zM845 295l-11 -6l-269 -269h5zM514 954h5l26 26h-5zM615 945l4 -1l36 36h-5zM708 928l4 -1l53 53h-5zM786 896l2 -3l87 87
h-5zM809 812v-5l171 171v2h-3zM895 20h5l80 80v5zM785 20h5l190 190v5zM675 20h5l300 300v5z" />
    <glyph glyph-name="CB45g" unicode="&#xaa;" horiz-adv-x="1000" 
d="M187 524c8 8 14.333 17.501 19 28.501s7 21.5 7 31.5c0 17.333 -7 30.333 -21 39c-18 -26 -27 -45.333 -27 -58s7.33301 -26.334 22 -41.001zM105 607.001c0.666992 -5.33301 1 -12.3242 1 -20.9912c0.666992 -5.33301 1 -9.33301 1 -12c2 -14 4.66699 -24.667 8 -32
c0.666992 -2.66699 2.33398 -7.83398 5.00098 -15.501s5.33398 -14.834 8.00098 -21.501l11 -27.5c4.66699 -11.667 8 -19.5 10 -23.5c4.66699 -11.333 7.66699 -20.333 9 -27c3.33301 -6 6.66602 -14.333 9.99902 -25l7 -20c2 -4 4 -10 6 -18c2 -7.33301 3.66699 -13 5 -17
c4 -8.66699 6.66699 -18.334 8 -29.001c0.666992 -4 1 -10 1 -18c0 -10.667 2 -22 6 -34c2 -6 7.33301 -15 16 -27c6.66699 -9.33301 15.667 -18 27 -26c12 -8.66699 24.333 -14.334 37 -17.001h6c2.66699 -0.666992 5 -1 7 -1c1.33301 0 3.33301 0.333008 6 1h6
c6 1.33301 12.5 3.66602 19.5 6.99902s13.5 7.33301 19.5 12s10.667 10 14 16c1.33301 -0.666992 2.33301 -1 3 -1c8.66699 -2 14.667 -3 18 -3c8 0 16 4 24 12l2 3c3.33301 5.33301 5.33301 9.33301 6 12c1.33301 6.66699 2 13 2 19c-0.666992 2.66699 -1 6.66699 -1 12
c-0.666992 3.33301 -1 5.66602 -1 6.99902l-1 10c-0.666992 12 -1 21 -1 27c0 8 0.666992 17.333 2 28v4c0.666992 6.66699 2 15 4 25l1 4c1.33301 4.66699 3 11 5 19c1.33301 7.33301 2.66602 13.333 3.99902 18c1.33301 4 3.33301 10.333 6 19c2 8 4 14 6 18
s4.33301 10.667 7 20c0 1.33301 0.333008 2.66602 1 3.99902c4.66699 8 8.66699 17.333 12 28c23.333 -24 37.666 -57 42.999 -99c2 -12 4 -30 6 -54c3.33301 -36.667 7.33301 -64.667 12 -84c6.66699 -25.333 15.834 -49.166 27.501 -71.499s27.834 -43.833 48.501 -64.5
l393 393c-27.333 27.333 -47.666 46.666 -60.999 57.999c-18 17.333 -36 33.333 -54 48c-8 7.33301 -20.333 17.666 -37 30.999l-26 21c-12.667 11.333 -33.667 26.333 -63 45c-28 19.333 -54.333 35.666 -79 48.999c-22.667 12.667 -42 22 -58 28
c-13.333 6 -29 11.667 -47 17c-14.667 5.33301 -28 9.33301 -40 12c-28 8 -59.667 12 -95 12c-28.667 0 -48.334 -1.66699 -59.001 -5c-13.333 -2 -31.333 -6.66699 -54 -14c-12.667 -4 -25.667 -9.5 -39 -16.5s-25.333 -14.167 -36 -21.5c-4.66699 2 -11.667 4.33301 -21 7
c-0.666992 0 -3.33398 0.666992 -8.00098 2c-6.66699 1.33301 -11.667 2 -15 2h-2c-12.667 2.66699 -23.334 4 -32.001 4c-4.66699 0 -10 -0.333008 -16 -1h-11c3.33301 -10 7.33301 -20 12 -30c2.66699 -7.33301 6.66699 -16.666 12 -27.999
c2.66699 -6.66699 6.33398 -14.334 11.001 -23.001l-5 -5c-8.66699 -8 -15 -15.333 -19 -22c-3.33301 0.666992 -8 1 -14 1h-14c-8 -0.666992 -13 -1 -15 -1c-15.333 0 -29.333 -1.33301 -42 -4c-3.33301 -0.666992 -6.66602 -1 -9.99902 -1l-10 -2
c-0.666992 0 -3.33398 -0.333008 -8.00098 -1c-9.33301 -2 -16 -4 -20 -6l22 -21l16 -15l22 -20l13 -12zM160 640.01c0 7.33301 1.32715 17.334 3.99414 30.001l1 5c2 6.66699 4 11.5 6 14.5s5.33301 7.16699 10 12.5l5 5l11 -17l21 21
c-9.33301 10.667 -16.166 20 -20.499 28s-10.166 21.667 -17.499 41c0 2 -0.333008 3.33301 -1 4l16 -4c30.667 -6 53 -14.333 67 -25l16 15l-13 13c30 19.333 63.333 32.333 100 39c16.667 3.33301 33.667 5 51 5c13.333 0 27.333 -1 42 -3
c27.333 -4.66699 49.333 -9.66699 66 -15c36 -10.667 71 -25.667 105 -45c41.333 -22 82 -48.333 122 -79c26.667 -20 59.334 -47.333 98.001 -82l82 -81l-335 -336c-12.667 13.333 -23.834 31.166 -33.501 53.499s-16.167 41.833 -19.5 58.5
c-2.66699 15.333 -5.33398 37.333 -8.00098 66c-3.33301 29.333 -6.33301 51.333 -9 66c-4 24 -10.167 45.833 -18.5 65.5s-20.5 37.5 -36.5 53.5l-1 1c-10 13.333 -16.5 22.833 -19.5 28.5s-6.16699 14.834 -9.5 27.501l-28 -9
c2.66699 -11.333 5.83398 -20.333 9.50098 -27s9.16699 -14.334 16.5 -23.001c-2 -4.66699 -7.33301 -18.667 -16 -42c-12 -32 -20.667 -57 -26 -75c-10.667 -34 -16.334 -65.667 -17.001 -95v-8c-0.666992 -2.66699 -1 -5.33398 -1 -8.00098
c0 -9.33301 1 -22.666 3 -39.999l1 -13v-2l1 -3c0 -6.66699 -3 -10 -9 -10s-10.667 3.33301 -14 10v13.5c0 4.33301 -0.666992 11.833 -2 22.5l-24 -6c1.33301 -7.33301 2.33301 -15.666 3 -24.999v-7c-1.33301 -6 -3.66602 -10.833 -6.99902 -14.5s-8 -7.16699 -14 -10.5
l-3 -2c-5.33301 -4 -11.666 -6 -18.999 -6c-13.333 0 -26.666 6.33301 -39.999 19c-11.333 11.333 -21 26.333 -29 45c-2 24.667 -5.33301 45.667 -10 63c-4 15.333 -8 29.333 -12 42c-4 12 -9.66699 28 -17 48c-6 15.333 -10.333 26.666 -13 33.999
c-6 13.333 -13.333 31.333 -22 54c-6 16.667 -10.333 28 -13 34c-5.33301 18 -8 37.667 -8 59c0.666992 4 1 6.66699 1 8c0.666992 2 1 3.66699 1 5l-17 10l-2 -8l-29 27c-5.33301 4.66699 -9 8 -11 10c10.667 0.666992 25.334 1.33398 44.001 2.00098
c10 0.666992 18 1.33398 24 2.00098c0 -0.666992 0.333008 -2.33398 1 -5.00098c0.666992 -4.66699 1.66699 -9.33398 3 -14.001c0.666992 -0.666992 1.33398 -2 2.00098 -4c4 -8 8 -13.667 12 -17zM269.994 265.011l2 2c9.33301 9.33301 14 17 14 23c0 8 -7 19 -21 33
c-10 -10 -15 -18.333 -15 -25c0 -8.66699 6.66699 -19.667 20 -33z" />
    <glyph glyph-name="CB45g" unicode="&#xee;" horiz-adv-x="1000" 
d="M187 524c8 8 14.333 17.501 19 28.501s7 21.5 7 31.5c0 17.333 -7 30.333 -21 39c-18 -26 -27 -45.333 -27 -58s7.33301 -26.334 22 -41.001zM105 607.001c0.666992 -5.33301 1 -12.3242 1 -20.9912c0.666992 -5.33301 1 -9.33301 1 -12c2 -14 4.66699 -24.667 8 -32
c0.666992 -2.66699 2.33398 -7.83398 5.00098 -15.501s5.33398 -14.834 8.00098 -21.501l11 -27.5c4.66699 -11.667 8 -19.5 10 -23.5c4.66699 -11.333 7.66699 -20.333 9 -27c3.33301 -6 6.66602 -14.333 9.99902 -25l7 -20c2 -4 4 -10 6 -18c2 -7.33301 3.66699 -13 5 -17
c4 -8.66699 6.66699 -18.334 8 -29.001c0.666992 -4 1 -10 1 -18c0 -10.667 2 -22 6 -34c2 -6 7.33301 -15 16 -27c6.66699 -9.33301 15.667 -18 27 -26c12 -8.66699 24.333 -14.334 37 -17.001h6c2.66699 -0.666992 5 -1 7 -1c1.33301 0 3.33301 0.333008 6 1h6
c6 1.33301 12.5 3.66602 19.5 6.99902s13.5 7.33301 19.5 12s10.667 10 14 16c1.33301 -0.666992 2.33301 -1 3 -1c8.66699 -2 14.667 -3 18 -3c8 0 16 4 24 12l2 3c3.33301 5.33301 5.33301 9.33301 6 12c1.33301 6.66699 2 13 2 19c-0.666992 2.66699 -1 6.66699 -1 12
c-0.666992 3.33301 -1 5.66602 -1 6.99902l-1 10c-0.666992 12 -1 21 -1 27c0 8 0.666992 17.333 2 28v4c0.666992 6.66699 2 15 4 25l1 4c1.33301 4.66699 3 11 5 19c1.33301 7.33301 2.66602 13.333 3.99902 18c1.33301 4 3.33301 10.333 6 19c2 8 4 14 6 18
s4.33301 10.667 7 20c0 1.33301 0.333008 2.66602 1 3.99902c4.66699 8 8.66699 17.333 12 28c23.333 -24 37.666 -57 42.999 -99c2 -12 4 -30 6 -54c3.33301 -36.667 7.33301 -64.667 12 -84c6.66699 -25.333 15.834 -49.166 27.501 -71.499s27.834 -43.833 48.501 -64.5
l393 393c-27.333 27.333 -47.666 46.666 -60.999 57.999c-18 17.333 -36 33.333 -54 48c-8 7.33301 -20.333 17.666 -37 30.999l-26 21c-12.667 11.333 -33.667 26.333 -63 45c-28 19.333 -54.333 35.666 -79 48.999c-22.667 12.667 -42 22 -58 28
c-13.333 6 -29 11.667 -47 17c-14.667 5.33301 -28 9.33301 -40 12c-28 8 -59.667 12 -95 12c-28.667 0 -48.334 -1.66699 -59.001 -5c-13.333 -2 -31.333 -6.66699 -54 -14c-12.667 -4 -25.667 -9.5 -39 -16.5s-25.333 -14.167 -36 -21.5c-4.66699 2 -11.667 4.33301 -21 7
c-0.666992 0 -3.33398 0.666992 -8.00098 2c-6.66699 1.33301 -11.667 2 -15 2h-2c-12.667 2.66699 -23.334 4 -32.001 4c-4.66699 0 -10 -0.333008 -16 -1h-11c3.33301 -10 7.33301 -20 12 -30c2.66699 -7.33301 6.66699 -16.666 12 -27.999
c2.66699 -6.66699 6.33398 -14.334 11.001 -23.001l-5 -5c-8.66699 -8 -15 -15.333 -19 -22c-3.33301 0.666992 -8 1 -14 1h-14c-8 -0.666992 -13 -1 -15 -1c-15.333 0 -29.333 -1.33301 -42 -4c-3.33301 -0.666992 -6.66602 -1 -9.99902 -1l-10 -2
c-0.666992 0 -3.33398 -0.333008 -8.00098 -1c-9.33301 -2 -16 -4 -20 -6l22 -21l16 -15l22 -20l13 -12zM160 640.01c0 7.33301 1.32715 17.334 3.99414 30.001l1 5c2 6.66699 4 11.5 6 14.5s5.33301 7.16699 10 12.5l5 5l11 -17l21 21
c-9.33301 10.667 -16.166 20 -20.499 28s-10.166 21.667 -17.499 41c0 2 -0.333008 3.33301 -1 4l16 -4c30.667 -6 53 -14.333 67 -25l16 15l-13 13c30 19.333 63.333 32.333 100 39c16.667 3.33301 33.667 5 51 5c13.333 0 27.333 -1 42 -3
c27.333 -4.66699 49.333 -9.66699 66 -15c36 -10.667 71 -25.667 105 -45c41.333 -22 82 -48.333 122 -79c26.667 -20 59.334 -47.333 98.001 -82l82 -81l-335 -336c-12.667 13.333 -23.834 31.166 -33.501 53.499s-16.167 41.833 -19.5 58.5
c-2.66699 15.333 -5.33398 37.333 -8.00098 66c-3.33301 29.333 -6.33301 51.333 -9 66c-4 24 -10.167 45.833 -18.5 65.5s-20.5 37.5 -36.5 53.5l-1 1c-10 13.333 -16.5 22.833 -19.5 28.5s-6.16699 14.834 -9.5 27.501l-28 -9
c2.66699 -11.333 5.83398 -20.333 9.50098 -27s9.16699 -14.334 16.5 -23.001c-2 -4.66699 -7.33301 -18.667 -16 -42c-12 -32 -20.667 -57 -26 -75c-10.667 -34 -16.334 -65.667 -17.001 -95v-8c-0.666992 -2.66699 -1 -5.33398 -1 -8.00098
c0 -9.33301 1 -22.666 3 -39.999l1 -13v-2l1 -3c0 -6.66699 -3 -10 -9 -10s-10.667 3.33301 -14 10v13.5c0 4.33301 -0.666992 11.833 -2 22.5l-24 -6c1.33301 -7.33301 2.33301 -15.666 3 -24.999v-7c-1.33301 -6 -3.66602 -10.833 -6.99902 -14.5s-8 -7.16699 -14 -10.5
l-3 -2c-5.33301 -4 -11.666 -6 -18.999 -6c-13.333 0 -26.666 6.33301 -39.999 19c-11.333 11.333 -21 26.333 -29 45c-2 24.667 -5.33301 45.667 -10 63c-4 15.333 -8 29.333 -12 42c-4 12 -9.66699 28 -17 48c-6 15.333 -10.333 26.666 -13 33.999
c-6 13.333 -13.333 31.333 -22 54c-6 16.667 -10.333 28 -13 34c-5.33301 18 -8 37.667 -8 59c0.666992 4 1 6.66699 1 8c0.666992 2 1 3.66699 1 5l-17 10l-2 -8l-29 27c-5.33301 4.66699 -9 8 -11 10c10.667 0.666992 25.334 1.33398 44.001 2.00098
c10 0.666992 18 1.33398 24 2.00098c0 -0.666992 0.333008 -2.33398 1 -5.00098c0.666992 -4.66699 1.66699 -9.33398 3 -14.001c0.666992 -0.666992 1.33398 -2 2.00098 -4c4 -8 8 -13.667 12 -17zM269.994 265.011l2 2c9.33301 9.33301 14 17 14 23c0 8 -7 19 -21 33
c-10 -10 -15 -18.333 -15 -25c0 -8.66699 6.66699 -19.667 20 -33z" />
    <glyph glyph-name="Cn45g" unicode="&#xef;" horiz-adv-x="1000" 
d="M187 524c-14.667 14.667 -22 28.333 -22 41s9 32 27 58c14 -8.66699 21 -21.667 21 -39c0 -10 -2.33301 -20.5 -7 -31.5s-11 -20.5 -19 -28.5zM502 819.999c13.333 -4 33 -11.499 59 -22.499s48.667 -22.167 68 -33.5c41.333 -22 82 -48.333 122 -79
c26.667 -20 59.334 -47.333 98.001 -82l82 -81l-335 -336c-12.667 13.333 -23.834 31.166 -33.501 53.499s-16.167 41.833 -19.5 58.5c-2.66699 15.333 -5.33398 37.333 -8.00098 66c-3.33301 29.333 -6.33301 51.333 -9 66c-4 30.667 -12.667 57.667 -26 81v268
c-17.333 5.33301 -33.666 9 -48.999 11c-20.667 2.66699 -40 4 -58 4c-24.667 0 -49.667 -2.66699 -75 -8c-12 -2 -22.333 -4.5 -31 -7.5s-14.334 -5.83301 -17.001 -8.5l-19 18c44.667 28.667 99.334 43 164.001 43c25.333 0 54.333 -3.66699 87 -11zM267 267
c-13.333 13.333 -20 24.333 -20 33c0 6.66699 5 15 15 25c14 -14 21 -25 21 -33c0 -6 -4.66699 -13.667 -14 -23zM446 539l-1 1.99902c-9.33301 9.33301 -16.333 17.333 -21 24s-7 13.667 -7 21s2.66699 14 8 20c19.333 -19.333 29 -35.666 29 -48.999
c0 -6.66699 -2.66699 -12.667 -8 -18zM362 256.999l-24 -6.99805c0 2 -0.333008 5.33301 -1 10s-1 8 -1 10c0 14 3.33301 25.333 10 34c5.33301 -6.66699 8.83301 -12.834 10.5 -18.501s3.16699 -11.834 4.5 -18.501c0 -4.66699 0.333008 -8 1 -10zM103 608.001
c1.33301 -5.33301 2.00195 -11.6738 2.00195 -19.0068c0 -5.33301 0.333008 -9.66602 1 -12.999c1.33301 -14 3 -25 5 -33c0.666992 -2 2.33398 -5 5.00098 -9c3.33301 -6.66699 6.33301 -13 9 -19c3.33301 -4 6.33301 -9.66699 9 -17l2 -6
c2 -4.66699 3.66699 -11.334 5 -20.001c2 -8 3.66699 -13.333 5 -16c4 -8.66699 7.66699 -18.667 11 -30c3.33301 -10 6.33301 -18 9 -24c1.33301 -2.66699 3.33301 -7.66699 6 -15c2.66699 -9.33301 5 -16 7 -20c0.666992 -1.33301 2 -5.66602 4 -12.999
c4.66699 -12.667 7.66699 -24 9 -34c0.666992 -14 1.83398 -26.5 3.50098 -37.5s4.83398 -20.5 9.50098 -28.5c2 -2 4.66699 -5.33301 8 -10c5.33301 -6.66699 9.66602 -11.667 12.999 -15c9.33301 -9.33301 20.666 -17.666 33.999 -24.999
c12.667 -4.66699 23.334 -7 32.001 -7h6c2.66699 0.666992 4.66699 1 6 1c8 0.666992 15.667 3.33398 23 8.00098s14 10 20 16l6 6c2 2.66699 3.33301 4.33398 4 5.00098c1.33301 0 4.33301 -0.333008 9 -1c5.33301 -1.33301 9.33301 -2 12 -2
c7.33301 0 15.333 3.66699 24 11v0c6.66699 9.33301 10 20.666 10 33.999c-2 8.66699 -3 21 -3 37c-1.33301 8.66699 -2 19.667 -2 33c2 12 4.33301 27.667 7 47l6 23c7.33301 26 12.666 43 15.999 51c2.66699 8.66699 6.66699 19.334 12 32.001l7 20
c16 -16 27 -33.333 33 -52s10.667 -42.334 14 -71.001l4 -35c4 -43.333 9 -76.333 15 -99c14.667 -44 38.667 -82.667 72 -116l392 393c-38.667 38.667 -70.334 68.667 -95.001 90s-51 43 -79 65l-4 3c-19.333 16.667 -41.166 33 -65.499 49s-49.833 31 -76.5 45
c-14.667 8.66699 -31.334 17.167 -50.001 25.5s-37 15.833 -55 22.5c-36.667 10.667 -70 17 -100 19c-14 1.33301 -27.333 2 -40 2s-24.667 -0.666992 -36 -2c-14.667 -1.33301 -32 -5 -52 -11c-2.66699 -0.666992 -7 -2 -13 -4c-14.667 -4 -25.334 -8 -32.001 -12
c-22 -10 -39 -19.667 -51 -29c-2.66699 0.666992 -5 1.33398 -7 2.00098c-22 5.33301 -39 8.83301 -51 10.5s-27.333 2.5 -46 2.5c0.666992 -0.666992 3 -7 7 -19c6 -14 11.167 -26.667 15.5 -38s8.16602 -19.666 11.499 -24.999c-6 -6 -10.5 -10.667 -13.5 -14
s-6.5 -7.66602 -10.5 -12.999h-6c-4 0.666992 -7.66699 1 -11 1c-16 0 -35 -1.16699 -57 -3.5s-39.667 -5.16602 -53 -8.49902zM189.002 684.993l-6.00098 -9.00098c-6.66699 -8 -11.667 -15.333 -15 -22c-6.66699 -14 -13 -30.333 -19 -49c0 19.333 2 38.333 6 57
c2.66699 12 5.83398 21.333 9.50098 28s8.16699 13.334 13.5 20.001z" />
    <glyph glyph-name="cngC135g" unicode="&#xf1;" 
d="M500 65v-5l-40 -40h-5zM211 761l-191 -191v-5l182 182zM115 555l-95 -95v-5l93 93zM98 428l-78 -78v-5l78 78v5zM109 329l-89 -89v-5l90 90zM138 248l-118 -118v-5l119 119zM141 144l-121 -121v-3h2l118 118zM197 92l-72 -72h5l75 75zM260 45l1 -4l-21 -21h-5zM20 675
l305 305h-5l-300 -300v-5zM20 785l195 195h-5l-190 -190v-5zM20 895l85 85h-5l-80 -80v-5z" />
    <glyph glyph-name="cndC135g" unicode="&#xf3;" 
d="M500 65v-5l33 33l-8 -3zM762 765l2 -3l216 216v2h-3zM816 711l2 -3l162 162v5zM870 655l3 -2l107 107v5zM711 816l164 164h-5l-162 -162zM656 871l109 109h-5l-107 -107zM601 926l54 54h-5l-52 -52zM689 144l-124 -124h5l127 127zM686 466l-6 -1l-15 -15l4 -1zM772 447
l3 -2l205 205v5zM819 384l2 -3l159 159v5zM850 305v-5l130 130v5zM895 20h5l80 80v5zM785 20h5l190 190v5zM675 20h5l300 300v5z" />
    <glyph glyph-name="G" unicode="&#xf2;" 
d="M532 422l204.003 0.00195312v-134c-20 -18 -49.667 -34.667 -89 -50c-39.333 -16 -79.333 -24 -120 -24c-47.333 0 -92 10.333 -134 31s-74 52.667 -96 96c-22 42.667 -33 95.667 -33 159c0 52 9 100 27 144c11.333 25.333 26.666 49 45.999 71
c19.333 21.333 44.666 38.666 75.999 51.999c31.333 12.667 68.666 19 111.999 19c36.667 0 70 -6 100 -18c29.333 -12.667 52 -29.334 68 -50.001s29.333 -49.334 40 -86.001l88 23c-12.667 48.667 -30.667 88.334 -54 119.001c-24 30 -57 53.667 -99 71
c-42 16.667 -89 25 -141 25c-71.333 0 -134.333 -14.667 -189 -44s-96.667 -74 -126 -134c-29.333 -60.667 -44 -125.667 -44 -195c0 -70.667 14.667 -134.334 44 -191.001c29.333 -57.333 73 -101 131 -131c57.333 -30 121.333 -45 192 -45c52 0 103 9.33301 153 28
c49.333 18.667 97.333 46.334 144 83.001v265h-300v-84z" />
    <glyph glyph-name="cngC45g" unicode="&#xf4;" 
d="M500 60v5l-45 -45h5zM500 170v5l-155 -155h5zM472 252v5l-237 -237h5zM258 148l-3 2l-130 -130h5zM187 189l-167 -167v-2h3l166 166zM148 258l-128 -128v-5l129 129zM132 352l-112 -112v-5l113 113zM101 431l-81 -81v-5l82 82zM66 506l-46 -46v-5l48 48zM41 591l-21 -21
v-5l23 23zM500 935v5l-40 -40h5zM348 893l87 87h-5l-89 -89zM202 857l123 123h-5l-123 -123h5zM107 762l-1 4l-19 -19h5zM105 980h-5l-80 -80v-5zM215 980h-5l-190 -190v-5z" />
    <glyph glyph-name="cndC45g" unicode="&#xf6;" 
d="M500 60l49 49l-2 3l-47 -47v-5zM500 935l45 45h-5l-40 -40v-5zM980 105v-5l-80 -80h-5zM980 215v-5l-190 -190h-5zM980 325v-5l-300 -300h-5zM980 435v-5l-410 -410h-5zM959 629l21 21v5l-24 -24zM901 681l79 79v5l-81 -81zM841 731l139 139v5l-142 -142zM781 778
l199 199v3h-2l-200 -200zM714 819l161 161h-5l-160 -160zM641 856l124 124h-5l-122 -122zM558 883l97 97h-5l-96 -96z" />
    <glyph glyph-name="g" unicode="&#xf5;" 
d="M290 188c0 -58 18.3311 -101 54.998 -129c37.333 -28.667 86.666 -43 147.999 -43c52 0 95.667 10 131 30c35.333 19.333 61.333 46 78 80c16 33.333 24 90.666 24 171.999v450h-80v-64c-39.333 50.667 -89.333 76 -150 76c-45.333 0 -84.666 -11.333 -117.999 -34
c-34 -23.333 -59.667 -55.666 -77 -96.999c-18 -42 -27 -88 -27 -138c0 -72 19.333 -133.667 58 -185c38.667 -52 93.334 -78 164.001 -78c56.667 0 104 21.333 142 64c0 -56.667 -2 -94 -6 -112c-8 -29.333 -22.667 -52 -44 -68c-22 -16 -53 -24 -93 -24
c-37.333 0 -66.666 8.66699 -87.999 26c-16 13.333 -25.667 34 -29 62zM361.998 497c0 63.333 13.666 110.999 40.999 142.999c26.667 32 59 48 97 48c39.333 0 73 -16 101 -48c27.333 -32.667 41 -81 41 -145c0 -67.333 -13.333 -116.666 -40 -147.999
c-27.333 -31.333 -60.666 -47 -99.999 -47c-40 0 -73.333 16 -100 48c-26.667 31.333 -40 81 -40 149z" />
    <glyph glyph-name="RoiImmobilen" unicode="&#xfa;" horiz-adv-x="1000" 
d="M520 213c21.333 5.33301 40 21.333 56 48s24 59 24 97c22 -16.667 45.333 -29 70 -37s49 -12 73 -12c44.667 0 82 12.5 112 37.5s45 57.833 45 98.5c0 32 -10.833 67.167 -32.5 105.5s-55.5 78.5 -101.5 120.5v167c0 10 -6.83301 19.333 -20.5 28
s-32.834 16.334 -57.501 23.001s-53.167 11.834 -85.5 15.501s-66.5 5.5 -102.5 5.5c-35.333 0 -69.166 -1.83301 -101.499 -5.5s-60.833 -8.83398 -85.5 -15.501s-44 -14.334 -58 -23.001s-21 -18 -21 -28v-167c-46 -42 -79.833 -82.167 -101.5 -120.5
s-32.5 -73.5 -32.5 -105.5c0 -40.667 15.167 -73.5 45.5 -98.5s67.5 -37.5 111.5 -37.5c51.333 0 99 16.333 143 49c0 -38 8 -70.333 24 -97s34.667 -42.667 56 -48v-53h-40v-40h40v-40h40v40h40v40h-40v53zM575 376c0 -43.333 -7.33301 -77.166 -22 -101.499
s-32.334 -36.5 -53.001 -36.5c-20 0 -37.5 12.167 -52.5 36.5s-22.5 58.166 -22.5 101.499c16.667 14.667 31.334 33.5 44.001 56.5s23 50.5 31 82.5c8.66699 -32 19.167 -59.333 31.5 -82s26.833 -41.667 43.5 -57zM516 605
c60.667 0.666992 111.332 5.83398 151.999 15.501s68.334 19.5 83.001 29.5c42 -38.667 72.833 -75.167 92.5 -109.5s29.5 -65.5 29.5 -93.5c0 -34.667 -13 -62.334 -39 -83.001s-58 -31 -96 -31c-26 0 -52.167 5.5 -78.5 16.5s-50.333 27.667 -72 50s-39 50.833 -52 85.5
s-19.5 74.667 -19.5 120zM460.998 605c-41.333 1.33301 -77.499 5.00098 -108.499 11.001s-56.833 13 -77.5 21c-40 -37.333 -69.333 -71.833 -88 -103.5s-28 -59.834 -28 -84.501c0 -26.667 9.66699 -47.667 29 -63s43.666 -23 72.999 -23c22.667 0 45.667 5 69 15
s44.833 25 64.5 45s35.5 45.333 47.5 76s18.333 66 19 106zM499.999 630.001l-16.001 -25.001c0 -45.333 -6.5 -85.333 -19.5 -120s-30.333 -63.167 -52 -85.5s-45.5 -39 -71.5 -50s-52.333 -16.5 -79 -16.5c-38 0 -70 10.333 -96 31s-39 48.334 -39 83.001
c0 28 9.83301 59.167 29.5 93.5s50.5 70.833 92.5 109.5c5.33301 4.66699 8.66602 8.83398 9.99902 12.501s2 8.5 2 14.5c14 -13.333 43.167 -24.5 87.5 -33.5s94.833 -13.5 151.5 -13.5v71c-56.667 0 -107.167 4.5 -151.5 13.5s-73.5 20.167 -87.5 33.5v25
c14 -13.333 43.167 -24.5 87.5 -33.5s94.833 -13.5 151.5 -13.5v40c-56.667 0 -107.167 4.5 -151.5 13.5s-73.5 20.167 -87.5 33.5v25c14 -13.333 43.167 -24.5 87.5 -33.5s94.833 -13.5 151.5 -13.5v94c56.667 0 107.167 -4.5 151.5 -13.5s73.5 -20.167 87.5 -33.5
c-13.333 -12.667 -39.666 -23.334 -78.999 -32.001s-84.666 -13.667 -135.999 -15h-24v-25h24c51.333 1.33301 96.666 6.33301 135.999 15s65.666 19.334 78.999 32.001v-40c-13.333 -12.667 -39.666 -23.334 -78.999 -32.001s-84.666 -13.667 -135.999 -15h-24v-25h24
c51.333 1.33301 96.666 6.33301 135.999 15s65.666 19.334 78.999 32.001v-71c-13.333 -12.667 -39.666 -23.334 -78.999 -32.001s-84.666 -13.667 -135.999 -15h-24zM499.998 450c-2 -13.333 -5.5 -24.668 -10.5 -34.001s-11.833 -19.333 -20.5 -30
c-10.667 -13.333 -16 -23.666 -16 -30.999c0 -24.667 5.16699 -46.167 15.5 -64.5s20.833 -27.5 31.5 -27.5v187z" />
    <glyph glyph-name="CN135d" unicode="&#xf9;" horiz-adv-x="1000" 
d="M733 733c13.333 -13.333 20 -24.332 20 -32.999c0 -6.66699 -5 -15 -15 -25c-14 14 -21 25.333 -21 34c0 5.33301 4.66699 12.666 14 21.999zM813 476.001c15.333 -15.333 23 -29.667 23 -43c0 -17.333 -12 -36.333 -36 -57c-11.333 13.333 -17 27.333 -17 42
c0 18 10 37.333 30 58zM54 465l35.999 36.001l2 -2c37.333 -36 67 -63 89 -81c22.667 -20.667 47 -41 73 -61s52 -38.333 78 -55c39.333 -24.667 77 -44.834 113 -60.501s70.667 -26.167 104 -31.5c20.667 -2.66699 40 -4 58 -4c24.667 0 49.667 2.66699 75 8
c12 2 22.333 4.5 31 7.5s14.334 5.83301 17.001 8.5l19 -18c-44.667 -28.667 -99.334 -43 -164.001 -43c-26 0 -52.167 3.16699 -78.5 9.5s-56.166 15.833 -89.499 28.5c-28 10 -63.667 27.667 -107 53c-40 24.667 -84.333 56 -133 94c-24.667 20 -47.5 39.667 -68.5 59z
M553.999 461.001l1 -0.999023c9.33301 -10 16.333 -18.333 21 -25s7 -13.667 7 -21s-2.66699 -14 -8 -20c-19.333 19.333 -29 35.666 -29 48.999c0 6.66699 2.66699 12.667 8 18zM637.999 743.002l24.002 6.99805c0 -2 0.333008 -5.33301 1 -10s1 -8 1 -10
c0 -14 -3.33301 -25.333 -10 -34c-5.33301 6.66699 -8.83301 12.834 -10.5 18.501s-2.83398 11.834 -3.50098 18.501c-0.666992 4.66699 -1.33398 8 -2.00098 10zM897.001 392c-1.33301 5.33301 -2 11.6709 -2 19.0039c0 6 -0.333008 10.333 -1 13
c-0.666992 14 -2.33398 25 -5.00098 33c-0.666992 2 -2 5 -4 9c-4 6.66699 -7.33301 13 -10 19c-3.33301 4 -6.33301 9.66699 -9 17c-0.666992 2.66699 -1.33398 4.66699 -2.00098 6c-1.33301 4.66699 -3 11.334 -5 20.001c-2 8 -3.66699 13.333 -5 16
c-4 8.66699 -7.66699 18.667 -11 30c-3.33301 10 -6.33301 18 -9 24c-1.33301 2.66699 -3.33301 7.66699 -6 15c-2.66699 9.33301 -5 16 -7 20c-0.666992 2 -2 6.33301 -4 13c-4 12.667 -7 24 -9 34c-0.666992 14 -1.83398 26.5 -3.50098 37.5s-4.83398 20.5 -9.50098 28.5
c-2 2 -4.66699 5.33301 -8 10c-5.33301 6.66699 -9.66602 11.667 -12.999 15c-9.33301 9.33301 -20.666 17.666 -33.999 24.999c-12.667 4.66699 -23.334 7 -32.001 7h-6c-2.66699 -0.666992 -4.66699 -1 -6 -1c-7.33301 -0.666992 -14.833 -3.33398 -22.5 -8.00098
s-14.5 -10 -20.5 -16l-6 -6c-2 -2.66699 -3.33301 -4.33398 -4 -5.00098c-1.33301 0 -4.33301 0.666992 -9 2c-5.33301 0.666992 -9.33301 1 -12 1c-7.33301 0 -15.333 -3.66699 -24 -11v0c-6.66699 -9.33301 -10 -20.666 -10 -33.999c2 -8.66699 3 -21 3 -37
c1.33301 -8.66699 2 -19.667 2 -33c-2 -12 -4.33301 -27.667 -7 -47l-6 -23c-7.33301 -26 -12.666 -43 -15.999 -51c-2.66699 -8.66699 -6.66699 -19.334 -12 -32.001l-7 -20c-16 16 -27 33.333 -33 52s-10.667 42.334 -14 71.001c-0.666992 6 -1.66699 17.667 -3 35
c-4 43.333 -9.33301 76.333 -16 99c-14.667 44 -38.667 82.667 -72 116l-392 -393c38.667 -38.667 70.334 -68.667 95.001 -90s51 -43 79 -65l4 -3c19.333 -16.667 41.166 -33 65.499 -49s49.833 -31 76.5 -45c14.667 -9.33301 31.5 -18 50.5 -26s37.167 -14.333 54.5 -19
c32.667 -12.667 66 -20 100 -22c14 -1.33301 27.333 -2 40 -2s24.667 0.666992 36 2c14.667 1.33301 32 5 52 11c2.66699 0.666992 7 2 13 4c14.667 4.66699 25.334 8.66699 32.001 12c22 10 39 19.667 51 29l8 -2c21.333 -4.66699 38 -8 50 -10s27.333 -3 46 -3
c0 0.666992 -2.33301 7 -7 19c-6 14 -11.167 26.667 -15.5 38s-8.16602 19.666 -11.499 24.999c6 6 10.5 10.667 13.5 14s6.5 7.66602 10.5 12.999h6c4 -0.666992 8 -1 12 -1c15.333 0 34 1.16699 56 3.5s39.667 5.16602 53 8.49902zM811.001 315.005l6.00098 9.00098
c6.66699 8 11.667 15.333 15 22c6.66699 14 13 30.333 19 49c0 -19.333 -2 -38.333 -6 -57c-2.66699 -12 -5.83398 -21.333 -9.50098 -28s-8.16699 -13.334 -13.5 -20.001z" />
    <glyph glyph-name="CB135d" unicode="&#xfb;" horiz-adv-x="1000" 
d="M813 476c-20 -20.667 -30 -39.999 -30 -57.999c0 -14.667 5.66699 -28.667 17 -42c24 20.667 36 39.667 36 57c0 13.333 -7.66699 27.666 -23 42.999zM895 393.001c-0.666992 5.33301 -1.00293 12.3232 -1.00293 20.9902c-0.666992 5.33301 -1 9.33301 -1 12
c-2 14 -4.66699 24.667 -8 32c-0.666992 2.66699 -2.33398 7.83398 -5.00098 15.501s-5.33398 14.834 -8.00098 21.501l-11 27.5c-4.66699 11.667 -8 19.5 -10 23.5c-4.66699 11.333 -7.66699 20.333 -9 27c-3.33301 6 -6.66602 14.333 -9.99902 25l-7 20c-2 4 -4 10 -6 18
c-2 7.33301 -3.66699 13 -5 17c-3.33301 8.66699 -6 18.334 -8 29.001c-0.666992 4 -1 10 -1 18c0 10.667 -2 22 -6 34c-2 6 -7.33301 15 -16 27c-6.66699 9.33301 -15.667 18 -27 26c-11.333 9.33301 -23.666 15 -36.999 17h-6c-2.66699 0.666992 -4.66699 1 -6 1
c-2 0 -4.33301 -0.333008 -7 -1h-6c-6 -1.33301 -12.5 -3.66602 -19.5 -6.99902s-13.5 -7.33301 -19.5 -12s-10.667 -10 -14 -16c-1.33301 0.666992 -2.33301 1 -3 1c-8.66699 2 -14.667 3 -18 3c-8 0 -16 -4 -24 -12l-2 -3l-6 -12c-1.33301 -6.66699 -2 -13 -2 -19
c0.666992 -2.66699 1 -6.66699 1 -12c0.666992 -3.33301 1 -5.66602 1 -6.99902l1 -10c0.666992 -12 1 -21 1 -27c0 -7.33301 -0.666992 -16.666 -2 -27.999v-4c-0.666992 -6.66699 -2 -15 -4 -25l-1 -4c-1.33301 -4.66699 -2.66602 -10.667 -3.99902 -18
c-2 -8 -3.66699 -14.333 -5 -19c-1.33301 -3.33301 -3.33301 -9.66602 -6 -18.999c-2 -8 -4 -14 -6 -18s-4.33301 -10.667 -7 -20c0 -1.33301 -0.333008 -2.66602 -1 -3.99902c-4.66699 -8 -8.66699 -17.333 -12 -28c-23.333 24 -37.666 57 -42.999 99c-2 12 -4 30 -6 54
c-3.33301 36.667 -7.33301 64.667 -12 84c-6 25.333 -15 49.166 -27 71.499s-28.333 43.833 -49 64.5l-393 -393c27.333 -27.333 47.666 -46.666 60.999 -57.999l54 -48c8 -7.33301 20.667 -17.666 38 -30.999l25 -21c12.667 -11.333 33.667 -26.333 63 -45
c28 -19.333 54.333 -35.666 79 -48.999c22.667 -12.667 42 -22 58 -28c13.333 -6 29 -11.667 47 -17c14.667 -5.33301 28 -9.33301 40 -12c28 -8 59.667 -12 95 -12c28.667 0 48.334 1.66699 59.001 5c14 2 32 6.66699 54 14c12.667 4 25.667 9.5 39 16.5
s25.333 14.167 36 21.5c4.66699 -1.33301 11.667 -3.66602 21 -6.99902c0.666992 0 3.33398 -0.666992 8.00098 -2c6.66699 -1.33301 11.667 -2 15 -2h2c13.333 -2.66699 24 -4 32 -4c4.66699 0 10 0.333008 16 1h11c-2.66699 10 -6.66699 20 -12 30
c-2.66699 7.33301 -6.66699 16.666 -12 27.999c-2 7.33301 -5.66699 15 -11 23l5 5c8.66699 8.66699 15 16 19 22c3.33301 -0.666992 8 -1 14 -1c2 0 7 0.333008 15 1h14c15.333 0 29.333 1.33301 42 4l10 2c3.33301 0 6.66602 0.333008 9.99902 1
c0.666992 0 3.33398 0.666992 8.00098 2c9.33301 1.33301 16 3 20 5l-22 21l-16 15l-22 20l-13 12zM839.997 359.991c0 -7.33301 -1.3252 -17.3301 -3.99219 -29.9971l-1 -5c-2 -6.66699 -4 -11.5 -6 -14.5s-5.33301 -7.16699 -10 -12.5c-2 -1.33301 -3.66699 -3 -5 -5
l-11 17l-21 -21c9.33301 -10 16.166 -19.167 20.499 -27.5s10.166 -22.166 17.499 -41.499c0.666992 -2 1 -3.33301 1 -4l-16 4c-30.667 6 -53 14.333 -67 25l-16 -15l13 -13c-29.333 -19.333 -62.666 -32.333 -99.999 -39c-16.667 -3.33301 -33.667 -5 -51 -5
c-13.333 0 -27.333 1 -42 3c-27.333 4.66699 -49.333 9.66699 -66 15c-36 11.333 -71 26.333 -105 45c-41.333 22 -82 48.333 -122 79c-26.667 20 -59.334 47.333 -98.001 82l-82 81l335 336c13.333 -12.667 24.666 -30.334 33.999 -53.001s15.666 -42.334 18.999 -59.001
c2.66699 -14.667 5.66699 -36.667 9 -66c2.66699 -28.667 5.33398 -50.667 8.00098 -66c4 -24 10.167 -45.833 18.5 -65.5s20.5 -37.5 36.5 -53.5l1 -1c10 -13.333 16.5 -22.833 19.5 -28.5s6.16699 -14.834 9.5 -27.501l28 9c-2.66699 11.333 -5.83398 20.5 -9.50098 27.5
s-9.16699 14.5 -16.5 22.5c2 4.66699 7.33301 18.667 16 42c12 32 20.667 57 26 75c10.667 34 16.334 65.667 17.001 95v8c0.666992 2.66699 1 5.33398 1 8.00098c0 9.33301 -1 22.666 -3 39.999l-1 13v3l-1 2c0 6.66699 3 10 9 10s10.667 -3.33301 14 -10
c0 -4.66699 0.166992 -9.16699 0.5 -13.5s0.833008 -11.833 1.5 -22.5l24 6c-0.666992 7.33301 -1.33398 15.666 -2.00098 24.999c-0.666992 0.666992 -1 3 -1 7c1.33301 6 3.66602 10.833 6.99902 14.5s8 7.16699 14 10.5l3 2c5.33301 4 11.666 6 18.999 6
c13.333 0 26.666 -6.33301 39.999 -19c11.333 -11.333 21 -26.333 29 -45c2 -24.667 5.33301 -45.667 10 -63l12 -42c4 -12 10 -28 18 -48l12 -34c6 -13.333 13.333 -31.333 22 -54c6 -16.667 10.333 -28 13 -34c5.33301 -18 8 -37.667 8 -59
c-0.666992 -4 -1 -6.66699 -1 -8c-0.666992 -2 -1 -3.66699 -1 -5l17 -10l2 8l29 -27c5.33301 -4.66699 9 -8 11 -10c-10.667 -0.666992 -25.334 -1.33398 -44.001 -2.00098c-10 -0.666992 -18 -1.33398 -24 -2.00098c0 0.666992 -0.333008 2.33398 -1 5.00098
c-0.666992 4.66699 -1.66699 9.33398 -3 14.001c0 0.666992 -0.666992 2 -2 4c-4 8 -8 13.667 -12 17zM730.005 734.994l-2 -2.00098c-9.33301 -9.33301 -14 -16.666 -14 -21.999c0 -8.66699 7 -20 21 -34c10 10 15 18.333 15 25c0 8.66699 -6.66699 19.667 -20 33z" />
    <glyph glyph-name="Cn135d" unicode="&#xfc;" horiz-adv-x="1000" 
d="M813 476c-20 -20.667 -30 -39.999 -30 -57.999c0 -14.667 5.66699 -28.667 17 -42c24 20.667 36 39.667 36 57c0 13.333 -7.66699 27.666 -23 42.999zM500 221.001l0.00585938 268.001c9.33301 -15.333 19 -28 29 -38l1 -1c10 -13.333 16.5 -22.833 19.5 -28.5
s6.16699 -14.834 9.5 -27.501l28 9c-2.66699 11.333 -5.83398 20.5 -9.50098 27.5s-9.16699 14.5 -16.5 22.5c2 4.66699 7.33301 18.667 16 42c12 32 20.667 57 26 75c10.667 34 16.334 65.667 17.001 95v8c0.666992 2.66699 1 5.33398 1 8.00098
c0 9.33301 -1 22.666 -3 39.999l-1 13v3l-1 2c0 6.66699 3 10 9 10s10.667 -3.33301 14 -10c0 -4.66699 0.166992 -9.16699 0.5 -13.5s0.833008 -11.833 1.5 -22.5l24 6c-0.666992 7.33301 -1.33398 15.666 -2.00098 24.999c-0.666992 0.666992 -1 3 -1 7
c1.33301 6 3.66602 10.833 6.99902 14.5s8 7.16699 14 10.5l3 2c5.33301 4 11.666 6 18.999 6c13.333 0 26.666 -6.33301 39.999 -19c11.333 -11.333 21 -26.333 29 -45c2 -24.667 5.33301 -45.667 10 -63l12 -42c4 -12 10 -28 18 -48l12 -34
c6 -13.333 13.333 -31.333 22 -54c6 -16.667 10.333 -28 13 -34c5.33301 -18 8 -37.667 8 -59c-0.666992 -4 -1 -6.66699 -1 -8c-0.666992 -2 -1 -3.66699 -1 -5l17 -10l2 8l29 -27c5.33301 -4.66699 9 -8 11 -10c-10.667 -0.666992 -25.334 -1.33398 -44.001 -2.00098
c-10 -0.666992 -18 -1.33398 -24 -2.00098c0 0.666992 -0.333008 2.33398 -1 5.00098c-0.666992 4.66699 -1.66699 9.33398 -3 14.001c0 0.666992 -0.666992 2 -2 4c-4 8 -8 13.667 -12 17c0 -7.33301 -1.33301 -17.333 -4 -30l-1 -5c-2 -6.66699 -4 -11.5 -6 -14.5
s-5.33301 -7.16699 -10 -12.5c-2 -1.33301 -3.66699 -3 -5 -5l-11 17l-21 -21c9.33301 -10 16.166 -19.167 20.499 -27.5s10.166 -22.166 17.499 -41.499c0.666992 -2 1 -3.33301 1 -4l-16 4c-30.667 6 -53 14.333 -67 25l-16 -15l13 -13
c-29.333 -19.333 -62.666 -32.333 -99.999 -39c-16.667 -3.33301 -33.667 -5 -51 -5c-13.333 0 -27.333 1 -42 3c-20 1.33301 -33.667 3.33301 -41 6c-22.667 4 -50.667 12.333 -84 25c-28 10 -63.667 27.667 -107 53c-40 24.667 -84.333 56 -133 94
c-24.667 20 -47.5 39.667 -68.5 59l-54.5 52l36 36l2 -2c37.333 -36 67 -63 89 -81c22.667 -20.667 47 -41 73 -61s52 -38.333 78 -55c59.333 -37.333 115.333 -64.333 168 -81zM895.006 393.002c-0.666992 5.33301 -1.00293 12.3232 -1.00293 20.9902
c-0.666992 5.33301 -1 9.33301 -1 12c-2 14 -4.66699 24.667 -8 32c-0.666992 2.66699 -2.33398 7.83398 -5.00098 15.501s-5.33398 14.834 -8.00098 21.501l-11 27.5c-4.66699 11.667 -8 19.5 -10 23.5c-4.66699 11.333 -7.66699 20.333 -9 27
c-3.33301 6 -6.66602 14.333 -9.99902 25l-7 20c-2 4 -4 10 -6 18c-2 7.33301 -3.66699 13 -5 17c-3.33301 8.66699 -6 18.334 -8 29.001c-0.666992 4 -1 10 -1 18c0 10.667 -2 22 -6 34c-2 6 -7.33301 15 -16 27c-6.66699 9.33301 -15.667 18 -27 26
c-11.333 9.33301 -23.666 15 -36.999 17h-6c-2.66699 0.666992 -4.66699 1 -6 1c-2 0 -4.33301 -0.333008 -7 -1h-6c-6 -1.33301 -12.5 -3.66602 -19.5 -6.99902s-13.5 -7.33301 -19.5 -12s-10.667 -10 -14 -16c-1.33301 0.666992 -2.33301 1 -3 1
c-8.66699 2 -14.667 3 -18 3c-8 0 -16 -4 -24 -12l-2 -3l-6 -12c-1.33301 -6.66699 -2 -13 -2 -19c0.666992 -2.66699 1 -6.66699 1 -12c0.666992 -3.33301 1 -5.66602 1 -6.99902l1 -10c0.666992 -12 1 -21 1 -27c0 -7.33301 -0.666992 -16.666 -2 -27.999v-4
c-0.666992 -6.66699 -2 -15 -4 -25l-1 -4c-1.33301 -4.66699 -2.66602 -10.667 -3.99902 -18c-2 -8 -3.66699 -14.333 -5 -19c-1.33301 -3.33301 -3.33301 -9.66602 -6 -18.999c-2 -8 -4 -14 -6 -18s-4.33301 -10.667 -7 -20c0 -1.33301 -0.333008 -2.66602 -1 -3.99902
c-4.66699 -8 -8.66699 -17.333 -12 -28c-23.333 24 -37.666 57 -42.999 99c-2 12 -4 30 -6 54c-3.33301 36.667 -7.33301 64.667 -12 84c-6 25.333 -15 49.166 -27 71.499s-28.333 43.833 -49 64.5l-393 -393c27.333 -27.333 47.666 -46.666 60.999 -57.999l54 -48
c8 -7.33301 20.667 -17.666 38 -30.999l25 -21c12.667 -11.333 33.667 -26.333 63 -45c28 -19.333 54.333 -35.666 79 -48.999c22.667 -12.667 42 -22 58 -28c13.333 -6 29 -11.667 47 -17c14.667 -5.33301 28 -9.33301 40 -12c28 -8 59.667 -12 95 -12
c28.667 0 48.334 1.66699 59.001 5c14 2 32 6.66699 54 14c12.667 4 25.667 9.5 39 16.5s25.333 14.167 36 21.5c4.66699 -1.33301 11.667 -3.66602 21 -6.99902c0.666992 0 3.33398 -0.666992 8.00098 -2c6.66699 -1.33301 11.667 -2 15 -2h2c13.333 -2.66699 24 -4 32 -4
c4.66699 0 10 0.333008 16 1h11c-2.66699 10 -6.66699 20 -12 30c-2.66699 7.33301 -6.66699 16.666 -12 27.999c-2 7.33301 -5.66699 15 -11 23l5 5c8.66699 8.66699 15 16 19 22c3.33301 -0.666992 8 -1 14 -1c2 0 7 0.333008 15 1h14c15.333 0 29.333 1.33301 42 4l10 2
c3.33301 0 6.66602 0.333008 9.99902 1c0.666992 0 3.33398 0.666992 8.00098 2c9.33301 1.33301 16 3 20 5l-22 21l-16 15l-22 20l-13 12zM730.003 734.992l-2 -2.00098c-9.33301 -9.33301 -14 -16.666 -14 -21.999c0 -8.66699 7 -20 21 -34c10 10 15 18.333 15 25
c0 8.66699 -6.66699 19.667 -20 33z" />
    <glyph glyph-name="Tn" unicode="&#x2020;" horiz-adv-x="1000" 
d="M500 170h-240v30h240v-30zM500 260h-230v30h230v-30zM500 320h-180v30h180v-30zM500 655h-180v30h180v-30zM500 735h-255v30h255v-30zM500 140v30h300v-30h-300zM500 200v60h240v-60h-240zM500 290v30h180l50 -30h-230zM500 350v305h180v-214v-91h-180zM500 685v50h255
l-75 -50h-180zM500 765v95h45v-75h30h120v75h75v-95h-270zM800 890h-135v-25v-55h-90v55v25h-95h-55v-25v-55h-90v55v25h-135v-25v-125l90 -70v-229v-111l-60 -40v-25v-65h-60v-25v-65h330h330v65v25h-60v65v25l-60 40v111v229l90 70v125v25z" />
    <glyph glyph-name="cngPao" unicode="&#xb0;" 
d="M500 175v-5l-150 -150h-5zM500 65v-5l-40 -40h-5zM500 940l-160 -160l2 -3l158 158v5zM500 830v-5l-70 -70h-5zM462 242h-5l-222 -222h5zM352 242h-5l-8 -8l-1 -6zM265 155h-5l-135 -135h5zM157 155h-5l-132 -132v-3h2zM64 169v5l-44 -44v-5zM64 279v5l-44 -44v-5z
M64 389v5l-44 -44v-5zM64 499v5l-44 -44v-5zM64 609v5l-44 -44v-5zM64 719v5l-44 -44v-5zM64 829v5l-44 -44v-5zM75 845h5l135 135h-5zM185 845h5l135 135h-5zM295 845h5l135 135h-5zM20 895l85 85h-5l-80 -80v-5z" />
    </font>
</defs>
</svg>
